<ttFont>
    <TTGlyph name="A" xMin="14" yMin="0" xMax="575" yMax="672">
      <contour>
        <pt x="427" y="10" on="1"/>
        <pt x="432" y="10" on="1"/>
        <pt x="456" y="10" on="0"/>
        <pt x="456" y="32" on="1"/>
        <pt x="456" y="40" on="0"/>
        <pt x="453" y="49" on="1"/>
        <pt x="363" y="292" on="1"/>
        <pt x="188" y="292" on="1"/>
        <pt x="101" y="53" on="1"/>
        <pt x="98" y="45" on="0"/>
        <pt x="98" y="38" on="1"/>
        <pt x="98" y="25" on="0"/>
        <pt x="112" y="10" on="0"/>
        <pt x="120" y="10" on="1"/>
        <pt x="125" y="10" on="1"/>
        <pt x="125" y="0" on="1"/>
        <pt x="14" y="0" on="1"/>
        <pt x="14" y="10" on="1"/>
        <pt x="19" y="10" on="1"/>
        <pt x="32" y="10" on="0"/>
        <pt x="57" y="41" on="0"/>
        <pt x="65" y="62" on="1"/>
        <pt x="294" y="672" on="1"/>
        <pt x="518" y="68" on="1"/>
        <pt x="525" y="48" on="0"/>
        <pt x="550" y="10" on="0"/>
        <pt x="570" y="10" on="1"/>
        <pt x="575" y="10" on="1"/>
        <pt x="575" y="0" on="1"/>
        <pt x="427" y="0" on="1"/>
      </contour>
      <contour>
        <pt x="198" y="326" on="1"/>
        <pt x="352" y="326" on="1"/>
        <pt x="275" y="535" on="1"/>
      </contour>
    </TTGlyph>
    <TTGlyph name="AE" xMin="15" yMin="0" xMax="764" yMax="660">
      <contour>
        <pt x="681" y="294" on="1"/>
        <pt x="681" y="312" on="0"/>
        <pt x="651" y="338" on="0"/>
        <pt x="627" y="338" on="1"/>
        <pt x="482" y="338" on="1"/>
        <pt x="482" y="35" on="1"/>
        <pt x="680" y="35" on="1"/>
        <pt x="699" y="35" on="0"/>
        <pt x="727" y="53" on="0"/>
        <pt x="745" y="80" on="0"/>
        <pt x="754" y="111" on="0"/>
        <pt x="754" y="124" on="1"/>
        <pt x="754" y="129" on="1"/>
        <pt x="764" y="129" on="1"/>
        <pt x="764" y="0" on="1"/>
        <pt x="376" y="0" on="1"/>
        <pt x="376" y="10" on="1"/>
        <pt x="381" y="10" on="1"/>
        <pt x="389" y="10" on="0"/>
        <pt x="401" y="21" on="0"/>
        <pt x="410" y="37" on="0"/>
        <pt x="415" y="55" on="0"/>
        <pt x="415" y="63" on="1"/>
        <pt x="415" y="339" on="1"/>
        <pt x="287" y="339" on="1"/>
        <pt x="115" y="57" on="1"/>
        <pt x="111" y="51" on="0"/>
        <pt x="103" y="35" on="0"/>
        <pt x="103" y="28" on="1"/>
        <pt x="103" y="10" on="0"/>
        <pt x="121" y="10" on="1"/>
        <pt x="126" y="10" on="1"/>
        <pt x="126" y="0" on="1"/>
        <pt x="15" y="0" on="1"/>
        <pt x="15" y="10" on="1"/>
        <pt x="20" y="10" on="1"/>
        <pt x="35" y="10" on="0"/>
        <pt x="67" y="44" on="0"/>
        <pt x="80" y="64" on="1"/>
        <pt x="414" y="613" on="1"/>
        <pt x="414" y="627" on="0"/>
        <pt x="392" y="650" on="0"/>
        <pt x="381" y="650" on="1"/>
        <pt x="376" y="650" on="1"/>
        <pt x="376" y="660" on="1"/>
        <pt x="739" y="660" on="1"/>
        <pt x="739" y="562" on="1"/>
        <pt x="729" y="562" on="1"/>
        <pt x="729" y="567" on="1"/>
        <pt x="729" y="590" on="0"/>
        <pt x="698" y="625" on="0"/>
        <pt x="666" y="625" on="1"/>
        <pt x="482" y="625" on="1"/>
        <pt x="482" y="372" on="1"/>
        <pt x="627" y="372" on="1"/>
        <pt x="650" y="372" on="0"/>
        <pt x="681" y="400" on="0"/>
        <pt x="681" y="419" on="1"/>
        <pt x="681" y="424" on="1"/>
        <pt x="691" y="424" on="1"/>
        <pt x="691" y="289" on="1"/>
        <pt x="681" y="289" on="1"/>
      </contour>
      <contour>
        <pt x="415" y="372" on="1"/>
        <pt x="415" y="550" on="1"/>
        <pt x="308" y="372" on="1"/>
      </contour>
    </TTGlyph>
    <TTGlyph name="AEacute" xMin="15" yMin="0" xMax="764" yMax="795">
      <contour>
        <pt x="681" y="294" on="1"/>
        <pt x="681" y="312" on="0"/>
        <pt x="651" y="338" on="0"/>
        <pt x="627" y="338" on="1"/>
        <pt x="482" y="338" on="1"/>
        <pt x="482" y="35" on="1"/>
        <pt x="680" y="35" on="1"/>
        <pt x="699" y="35" on="0"/>
        <pt x="727" y="53" on="0"/>
        <pt x="745" y="80" on="0"/>
        <pt x="754" y="111" on="0"/>
        <pt x="754" y="124" on="1"/>
        <pt x="754" y="129" on="1"/>
        <pt x="764" y="129" on="1"/>
        <pt x="764" y="0" on="1"/>
        <pt x="376" y="0" on="1"/>
        <pt x="376" y="10" on="1"/>
        <pt x="381" y="10" on="1"/>
        <pt x="389" y="10" on="0"/>
        <pt x="401" y="21" on="0"/>
        <pt x="410" y="37" on="0"/>
        <pt x="415" y="55" on="0"/>
        <pt x="415" y="63" on="1"/>
        <pt x="415" y="339" on="1"/>
        <pt x="287" y="339" on="1"/>
        <pt x="115" y="57" on="1"/>
        <pt x="111" y="51" on="0"/>
        <pt x="103" y="35" on="0"/>
        <pt x="103" y="28" on="1"/>
        <pt x="103" y="10" on="0"/>
        <pt x="121" y="10" on="1"/>
        <pt x="126" y="10" on="1"/>
        <pt x="126" y="0" on="1"/>
        <pt x="15" y="0" on="1"/>
        <pt x="15" y="10" on="1"/>
        <pt x="20" y="10" on="1"/>
        <pt x="35" y="10" on="0"/>
        <pt x="67" y="44" on="0"/>
        <pt x="80" y="64" on="1"/>
        <pt x="414" y="613" on="1"/>
        <pt x="414" y="627" on="0"/>
        <pt x="392" y="650" on="0"/>
        <pt x="381" y="650" on="1"/>
        <pt x="376" y="650" on="1"/>
        <pt x="376" y="660" on="1"/>
        <pt x="739" y="660" on="1"/>
        <pt x="739" y="562" on="1"/>
        <pt x="729" y="562" on="1"/>
        <pt x="729" y="567" on="1"/>
        <pt x="729" y="590" on="0"/>
        <pt x="698" y="625" on="0"/>
        <pt x="666" y="625" on="1"/>
        <pt x="482" y="625" on="1"/>
        <pt x="482" y="372" on="1"/>
        <pt x="627" y="372" on="1"/>
        <pt x="650" y="372" on="0"/>
        <pt x="681" y="400" on="0"/>
        <pt x="681" y="419" on="1"/>
        <pt x="681" y="424" on="1"/>
        <pt x="691" y="424" on="1"/>
        <pt x="691" y="289" on="1"/>
        <pt x="681" y="289" on="1"/>
      </contour>
      <contour>
        <pt x="415" y="372" on="1"/>
        <pt x="415" y="550" on="1"/>
        <pt x="308" y="372" on="1"/>
      </contour>
      <contour>
        <pt x="459" y="688" on="1"/>
        <pt x="601" y="795" on="1"/>
        <pt x="627" y="750" on="1"/>
        <pt x="462" y="682" on="1"/>
      </contour>
    </TTGlyph>
    <TTGlyph name="Aacute" xMin="14" yMin="0" xMax="575" yMax="795">
      <contour>
        <pt x="427" y="10" on="1"/>
        <pt x="432" y="10" on="1"/>
        <pt x="456" y="10" on="0"/>
        <pt x="456" y="32" on="1"/>
        <pt x="456" y="40" on="0"/>
        <pt x="453" y="49" on="1"/>
        <pt x="363" y="292" on="1"/>
        <pt x="188" y="292" on="1"/>
        <pt x="101" y="53" on="1"/>
        <pt x="98" y="45" on="0"/>
        <pt x="98" y="38" on="1"/>
        <pt x="98" y="25" on="0"/>
        <pt x="112" y="10" on="0"/>
        <pt x="120" y="10" on="1"/>
        <pt x="125" y="10" on="1"/>
        <pt x="125" y="0" on="1"/>
        <pt x="14" y="0" on="1"/>
        <pt x="14" y="10" on="1"/>
        <pt x="19" y="10" on="1"/>
        <pt x="32" y="10" on="0"/>
        <pt x="57" y="41" on="0"/>
        <pt x="65" y="62" on="1"/>
        <pt x="294" y="672" on="1"/>
        <pt x="518" y="68" on="1"/>
        <pt x="525" y="48" on="0"/>
        <pt x="550" y="10" on="0"/>
        <pt x="570" y="10" on="1"/>
        <pt x="575" y="10" on="1"/>
        <pt x="575" y="0" on="1"/>
        <pt x="427" y="0" on="1"/>
      </contour>
      <contour>
        <pt x="198" y="326" on="1"/>
        <pt x="352" y="326" on="1"/>
        <pt x="275" y="535" on="1"/>
      </contour>
      <contour>
        <pt x="212" y="688" on="1"/>
        <pt x="354" y="795" on="1"/>
        <pt x="380" y="750" on="1"/>
        <pt x="215" y="682" on="1"/>
      </contour>
    </TTGlyph>
    <TTGlyph name="Abreve" xMin="14" yMin="0" xMax="575" yMax="795">
      <contour>
        <pt x="427" y="10" on="1"/>
        <pt x="432" y="10" on="1"/>
        <pt x="456" y="10" on="0"/>
        <pt x="456" y="32" on="1"/>
        <pt x="456" y="40" on="0"/>
        <pt x="453" y="49" on="1"/>
        <pt x="363" y="292" on="1"/>
        <pt x="188" y="292" on="1"/>
        <pt x="101" y="53" on="1"/>
        <pt x="98" y="45" on="0"/>
        <pt x="98" y="38" on="1"/>
        <pt x="98" y="25" on="0"/>
        <pt x="112" y="10" on="0"/>
        <pt x="120" y="10" on="1"/>
        <pt x="125" y="10" on="1"/>
        <pt x="125" y="0" on="1"/>
        <pt x="14" y="0" on="1"/>
        <pt x="14" y="10" on="1"/>
        <pt x="19" y="10" on="1"/>
        <pt x="32" y="10" on="0"/>
        <pt x="57" y="41" on="0"/>
        <pt x="65" y="62" on="1"/>
        <pt x="294" y="672" on="1"/>
        <pt x="518" y="68" on="1"/>
        <pt x="525" y="48" on="0"/>
        <pt x="550" y="10" on="0"/>
        <pt x="570" y="10" on="1"/>
        <pt x="575" y="10" on="1"/>
        <pt x="575" y="0" on="1"/>
        <pt x="427" y="0" on="1"/>
      </contour>
      <contour>
        <pt x="198" y="326" on="1"/>
        <pt x="352" y="326" on="1"/>
        <pt x="275" y="535" on="1"/>
      </contour>
      <contour>
        <pt x="408" y="795" on="1"/>
        <pt x="408" y="779" on="0"/>
        <pt x="392" y="742" on="0"/>
        <pt x="363" y="711" on="0"/>
        <pt x="322" y="691" on="0"/>
        <pt x="297" y="691" on="1"/>
        <pt x="273" y="691" on="0"/>
        <pt x="232" y="710" on="0"/>
        <pt x="202" y="740" on="0"/>
        <pt x="184" y="777" on="0"/>
        <pt x="184" y="795" on="1"/>
        <pt x="190" y="795" on="1"/>
        <pt x="191" y="789" on="0"/>
        <pt x="202" y="768" on="0"/>
        <pt x="226" y="746" on="0"/>
        <pt x="266" y="730" on="0"/>
        <pt x="296" y="730" on="1"/>
        <pt x="327" y="730" on="0"/>
        <pt x="366" y="746" on="0"/>
        <pt x="390" y="768" on="0"/>
        <pt x="400" y="789" on="0"/>
        <pt x="402" y="795" on="1"/>
      </contour>
    </TTGlyph>
    <TTGlyph name="Acircumflex" xMin="14" yMin="0" xMax="575" yMax="793">
      <contour>
        <pt x="427" y="10" on="1"/>
        <pt x="432" y="10" on="1"/>
        <pt x="456" y="10" on="0"/>
        <pt x="456" y="32" on="1"/>
        <pt x="456" y="40" on="0"/>
        <pt x="453" y="49" on="1"/>
        <pt x="363" y="292" on="1"/>
        <pt x="188" y="292" on="1"/>
        <pt x="101" y="53" on="1"/>
        <pt x="98" y="45" on="0"/>
        <pt x="98" y="38" on="1"/>
        <pt x="98" y="25" on="0"/>
        <pt x="112" y="10" on="0"/>
        <pt x="120" y="10" on="1"/>
        <pt x="125" y="10" on="1"/>
        <pt x="125" y="0" on="1"/>
        <pt x="14" y="0" on="1"/>
        <pt x="14" y="10" on="1"/>
        <pt x="19" y="10" on="1"/>
        <pt x="32" y="10" on="0"/>
        <pt x="57" y="41" on="0"/>
        <pt x="65" y="62" on="1"/>
        <pt x="294" y="672" on="1"/>
        <pt x="518" y="68" on="1"/>
        <pt x="525" y="48" on="0"/>
        <pt x="550" y="10" on="0"/>
        <pt x="570" y="10" on="1"/>
        <pt x="575" y="10" on="1"/>
        <pt x="575" y="0" on="1"/>
        <pt x="427" y="0" on="1"/>
      </contour>
      <contour>
        <pt x="198" y="326" on="1"/>
        <pt x="352" y="326" on="1"/>
        <pt x="275" y="535" on="1"/>
      </contour>
      <contour>
        <pt x="417" y="685" on="1"/>
        <pt x="296" y="744" on="1"/>
        <pt x="176" y="685" on="1"/>
        <pt x="174" y="690" on="1"/>
        <pt x="296" y="793" on="1"/>
        <pt x="418" y="690" on="1"/>
      </contour>
    </TTGlyph>
    <TTGlyph name="Adieresis" xMin="14" yMin="0" xMax="575" yMax="750">
      <contour>
        <pt x="427" y="10" on="1"/>
        <pt x="432" y="10" on="1"/>
        <pt x="456" y="10" on="0"/>
        <pt x="456" y="32" on="1"/>
        <pt x="456" y="40" on="0"/>
        <pt x="453" y="49" on="1"/>
        <pt x="363" y="292" on="1"/>
        <pt x="188" y="292" on="1"/>
        <pt x="101" y="53" on="1"/>
        <pt x="98" y="45" on="0"/>
        <pt x="98" y="38" on="1"/>
        <pt x="98" y="25" on="0"/>
        <pt x="112" y="10" on="0"/>
        <pt x="120" y="10" on="1"/>
        <pt x="125" y="10" on="1"/>
        <pt x="125" y="0" on="1"/>
        <pt x="14" y="0" on="1"/>
        <pt x="14" y="10" on="1"/>
        <pt x="19" y="10" on="1"/>
        <pt x="32" y="10" on="0"/>
        <pt x="57" y="41" on="0"/>
        <pt x="65" y="62" on="1"/>
        <pt x="294" y="672" on="1"/>
        <pt x="518" y="68" on="1"/>
        <pt x="525" y="48" on="0"/>
        <pt x="550" y="10" on="0"/>
        <pt x="570" y="10" on="1"/>
        <pt x="575" y="10" on="1"/>
        <pt x="575" y="0" on="1"/>
        <pt x="427" y="0" on="1"/>
      </contour>
      <contour>
        <pt x="198" y="326" on="1"/>
        <pt x="352" y="326" on="1"/>
        <pt x="275" y="535" on="1"/>
      </contour>
      <contour>
        <pt x="386" y="718" on="1"/>
        <pt x="386" y="704" on="0"/>
        <pt x="368" y="686" on="0"/>
        <pt x="356" y="686" on="1"/>
        <pt x="342" y="686" on="0"/>
        <pt x="323" y="704" on="0"/>
        <pt x="323" y="718" on="1"/>
        <pt x="323" y="732" on="0"/>
        <pt x="342" y="750" on="0"/>
        <pt x="356" y="750" on="1"/>
        <pt x="368" y="750" on="0"/>
        <pt x="386" y="732" on="0"/>
      </contour>
      <contour>
        <pt x="271" y="718" on="1"/>
        <pt x="271" y="704" on="0"/>
        <pt x="253" y="686" on="0"/>
        <pt x="239" y="686" on="1"/>
        <pt x="225" y="686" on="0"/>
        <pt x="207" y="704" on="0"/>
        <pt x="207" y="718" on="1"/>
        <pt x="207" y="732" on="0"/>
        <pt x="225" y="750" on="0"/>
        <pt x="239" y="750" on="1"/>
        <pt x="253" y="750" on="0"/>
        <pt x="271" y="732" on="0"/>
      </contour>
    </TTGlyph>
    <TTGlyph name="Agrave" xMin="14" yMin="0" xMax="575" yMax="795">
      <contour>
        <pt x="427" y="10" on="1"/>
        <pt x="432" y="10" on="1"/>
        <pt x="456" y="10" on="0"/>
        <pt x="456" y="32" on="1"/>
        <pt x="456" y="40" on="0"/>
        <pt x="453" y="49" on="1"/>
        <pt x="363" y="292" on="1"/>
        <pt x="188" y="292" on="1"/>
        <pt x="101" y="53" on="1"/>
        <pt x="98" y="45" on="0"/>
        <pt x="98" y="38" on="1"/>
        <pt x="98" y="25" on="0"/>
        <pt x="112" y="10" on="0"/>
        <pt x="120" y="10" on="1"/>
        <pt x="125" y="10" on="1"/>
        <pt x="125" y="0" on="1"/>
        <pt x="14" y="0" on="1"/>
        <pt x="14" y="10" on="1"/>
        <pt x="19" y="10" on="1"/>
        <pt x="32" y="10" on="0"/>
        <pt x="57" y="41" on="0"/>
        <pt x="65" y="62" on="1"/>
        <pt x="294" y="672" on="1"/>
        <pt x="518" y="68" on="1"/>
        <pt x="525" y="48" on="0"/>
        <pt x="550" y="10" on="0"/>
        <pt x="570" y="10" on="1"/>
        <pt x="575" y="10" on="1"/>
        <pt x="575" y="0" on="1"/>
        <pt x="427" y="0" on="1"/>
      </contour>
      <contour>
        <pt x="198" y="326" on="1"/>
        <pt x="352" y="326" on="1"/>
        <pt x="275" y="535" on="1"/>
      </contour>
      <contour>
        <pt x="378" y="682" on="1"/>
        <pt x="212" y="750" on="1"/>
        <pt x="238" y="795" on="1"/>
        <pt x="380" y="688" on="1"/>
      </contour>
    </TTGlyph>
    <TTGlyph name="Amacron" xMin="14" yMin="0" xMax="575" yMax="753">
      <contour>
        <pt x="427" y="10" on="1"/>
        <pt x="432" y="10" on="1"/>
        <pt x="456" y="10" on="0"/>
        <pt x="456" y="32" on="1"/>
        <pt x="456" y="40" on="0"/>
        <pt x="453" y="49" on="1"/>
        <pt x="363" y="292" on="1"/>
        <pt x="188" y="292" on="1"/>
        <pt x="101" y="53" on="1"/>
        <pt x="98" y="45" on="0"/>
        <pt x="98" y="38" on="1"/>
        <pt x="98" y="25" on="0"/>
        <pt x="112" y="10" on="0"/>
        <pt x="120" y="10" on="1"/>
        <pt x="125" y="10" on="1"/>
        <pt x="125" y="0" on="1"/>
        <pt x="14" y="0" on="1"/>
        <pt x="14" y="10" on="1"/>
        <pt x="19" y="10" on="1"/>
        <pt x="32" y="10" on="0"/>
        <pt x="57" y="41" on="0"/>
        <pt x="65" y="62" on="1"/>
        <pt x="294" y="672" on="1"/>
        <pt x="518" y="68" on="1"/>
        <pt x="525" y="48" on="0"/>
        <pt x="550" y="10" on="0"/>
        <pt x="570" y="10" on="1"/>
        <pt x="575" y="10" on="1"/>
        <pt x="575" y="0" on="1"/>
        <pt x="427" y="0" on="1"/>
      </contour>
      <contour>
        <pt x="198" y="326" on="1"/>
        <pt x="352" y="326" on="1"/>
        <pt x="275" y="535" on="1"/>
      </contour>
      <contour>
        <pt x="196" y="753" on="1"/>
        <pt x="396" y="753" on="1"/>
        <pt x="396" y="713" on="1"/>
        <pt x="196" y="713" on="1"/>
      </contour>
    </TTGlyph>
    <TTGlyph name="Aogonek" xMin="14" yMin="-139" xMax="575" yMax="672">
      <contour>
        <pt x="503" y="0" on="1"/>
        <pt x="486" y="-15" on="0"/>
        <pt x="460" y="-56" on="0"/>
        <pt x="460" y="-76" on="1"/>
        <pt x="460" y="-95" on="0"/>
        <pt x="489" y="-125" on="0"/>
        <pt x="527" y="-125" on="1"/>
        <pt x="551" y="-125" on="0"/>
        <pt x="568" y="-118" on="1"/>
        <pt x="570" y="-123" on="1"/>
        <pt x="557" y="-131" on="0"/>
        <pt x="519" y="-139" on="0"/>
        <pt x="498" y="-139" on="1"/>
        <pt x="453" y="-139" on="0"/>
        <pt x="412" y="-106" on="0"/>
        <pt x="412" y="-83" on="1"/>
        <pt x="412" y="-59" on="0"/>
        <pt x="447" y="-15" on="0"/>
        <pt x="470" y="0" on="1"/>
        <pt x="427" y="0" on="1"/>
        <pt x="427" y="10" on="1"/>
        <pt x="432" y="10" on="1"/>
        <pt x="456" y="10" on="0"/>
        <pt x="456" y="32" on="1"/>
        <pt x="456" y="40" on="0"/>
        <pt x="453" y="49" on="1"/>
        <pt x="363" y="292" on="1"/>
        <pt x="188" y="292" on="1"/>
        <pt x="101" y="53" on="1"/>
        <pt x="98" y="45" on="0"/>
        <pt x="98" y="38" on="1"/>
        <pt x="98" y="25" on="0"/>
        <pt x="112" y="10" on="0"/>
        <pt x="120" y="10" on="1"/>
        <pt x="125" y="10" on="1"/>
        <pt x="125" y="0" on="1"/>
        <pt x="14" y="0" on="1"/>
        <pt x="14" y="10" on="1"/>
        <pt x="19" y="10" on="1"/>
        <pt x="32" y="10" on="0"/>
        <pt x="57" y="42" on="0"/>
        <pt x="65" y="62" on="1"/>
        <pt x="294" y="672" on="1"/>
        <pt x="518" y="68" on="1"/>
        <pt x="526" y="49" on="0"/>
        <pt x="554" y="10" on="0"/>
        <pt x="570" y="10" on="1"/>
        <pt x="575" y="10" on="1"/>
        <pt x="575" y="0" on="1"/>
      </contour>
      <contour>
        <pt x="198" y="326" on="1"/>
        <pt x="352" y="326" on="1"/>
        <pt x="275" y="535" on="1"/>
      </contour>
    </TTGlyph>
    <TTGlyph name="Aring" xMin="14" yMin="0" xMax="575" yMax="809">
      <contour>
        <pt x="427" y="10" on="1"/>
        <pt x="432" y="10" on="1"/>
        <pt x="456" y="10" on="0"/>
        <pt x="456" y="32" on="1"/>
        <pt x="456" y="40" on="0"/>
        <pt x="453" y="49" on="1"/>
        <pt x="363" y="292" on="1"/>
        <pt x="188" y="292" on="1"/>
        <pt x="101" y="53" on="1"/>
        <pt x="98" y="45" on="0"/>
        <pt x="98" y="38" on="1"/>
        <pt x="98" y="25" on="0"/>
        <pt x="112" y="10" on="0"/>
        <pt x="120" y="10" on="1"/>
        <pt x="125" y="10" on="1"/>
        <pt x="125" y="0" on="1"/>
        <pt x="14" y="0" on="1"/>
        <pt x="14" y="10" on="1"/>
        <pt x="19" y="10" on="1"/>
        <pt x="32" y="10" on="0"/>
        <pt x="57" y="41" on="0"/>
        <pt x="65" y="62" on="1"/>
        <pt x="294" y="672" on="1"/>
        <pt x="518" y="68" on="1"/>
        <pt x="525" y="48" on="0"/>
        <pt x="550" y="10" on="0"/>
        <pt x="570" y="10" on="1"/>
        <pt x="575" y="10" on="1"/>
        <pt x="575" y="0" on="1"/>
        <pt x="427" y="0" on="1"/>
      </contour>
      <contour>
        <pt x="198" y="326" on="1"/>
        <pt x="352" y="326" on="1"/>
        <pt x="275" y="535" on="1"/>
      </contour>
      <contour>
        <pt x="224" y="749" on="1"/>
        <pt x="224" y="775" on="0"/>
        <pt x="265" y="809" on="0"/>
        <pt x="296" y="809" on="1"/>
        <pt x="327" y="809" on="0"/>
        <pt x="369" y="775" on="0"/>
        <pt x="369" y="749" on="1"/>
        <pt x="369" y="723" on="0"/>
        <pt x="327" y="690" on="0"/>
        <pt x="296" y="690" on="1"/>
        <pt x="265" y="690" on="0"/>
        <pt x="224" y="723" on="0"/>
      </contour>
      <contour>
        <pt x="252" y="755" on="1"/>
        <pt x="252" y="734" on="0"/>
        <pt x="282" y="705" on="0"/>
        <pt x="303" y="705" on="1"/>
        <pt x="320" y="705" on="0"/>
        <pt x="342" y="728" on="0"/>
        <pt x="342" y="746" on="1"/>
        <pt x="342" y="764" on="0"/>
        <pt x="310" y="794" on="0"/>
        <pt x="290" y="794" on="1"/>
        <pt x="274" y="794" on="0"/>
        <pt x="252" y="771" on="0"/>
      </contour>
    </TTGlyph>
    <TTGlyph name="Atilde" xMin="14" yMin="0" xMax="575" yMax="772">
      <contour>
        <pt x="427" y="10" on="1"/>
        <pt x="432" y="10" on="1"/>
        <pt x="456" y="10" on="0"/>
        <pt x="456" y="32" on="1"/>
        <pt x="456" y="40" on="0"/>
        <pt x="453" y="49" on="1"/>
        <pt x="363" y="292" on="1"/>
        <pt x="188" y="292" on="1"/>
        <pt x="101" y="53" on="1"/>
        <pt x="98" y="45" on="0"/>
        <pt x="98" y="38" on="1"/>
        <pt x="98" y="25" on="0"/>
        <pt x="112" y="10" on="0"/>
        <pt x="120" y="10" on="1"/>
        <pt x="125" y="10" on="1"/>
        <pt x="125" y="0" on="1"/>
        <pt x="14" y="0" on="1"/>
        <pt x="14" y="10" on="1"/>
        <pt x="19" y="10" on="1"/>
        <pt x="32" y="10" on="0"/>
        <pt x="57" y="41" on="0"/>
        <pt x="65" y="62" on="1"/>
        <pt x="294" y="672" on="1"/>
        <pt x="518" y="68" on="1"/>
        <pt x="525" y="48" on="0"/>
        <pt x="550" y="10" on="0"/>
        <pt x="570" y="10" on="1"/>
        <pt x="575" y="10" on="1"/>
        <pt x="575" y="0" on="1"/>
        <pt x="427" y="0" on="1"/>
      </contour>
      <contour>
        <pt x="198" y="326" on="1"/>
        <pt x="352" y="326" on="1"/>
        <pt x="275" y="535" on="1"/>
      </contour>
      <contour>
        <pt x="410" y="767" on="1"/>
        <pt x="398" y="722" on="0"/>
        <pt x="375" y="694" on="0"/>
        <pt x="354" y="694" on="1"/>
        <pt x="342" y="694" on="0"/>
        <pt x="312" y="706" on="0"/>
        <pt x="280" y="721" on="0"/>
        <pt x="249" y="734" on="0"/>
        <pt x="236" y="734" on="1"/>
        <pt x="221" y="734" on="0"/>
        <pt x="200" y="712" on="0"/>
        <pt x="187" y="694" on="1"/>
        <pt x="182" y="695" on="1"/>
        <pt x="196" y="737" on="0"/>
        <pt x="233" y="772" on="0"/>
        <pt x="253" y="772" on="1"/>
        <pt x="265" y="772" on="0"/>
        <pt x="293" y="760" on="0"/>
        <pt x="320" y="745" on="0"/>
        <pt x="348" y="733" on="0"/>
        <pt x="360" y="733" on="1"/>
        <pt x="376" y="733" on="0"/>
        <pt x="398" y="754" on="0"/>
        <pt x="406" y="768" on="1"/>
      </contour>
    </TTGlyph>
    <TTGlyph name="B" xMin="43" yMin="0" xMax="449" yMax="660">
      <contour>
        <pt x="45" y="10" on="1"/>
        <pt x="50" y="10" on="1"/>
        <pt x="57" y="10" on="0"/>
        <pt x="69" y="22" on="0"/>
        <pt x="78" y="38" on="0"/>
        <pt x="82" y="57" on="0"/>
        <pt x="82" y="65" on="1"/>
        <pt x="82" y="597" on="1"/>
        <pt x="82" y="604" on="0"/>
        <pt x="78" y="622" on="0"/>
        <pt x="69" y="639" on="0"/>
        <pt x="56" y="650" on="0"/>
        <pt x="48" y="650" on="1"/>
        <pt x="43" y="650" on="1"/>
        <pt x="43" y="660" on="1"/>
        <pt x="207" y="660" on="1"/>
        <pt x="300" y="660" on="0"/>
        <pt x="405" y="578" on="0"/>
        <pt x="405" y="510" on="1"/>
        <pt x="405" y="481" on="0"/>
        <pt x="385" y="435" on="0"/>
        <pt x="354" y="399" on="0"/>
        <pt x="318" y="374" on="0"/>
        <pt x="302" y="366" on="1"/>
        <pt x="344" y="358" on="0"/>
        <pt x="400" y="320" on="0"/>
        <pt x="435" y="271" on="0"/>
        <pt x="449" y="215" on="0"/>
        <pt x="449" y="188" on="1"/>
        <pt x="449" y="136" on="0"/>
        <pt x="411" y="65" on="0"/>
        <pt x="348" y="20" on="0"/>
        <pt x="267" y="0" on="0"/>
        <pt x="224" y="0" on="1"/>
        <pt x="45" y="0" on="1"/>
      </contour>
      <contour>
        <pt x="381" y="182" on="1"/>
        <pt x="373" y="259" on="0"/>
        <pt x="285" y="343" on="0"/>
        <pt x="205" y="343" on="1"/>
        <pt x="149" y="343" on="1"/>
        <pt x="149" y="33" on="1"/>
        <pt x="207" y="33" on="1"/>
        <pt x="288" y="33" on="0"/>
        <pt x="381" y="106" on="0"/>
        <pt x="381" y="171" on="1"/>
      </contour>
      <contour>
        <pt x="340" y="501" on="1"/>
        <pt x="337" y="559" on="0"/>
        <pt x="262" y="627" on="0"/>
        <pt x="199" y="627" on="1"/>
        <pt x="149" y="627" on="1"/>
        <pt x="149" y="375" on="1"/>
        <pt x="201" y="375" on="1"/>
        <pt x="243" y="375" on="0"/>
        <pt x="296" y="397" on="0"/>
        <pt x="328" y="432" on="0"/>
        <pt x="340" y="474" on="0"/>
        <pt x="340" y="494" on="1"/>
      </contour>
    </TTGlyph>
    <TTGlyph name="C" xMin="39" yMin="-10" xMax="582" yMax="670">
      <contour>
        <pt x="397" y="634" on="1"/>
        <pt x="323" y="634" on="0"/>
        <pt x="214" y="581" on="0"/>
        <pt x="142" y="496" on="0"/>
        <pt x="107" y="390" on="0"/>
        <pt x="107" y="338" on="1"/>
        <pt x="107" y="279" on="0"/>
        <pt x="153" y="166" on="0"/>
        <pt x="234" y="79" on="0"/>
        <pt x="342" y="26" on="0"/>
        <pt x="405" y="26" on="1"/>
        <pt x="423" y="26" on="0"/>
        <pt x="472" y="34" on="0"/>
        <pt x="520" y="57" on="0"/>
        <pt x="561" y="99" on="0"/>
        <pt x="572" y="133" on="1"/>
        <pt x="582" y="133" on="1"/>
        <pt x="582" y="22" on="1"/>
        <pt x="567" y="22" on="0"/>
        <pt x="534" y="14" on="0"/>
        <pt x="514" y="9" on="1"/>
        <pt x="488" y="2" on="0"/>
        <pt x="425" y="-10" on="0"/>
        <pt x="390" y="-10" on="1"/>
        <pt x="303" y="-10" on="0"/>
        <pt x="171" y="50" on="0"/>
        <pt x="83" y="146" on="0"/>
        <pt x="39" y="267" on="0"/>
        <pt x="39" y="329" on="1"/>
        <pt x="39" y="391" on="0"/>
        <pt x="83" y="513" on="0"/>
        <pt x="173" y="610" on="0"/>
        <pt x="309" y="670" on="0"/>
        <pt x="401" y="670" on="1"/>
        <pt x="434" y="670" on="0"/>
        <pt x="487" y="658" on="0"/>
        <pt x="508" y="652" on="1"/>
        <pt x="523" y="647" on="0"/>
        <pt x="548" y="642" on="0"/>
        <pt x="560" y="642" on="1"/>
        <pt x="560" y="531" on="1"/>
        <pt x="550" y="531" on="1"/>
        <pt x="544" y="562" on="0"/>
        <pt x="512" y="603" on="0"/>
        <pt x="469" y="625" on="0"/>
        <pt x="420" y="634" on="0"/>
      </contour>
    </TTGlyph>
    <TTGlyph name="Cacute" xMin="39" yMin="-10" xMax="582" yMax="795">
      <contour>
        <pt x="397" y="634" on="1"/>
        <pt x="323" y="634" on="0"/>
        <pt x="214" y="581" on="0"/>
        <pt x="142" y="496" on="0"/>
        <pt x="107" y="390" on="0"/>
        <pt x="107" y="338" on="1"/>
        <pt x="107" y="279" on="0"/>
        <pt x="153" y="166" on="0"/>
        <pt x="234" y="79" on="0"/>
        <pt x="342" y="26" on="0"/>
        <pt x="405" y="26" on="1"/>
        <pt x="423" y="26" on="0"/>
        <pt x="472" y="34" on="0"/>
        <pt x="520" y="57" on="0"/>
        <pt x="561" y="99" on="0"/>
        <pt x="572" y="133" on="1"/>
        <pt x="582" y="133" on="1"/>
        <pt x="582" y="22" on="1"/>
        <pt x="567" y="22" on="0"/>
        <pt x="534" y="14" on="0"/>
        <pt x="514" y="9" on="1"/>
        <pt x="488" y="2" on="0"/>
        <pt x="425" y="-10" on="0"/>
        <pt x="390" y="-10" on="1"/>
        <pt x="303" y="-10" on="0"/>
        <pt x="171" y="50" on="0"/>
        <pt x="83" y="146" on="0"/>
        <pt x="39" y="267" on="0"/>
        <pt x="39" y="329" on="1"/>
        <pt x="39" y="391" on="0"/>
        <pt x="83" y="513" on="0"/>
        <pt x="173" y="610" on="0"/>
        <pt x="309" y="670" on="0"/>
        <pt x="401" y="670" on="1"/>
        <pt x="434" y="670" on="0"/>
        <pt x="487" y="658" on="0"/>
        <pt x="508" y="652" on="1"/>
        <pt x="523" y="647" on="0"/>
        <pt x="548" y="642" on="0"/>
        <pt x="560" y="642" on="1"/>
        <pt x="560" y="531" on="1"/>
        <pt x="550" y="531" on="1"/>
        <pt x="544" y="562" on="0"/>
        <pt x="512" y="603" on="0"/>
        <pt x="469" y="625" on="0"/>
        <pt x="420" y="634" on="0"/>
      </contour>
      <contour>
        <pt x="227" y="688" on="1"/>
        <pt x="369" y="795" on="1"/>
        <pt x="395" y="750" on="1"/>
        <pt x="230" y="682" on="1"/>
      </contour>
    </TTGlyph>
    <TTGlyph name="Ccaron" xMin="36" yMin="-10" xMax="579" yMax="790">
      <contour>
        <pt x="394" y="634" on="1"/>
        <pt x="320" y="634" on="0"/>
        <pt x="211" y="581" on="0"/>
        <pt x="139" y="496" on="0"/>
        <pt x="104" y="390" on="0"/>
        <pt x="104" y="338" on="1"/>
        <pt x="104" y="279" on="0"/>
        <pt x="150" y="166" on="0"/>
        <pt x="231" y="79" on="0"/>
        <pt x="339" y="26" on="0"/>
        <pt x="402" y="26" on="1"/>
        <pt x="420" y="26" on="0"/>
        <pt x="469" y="34" on="0"/>
        <pt x="517" y="57" on="0"/>
        <pt x="558" y="99" on="0"/>
        <pt x="569" y="133" on="1"/>
        <pt x="579" y="133" on="1"/>
        <pt x="579" y="22" on="1"/>
        <pt x="564" y="22" on="0"/>
        <pt x="531" y="14" on="0"/>
        <pt x="511" y="9" on="1"/>
        <pt x="485" y="2" on="0"/>
        <pt x="422" y="-10" on="0"/>
        <pt x="387" y="-10" on="1"/>
        <pt x="300" y="-10" on="0"/>
        <pt x="168" y="50" on="0"/>
        <pt x="80" y="146" on="0"/>
        <pt x="36" y="267" on="0"/>
        <pt x="36" y="329" on="1"/>
        <pt x="36" y="391" on="0"/>
        <pt x="80" y="513" on="0"/>
        <pt x="170" y="610" on="0"/>
        <pt x="306" y="670" on="0"/>
        <pt x="398" y="670" on="1"/>
        <pt x="431" y="670" on="0"/>
        <pt x="484" y="658" on="0"/>
        <pt x="505" y="652" on="1"/>
        <pt x="520" y="647" on="0"/>
        <pt x="545" y="642" on="0"/>
        <pt x="557" y="642" on="1"/>
        <pt x="557" y="531" on="1"/>
        <pt x="547" y="531" on="1"/>
        <pt x="541" y="562" on="0"/>
        <pt x="509" y="603" on="0"/>
        <pt x="466" y="625" on="0"/>
        <pt x="417" y="634" on="0"/>
      </contour>
      <contour>
        <pt x="257" y="790" on="1"/>
        <pt x="378" y="733" on="1"/>
        <pt x="497" y="790" on="1"/>
        <pt x="499" y="786" on="1"/>
        <pt x="378" y="682" on="1"/>
        <pt x="254" y="786" on="1"/>
      </contour>
    </TTGlyph>
    <TTGlyph name="Ccedilla" xMin="36" yMin="-179" xMax="579" yMax="670">
      <contour>
        <pt x="395" y="-10" on="1"/>
        <pt x="382" y="-29" on="0"/>
        <pt x="371" y="-50" on="1"/>
        <pt x="416" y="-55" on="0"/>
        <pt x="457" y="-88" on="0"/>
        <pt x="457" y="-109" on="1"/>
        <pt x="457" y="-135" on="0"/>
        <pt x="398" y="-179" on="0"/>
        <pt x="344" y="-179" on="1"/>
        <pt x="337" y="-179" on="0"/>
        <pt x="325" y="-178" on="0"/>
        <pt x="319" y="-177" on="1"/>
        <pt x="316" y="-177" on="0"/>
        <pt x="308" y="-176" on="0"/>
        <pt x="305" y="-176" on="1"/>
        <pt x="305" y="-168" on="1"/>
        <pt x="316" y="-168" on="1"/>
        <pt x="354" y="-168" on="0"/>
        <pt x="408" y="-135" on="0"/>
        <pt x="408" y="-114" on="1"/>
        <pt x="408" y="-97" on="0"/>
        <pt x="368" y="-66" on="0"/>
        <pt x="331" y="-61" on="1"/>
        <pt x="363" y="-9" on="1"/>
        <pt x="281" y="-5" on="0"/>
        <pt x="159" y="56" on="0"/>
        <pt x="77" y="151" on="0"/>
        <pt x="36" y="269" on="0"/>
        <pt x="36" y="329" on="1"/>
        <pt x="36" y="391" on="0"/>
        <pt x="80" y="513" on="0"/>
        <pt x="170" y="610" on="0"/>
        <pt x="306" y="670" on="0"/>
        <pt x="398" y="670" on="1"/>
        <pt x="431" y="670" on="0"/>
        <pt x="484" y="658" on="0"/>
        <pt x="505" y="652" on="1"/>
        <pt x="520" y="647" on="0"/>
        <pt x="545" y="642" on="0"/>
        <pt x="557" y="642" on="1"/>
        <pt x="557" y="531" on="1"/>
        <pt x="547" y="531" on="1"/>
        <pt x="541" y="562" on="0"/>
        <pt x="509" y="603" on="0"/>
        <pt x="466" y="625" on="0"/>
        <pt x="417" y="634" on="0"/>
        <pt x="394" y="634" on="1"/>
        <pt x="320" y="634" on="0"/>
        <pt x="211" y="581" on="0"/>
        <pt x="139" y="496" on="0"/>
        <pt x="104" y="390" on="0"/>
        <pt x="104" y="338" on="1"/>
        <pt x="104" y="279" on="0"/>
        <pt x="150" y="166" on="0"/>
        <pt x="231" y="79" on="0"/>
        <pt x="339" y="29" on="0"/>
        <pt x="402" y="29" on="1"/>
        <pt x="420" y="29" on="0"/>
        <pt x="468" y="37" on="0"/>
        <pt x="515" y="60" on="0"/>
        <pt x="557" y="99" on="0"/>
        <pt x="569" y="133" on="1"/>
        <pt x="579" y="133" on="1"/>
        <pt x="579" y="22" on="1"/>
        <pt x="564" y="22" on="0"/>
        <pt x="530" y="14" on="0"/>
        <pt x="510" y="9" on="1"/>
        <pt x="486" y="3" on="0"/>
        <pt x="426" y="-8" on="0"/>
      </contour>
    </TTGlyph>
    <TTGlyph name="Ccircumflex" xMin="39" yMin="-10" xMax="582" yMax="793">
      <contour>
        <pt x="397" y="634" on="1"/>
        <pt x="323" y="634" on="0"/>
        <pt x="214" y="581" on="0"/>
        <pt x="142" y="496" on="0"/>
        <pt x="107" y="390" on="0"/>
        <pt x="107" y="338" on="1"/>
        <pt x="107" y="279" on="0"/>
        <pt x="153" y="166" on="0"/>
        <pt x="234" y="79" on="0"/>
        <pt x="342" y="26" on="0"/>
        <pt x="405" y="26" on="1"/>
        <pt x="423" y="26" on="0"/>
        <pt x="472" y="34" on="0"/>
        <pt x="520" y="57" on="0"/>
        <pt x="561" y="99" on="0"/>
        <pt x="572" y="133" on="1"/>
        <pt x="582" y="133" on="1"/>
        <pt x="582" y="22" on="1"/>
        <pt x="567" y="22" on="0"/>
        <pt x="534" y="14" on="0"/>
        <pt x="514" y="9" on="1"/>
        <pt x="488" y="2" on="0"/>
        <pt x="425" y="-10" on="0"/>
        <pt x="390" y="-10" on="1"/>
        <pt x="303" y="-10" on="0"/>
        <pt x="171" y="50" on="0"/>
        <pt x="83" y="146" on="0"/>
        <pt x="39" y="267" on="0"/>
        <pt x="39" y="329" on="1"/>
        <pt x="39" y="391" on="0"/>
        <pt x="83" y="513" on="0"/>
        <pt x="173" y="610" on="0"/>
        <pt x="309" y="670" on="0"/>
        <pt x="401" y="670" on="1"/>
        <pt x="434" y="670" on="0"/>
        <pt x="487" y="658" on="0"/>
        <pt x="508" y="652" on="1"/>
        <pt x="523" y="647" on="0"/>
        <pt x="548" y="642" on="0"/>
        <pt x="560" y="642" on="1"/>
        <pt x="560" y="531" on="1"/>
        <pt x="550" y="531" on="1"/>
        <pt x="544" y="562" on="0"/>
        <pt x="512" y="603" on="0"/>
        <pt x="469" y="625" on="0"/>
        <pt x="420" y="634" on="0"/>
      </contour>
      <contour>
        <pt x="500" y="685" on="1"/>
        <pt x="379" y="744" on="1"/>
        <pt x="259" y="685" on="1"/>
        <pt x="257" y="690" on="1"/>
        <pt x="379" y="793" on="1"/>
        <pt x="501" y="690" on="1"/>
      </contour>
    </TTGlyph>
    <TTGlyph name="Cdotaccent" xMin="39" yMin="-10" xMax="582" yMax="779">
      <contour>
        <pt x="397" y="634" on="1"/>
        <pt x="323" y="634" on="0"/>
        <pt x="214" y="581" on="0"/>
        <pt x="142" y="496" on="0"/>
        <pt x="107" y="390" on="0"/>
        <pt x="107" y="338" on="1"/>
        <pt x="107" y="279" on="0"/>
        <pt x="153" y="166" on="0"/>
        <pt x="234" y="79" on="0"/>
        <pt x="342" y="26" on="0"/>
        <pt x="405" y="26" on="1"/>
        <pt x="423" y="26" on="0"/>
        <pt x="472" y="34" on="0"/>
        <pt x="520" y="57" on="0"/>
        <pt x="561" y="99" on="0"/>
        <pt x="572" y="133" on="1"/>
        <pt x="582" y="133" on="1"/>
        <pt x="582" y="22" on="1"/>
        <pt x="567" y="22" on="0"/>
        <pt x="534" y="14" on="0"/>
        <pt x="514" y="9" on="1"/>
        <pt x="488" y="2" on="0"/>
        <pt x="425" y="-10" on="0"/>
        <pt x="390" y="-10" on="1"/>
        <pt x="303" y="-10" on="0"/>
        <pt x="171" y="50" on="0"/>
        <pt x="83" y="146" on="0"/>
        <pt x="39" y="267" on="0"/>
        <pt x="39" y="329" on="1"/>
        <pt x="39" y="391" on="0"/>
        <pt x="83" y="513" on="0"/>
        <pt x="173" y="610" on="0"/>
        <pt x="309" y="670" on="0"/>
        <pt x="401" y="670" on="1"/>
        <pt x="434" y="670" on="0"/>
        <pt x="487" y="658" on="0"/>
        <pt x="508" y="652" on="1"/>
        <pt x="523" y="647" on="0"/>
        <pt x="548" y="642" on="0"/>
        <pt x="560" y="642" on="1"/>
        <pt x="560" y="531" on="1"/>
        <pt x="550" y="531" on="1"/>
        <pt x="544" y="562" on="0"/>
        <pt x="512" y="603" on="0"/>
        <pt x="469" y="625" on="0"/>
        <pt x="420" y="634" on="0"/>
      </contour>
      <contour>
        <pt x="343" y="741" on="1"/>
        <pt x="343" y="758" on="0"/>
        <pt x="364" y="779" on="0"/>
        <pt x="381" y="779" on="1"/>
        <pt x="398" y="779" on="0"/>
        <pt x="420" y="758" on="0"/>
        <pt x="420" y="741" on="1"/>
        <pt x="420" y="724" on="0"/>
        <pt x="398" y="703" on="0"/>
        <pt x="381" y="703" on="1"/>
        <pt x="364" y="703" on="0"/>
        <pt x="343" y="724" on="0"/>
      </contour>
    </TTGlyph>
    <TTGlyph name="D" xMin="44" yMin="0" xMax="575" yMax="660">
      <contour>
        <pt x="44" y="10" on="1"/>
        <pt x="49" y="10" on="1"/>
        <pt x="56" y="10" on="0"/>
        <pt x="68" y="22" on="0"/>
        <pt x="77" y="38" on="0"/>
        <pt x="81" y="57" on="0"/>
        <pt x="81" y="65" on="1"/>
        <pt x="81" y="598" on="1"/>
        <pt x="81" y="605" on="0"/>
        <pt x="77" y="623" on="0"/>
        <pt x="69" y="639" on="0"/>
        <pt x="57" y="650" on="0"/>
        <pt x="49" y="650" on="1"/>
        <pt x="44" y="650" on="1"/>
        <pt x="44" y="660" on="1"/>
        <pt x="237" y="660" on="1"/>
        <pt x="316" y="660" on="0"/>
        <pt x="442" y="605" on="0"/>
        <pt x="529" y="512" on="0"/>
        <pt x="575" y="392" on="0"/>
        <pt x="575" y="327" on="1"/>
        <pt x="575" y="266" on="0"/>
        <pt x="531" y="149" on="0"/>
        <pt x="443" y="57" on="0"/>
        <pt x="311" y="0" on="0"/>
        <pt x="224" y="0" on="1"/>
        <pt x="44" y="0" on="1"/>
      </contour>
      <contour>
        <pt x="507" y="312" on="1"/>
        <pt x="507" y="376" on="0"/>
        <pt x="461" y="490" on="0"/>
        <pt x="378" y="575" on="0"/>
        <pt x="265" y="625" on="0"/>
        <pt x="199" y="625" on="1"/>
        <pt x="148" y="625" on="1"/>
        <pt x="148" y="35" on="1"/>
        <pt x="201" y="35" on="1"/>
        <pt x="255" y="35" on="0"/>
        <pt x="364" y="68" on="0"/>
        <pt x="452" y="137" on="0"/>
        <pt x="507" y="241" on="0"/>
      </contour>
    </TTGlyph>
    <TTGlyph name="Dcaron" xMin="44" yMin="0" xMax="575" yMax="790">
      <contour>
        <pt x="44" y="10" on="1"/>
        <pt x="49" y="10" on="1"/>
        <pt x="56" y="10" on="0"/>
        <pt x="68" y="22" on="0"/>
        <pt x="77" y="38" on="0"/>
        <pt x="81" y="57" on="0"/>
        <pt x="81" y="65" on="1"/>
        <pt x="81" y="598" on="1"/>
        <pt x="81" y="605" on="0"/>
        <pt x="77" y="623" on="0"/>
        <pt x="69" y="639" on="0"/>
        <pt x="57" y="650" on="0"/>
        <pt x="49" y="650" on="1"/>
        <pt x="44" y="650" on="1"/>
        <pt x="44" y="660" on="1"/>
        <pt x="237" y="660" on="1"/>
        <pt x="316" y="660" on="0"/>
        <pt x="442" y="605" on="0"/>
        <pt x="529" y="512" on="0"/>
        <pt x="575" y="392" on="0"/>
        <pt x="575" y="327" on="1"/>
        <pt x="575" y="266" on="0"/>
        <pt x="531" y="149" on="0"/>
        <pt x="443" y="57" on="0"/>
        <pt x="311" y="0" on="0"/>
        <pt x="224" y="0" on="1"/>
        <pt x="44" y="0" on="1"/>
      </contour>
      <contour>
        <pt x="507" y="312" on="1"/>
        <pt x="507" y="376" on="0"/>
        <pt x="461" y="490" on="0"/>
        <pt x="378" y="575" on="0"/>
        <pt x="265" y="625" on="0"/>
        <pt x="199" y="625" on="1"/>
        <pt x="148" y="625" on="1"/>
        <pt x="148" y="35" on="1"/>
        <pt x="201" y="35" on="1"/>
        <pt x="255" y="35" on="0"/>
        <pt x="364" y="68" on="0"/>
        <pt x="452" y="137" on="0"/>
        <pt x="507" y="241" on="0"/>
      </contour>
      <contour>
        <pt x="72" y="790" on="1"/>
        <pt x="193" y="733" on="1"/>
        <pt x="312" y="790" on="1"/>
        <pt x="314" y="786" on="1"/>
        <pt x="193" y="682" on="1"/>
        <pt x="69" y="786" on="1"/>
      </contour>
    </TTGlyph>
    <TTGlyph name="Dcroat" xMin="31" yMin="0" xMax="575" yMax="660">
      <contour>
        <pt x="45" y="660" on="1"/>
        <pt x="237" y="660" on="1"/>
        <pt x="316" y="660" on="0"/>
        <pt x="442" y="605" on="0"/>
        <pt x="529" y="512" on="0"/>
        <pt x="575" y="392" on="0"/>
        <pt x="575" y="327" on="1"/>
        <pt x="575" y="266" on="0"/>
        <pt x="531" y="149" on="0"/>
        <pt x="443" y="57" on="0"/>
        <pt x="311" y="0" on="0"/>
        <pt x="224" y="0" on="1"/>
        <pt x="45" y="0" on="1"/>
        <pt x="45" y="10" on="1"/>
        <pt x="50" y="10" on="1"/>
        <pt x="57" y="10" on="0"/>
        <pt x="69" y="22" on="0"/>
        <pt x="78" y="38" on="0"/>
        <pt x="82" y="57" on="0"/>
        <pt x="82" y="65" on="1"/>
        <pt x="82" y="311" on="1"/>
        <pt x="31" y="311" on="1"/>
        <pt x="31" y="351" on="1"/>
        <pt x="82" y="351" on="1"/>
        <pt x="82" y="598" on="1"/>
        <pt x="82" y="605" on="0"/>
        <pt x="78" y="623" on="0"/>
        <pt x="69" y="639" on="0"/>
        <pt x="57" y="650" on="0"/>
        <pt x="50" y="650" on="1"/>
        <pt x="45" y="650" on="1"/>
      </contour>
      <contour>
        <pt x="507" y="312" on="1"/>
        <pt x="507" y="376" on="0"/>
        <pt x="461" y="490" on="0"/>
        <pt x="378" y="575" on="0"/>
        <pt x="265" y="625" on="0"/>
        <pt x="199" y="625" on="1"/>
        <pt x="148" y="625" on="1"/>
        <pt x="148" y="351" on="1"/>
        <pt x="323" y="351" on="1"/>
        <pt x="323" y="311" on="1"/>
        <pt x="148" y="311" on="1"/>
        <pt x="148" y="35" on="1"/>
        <pt x="201" y="35" on="1"/>
        <pt x="255" y="35" on="0"/>
        <pt x="364" y="68" on="0"/>
        <pt x="452" y="137" on="0"/>
        <pt x="507" y="241" on="0"/>
      </contour>
    </TTGlyph>
    <TTGlyph name="Delta" xMin="13" yMin="0" xMax="669" yMax="686">
      <contour>
        <pt x="341" y="686" on="1"/>
        <pt x="669" y="0" on="1"/>
        <pt x="13" y="0" on="1"/>
      </contour>
      <contour>
        <pt x="329" y="567" on="1"/>
        <pt x="83" y="42" on="1"/>
        <pt x="571" y="42" on="1"/>
      </contour>
    </TTGlyph>
    <TTGlyph name="E" xMin="45" yMin="0" xMax="455" yMax="660">
      <contour>
        <pt x="45" y="10" on="1"/>
        <pt x="50" y="10" on="1"/>
        <pt x="58" y="10" on="0"/>
        <pt x="70" y="21" on="0"/>
        <pt x="79" y="37" on="0"/>
        <pt x="84" y="55" on="0"/>
        <pt x="84" y="63" on="1"/>
        <pt x="84" y="598" on="1"/>
        <pt x="84" y="605" on="0"/>
        <pt x="79" y="623" on="0"/>
        <pt x="70" y="639" on="0"/>
        <pt x="58" y="650" on="0"/>
        <pt x="50" y="650" on="1"/>
        <pt x="45" y="650" on="1"/>
        <pt x="45" y="660" on="1"/>
        <pt x="430" y="660" on="1"/>
        <pt x="430" y="567" on="1"/>
        <pt x="420" y="567" on="1"/>
        <pt x="418" y="590" on="0"/>
        <pt x="386" y="625" on="0"/>
        <pt x="352" y="625" on="1"/>
        <pt x="151" y="625" on="1"/>
        <pt x="151" y="372" on="1"/>
        <pt x="317" y="372" on="1"/>
        <pt x="340" y="372" on="0"/>
        <pt x="371" y="400" on="0"/>
        <pt x="371" y="419" on="1"/>
        <pt x="381" y="419" on="1"/>
        <pt x="381" y="294" on="1"/>
        <pt x="371" y="294" on="1"/>
        <pt x="371" y="312" on="0"/>
        <pt x="341" y="338" on="0"/>
        <pt x="317" y="338" on="1"/>
        <pt x="151" y="338" on="1"/>
        <pt x="151" y="35" on="1"/>
        <pt x="370" y="35" on="1"/>
        <pt x="389" y="35" on="0"/>
        <pt x="417" y="53" on="0"/>
        <pt x="436" y="78" on="0"/>
        <pt x="445" y="107" on="0"/>
        <pt x="445" y="117" on="1"/>
        <pt x="455" y="117" on="1"/>
        <pt x="455" y="0" on="1"/>
        <pt x="45" y="0" on="1"/>
      </contour>
    </TTGlyph>
    <TTGlyph name="Eacute" xMin="45" yMin="0" xMax="455" yMax="795">
      <contour>
        <pt x="45" y="10" on="1"/>
        <pt x="50" y="10" on="1"/>
        <pt x="58" y="10" on="0"/>
        <pt x="70" y="21" on="0"/>
        <pt x="79" y="37" on="0"/>
        <pt x="84" y="55" on="0"/>
        <pt x="84" y="63" on="1"/>
        <pt x="84" y="598" on="1"/>
        <pt x="84" y="605" on="0"/>
        <pt x="79" y="623" on="0"/>
        <pt x="70" y="639" on="0"/>
        <pt x="58" y="650" on="0"/>
        <pt x="50" y="650" on="1"/>
        <pt x="45" y="650" on="1"/>
        <pt x="45" y="660" on="1"/>
        <pt x="430" y="660" on="1"/>
        <pt x="430" y="567" on="1"/>
        <pt x="420" y="567" on="1"/>
        <pt x="418" y="590" on="0"/>
        <pt x="386" y="625" on="0"/>
        <pt x="352" y="625" on="1"/>
        <pt x="151" y="625" on="1"/>
        <pt x="151" y="372" on="1"/>
        <pt x="317" y="372" on="1"/>
        <pt x="340" y="372" on="0"/>
        <pt x="371" y="400" on="0"/>
        <pt x="371" y="419" on="1"/>
        <pt x="381" y="419" on="1"/>
        <pt x="381" y="294" on="1"/>
        <pt x="371" y="294" on="1"/>
        <pt x="371" y="312" on="0"/>
        <pt x="341" y="338" on="0"/>
        <pt x="317" y="338" on="1"/>
        <pt x="151" y="338" on="1"/>
        <pt x="151" y="35" on="1"/>
        <pt x="370" y="35" on="1"/>
        <pt x="389" y="35" on="0"/>
        <pt x="417" y="53" on="0"/>
        <pt x="436" y="78" on="0"/>
        <pt x="445" y="107" on="0"/>
        <pt x="445" y="117" on="1"/>
        <pt x="455" y="117" on="1"/>
        <pt x="455" y="0" on="1"/>
        <pt x="45" y="0" on="1"/>
      </contour>
      <contour>
        <pt x="158" y="688" on="1"/>
        <pt x="300" y="795" on="1"/>
        <pt x="326" y="750" on="1"/>
        <pt x="161" y="682" on="1"/>
      </contour>
    </TTGlyph>
    <TTGlyph name="Ebreve" xMin="45" yMin="0" xMax="455" yMax="795">
      <contour>
        <pt x="45" y="10" on="1"/>
        <pt x="50" y="10" on="1"/>
        <pt x="58" y="10" on="0"/>
        <pt x="70" y="21" on="0"/>
        <pt x="79" y="37" on="0"/>
        <pt x="84" y="55" on="0"/>
        <pt x="84" y="63" on="1"/>
        <pt x="84" y="598" on="1"/>
        <pt x="84" y="605" on="0"/>
        <pt x="79" y="623" on="0"/>
        <pt x="70" y="639" on="0"/>
        <pt x="58" y="650" on="0"/>
        <pt x="50" y="650" on="1"/>
        <pt x="45" y="650" on="1"/>
        <pt x="45" y="660" on="1"/>
        <pt x="430" y="660" on="1"/>
        <pt x="430" y="567" on="1"/>
        <pt x="420" y="567" on="1"/>
        <pt x="418" y="590" on="0"/>
        <pt x="386" y="625" on="0"/>
        <pt x="352" y="625" on="1"/>
        <pt x="151" y="625" on="1"/>
        <pt x="151" y="372" on="1"/>
        <pt x="317" y="372" on="1"/>
        <pt x="340" y="372" on="0"/>
        <pt x="371" y="400" on="0"/>
        <pt x="371" y="419" on="1"/>
        <pt x="381" y="419" on="1"/>
        <pt x="381" y="294" on="1"/>
        <pt x="371" y="294" on="1"/>
        <pt x="371" y="312" on="0"/>
        <pt x="341" y="338" on="0"/>
        <pt x="317" y="338" on="1"/>
        <pt x="151" y="338" on="1"/>
        <pt x="151" y="35" on="1"/>
        <pt x="370" y="35" on="1"/>
        <pt x="389" y="35" on="0"/>
        <pt x="417" y="53" on="0"/>
        <pt x="436" y="78" on="0"/>
        <pt x="445" y="107" on="0"/>
        <pt x="445" y="117" on="1"/>
        <pt x="455" y="117" on="1"/>
        <pt x="455" y="0" on="1"/>
        <pt x="45" y="0" on="1"/>
      </contour>
      <contour>
        <pt x="354" y="795" on="1"/>
        <pt x="354" y="779" on="0"/>
        <pt x="338" y="742" on="0"/>
        <pt x="309" y="711" on="0"/>
        <pt x="268" y="691" on="0"/>
        <pt x="243" y="691" on="1"/>
        <pt x="219" y="691" on="0"/>
        <pt x="178" y="710" on="0"/>
        <pt x="148" y="740" on="0"/>
        <pt x="130" y="777" on="0"/>
        <pt x="130" y="795" on="1"/>
        <pt x="136" y="795" on="1"/>
        <pt x="137" y="789" on="0"/>
        <pt x="148" y="768" on="0"/>
        <pt x="172" y="746" on="0"/>
        <pt x="212" y="730" on="0"/>
        <pt x="242" y="730" on="1"/>
        <pt x="273" y="730" on="0"/>
        <pt x="312" y="746" on="0"/>
        <pt x="336" y="768" on="0"/>
        <pt x="346" y="789" on="0"/>
        <pt x="348" y="795" on="1"/>
      </contour>
    </TTGlyph>
    <TTGlyph name="Ecaron" xMin="45" yMin="0" xMax="455" yMax="790">
      <contour>
        <pt x="45" y="10" on="1"/>
        <pt x="50" y="10" on="1"/>
        <pt x="58" y="10" on="0"/>
        <pt x="70" y="21" on="0"/>
        <pt x="79" y="37" on="0"/>
        <pt x="84" y="55" on="0"/>
        <pt x="84" y="63" on="1"/>
        <pt x="84" y="598" on="1"/>
        <pt x="84" y="605" on="0"/>
        <pt x="79" y="623" on="0"/>
        <pt x="70" y="639" on="0"/>
        <pt x="58" y="650" on="0"/>
        <pt x="50" y="650" on="1"/>
        <pt x="45" y="650" on="1"/>
        <pt x="45" y="660" on="1"/>
        <pt x="430" y="660" on="1"/>
        <pt x="430" y="567" on="1"/>
        <pt x="420" y="567" on="1"/>
        <pt x="418" y="590" on="0"/>
        <pt x="386" y="625" on="0"/>
        <pt x="352" y="625" on="1"/>
        <pt x="151" y="625" on="1"/>
        <pt x="151" y="372" on="1"/>
        <pt x="317" y="372" on="1"/>
        <pt x="340" y="372" on="0"/>
        <pt x="371" y="400" on="0"/>
        <pt x="371" y="419" on="1"/>
        <pt x="381" y="419" on="1"/>
        <pt x="381" y="294" on="1"/>
        <pt x="371" y="294" on="1"/>
        <pt x="371" y="312" on="0"/>
        <pt x="341" y="338" on="0"/>
        <pt x="317" y="338" on="1"/>
        <pt x="151" y="338" on="1"/>
        <pt x="151" y="35" on="1"/>
        <pt x="370" y="35" on="1"/>
        <pt x="389" y="35" on="0"/>
        <pt x="417" y="53" on="0"/>
        <pt x="436" y="78" on="0"/>
        <pt x="445" y="107" on="0"/>
        <pt x="445" y="117" on="1"/>
        <pt x="455" y="117" on="1"/>
        <pt x="455" y="0" on="1"/>
        <pt x="45" y="0" on="1"/>
      </contour>
      <contour>
        <pt x="122" y="790" on="1"/>
        <pt x="243" y="733" on="1"/>
        <pt x="362" y="790" on="1"/>
        <pt x="364" y="786" on="1"/>
        <pt x="243" y="682" on="1"/>
        <pt x="119" y="786" on="1"/>
      </contour>
    </TTGlyph>
    <TTGlyph name="Ecircumflex" xMin="45" yMin="0" xMax="455" yMax="793">
      <contour>
        <pt x="45" y="10" on="1"/>
        <pt x="50" y="10" on="1"/>
        <pt x="58" y="10" on="0"/>
        <pt x="70" y="21" on="0"/>
        <pt x="79" y="37" on="0"/>
        <pt x="84" y="55" on="0"/>
        <pt x="84" y="63" on="1"/>
        <pt x="84" y="598" on="1"/>
        <pt x="84" y="605" on="0"/>
        <pt x="79" y="623" on="0"/>
        <pt x="70" y="639" on="0"/>
        <pt x="58" y="650" on="0"/>
        <pt x="50" y="650" on="1"/>
        <pt x="45" y="650" on="1"/>
        <pt x="45" y="660" on="1"/>
        <pt x="430" y="660" on="1"/>
        <pt x="430" y="567" on="1"/>
        <pt x="420" y="567" on="1"/>
        <pt x="418" y="590" on="0"/>
        <pt x="386" y="625" on="0"/>
        <pt x="352" y="625" on="1"/>
        <pt x="151" y="625" on="1"/>
        <pt x="151" y="372" on="1"/>
        <pt x="317" y="372" on="1"/>
        <pt x="340" y="372" on="0"/>
        <pt x="371" y="400" on="0"/>
        <pt x="371" y="419" on="1"/>
        <pt x="381" y="419" on="1"/>
        <pt x="381" y="294" on="1"/>
        <pt x="371" y="294" on="1"/>
        <pt x="371" y="312" on="0"/>
        <pt x="341" y="338" on="0"/>
        <pt x="317" y="338" on="1"/>
        <pt x="151" y="338" on="1"/>
        <pt x="151" y="35" on="1"/>
        <pt x="370" y="35" on="1"/>
        <pt x="389" y="35" on="0"/>
        <pt x="417" y="53" on="0"/>
        <pt x="436" y="78" on="0"/>
        <pt x="445" y="107" on="0"/>
        <pt x="445" y="117" on="1"/>
        <pt x="455" y="117" on="1"/>
        <pt x="455" y="0" on="1"/>
        <pt x="45" y="0" on="1"/>
      </contour>
      <contour>
        <pt x="363" y="685" on="1"/>
        <pt x="242" y="744" on="1"/>
        <pt x="122" y="685" on="1"/>
        <pt x="120" y="690" on="1"/>
        <pt x="242" y="793" on="1"/>
        <pt x="364" y="690" on="1"/>
      </contour>
    </TTGlyph>
    <TTGlyph name="Edieresis" xMin="45" yMin="0" xMax="455" yMax="750">
      <contour>
        <pt x="45" y="10" on="1"/>
        <pt x="50" y="10" on="1"/>
        <pt x="58" y="10" on="0"/>
        <pt x="70" y="21" on="0"/>
        <pt x="79" y="37" on="0"/>
        <pt x="84" y="55" on="0"/>
        <pt x="84" y="63" on="1"/>
        <pt x="84" y="598" on="1"/>
        <pt x="84" y="605" on="0"/>
        <pt x="79" y="623" on="0"/>
        <pt x="70" y="639" on="0"/>
        <pt x="58" y="650" on="0"/>
        <pt x="50" y="650" on="1"/>
        <pt x="45" y="650" on="1"/>
        <pt x="45" y="660" on="1"/>
        <pt x="430" y="660" on="1"/>
        <pt x="430" y="567" on="1"/>
        <pt x="420" y="567" on="1"/>
        <pt x="418" y="590" on="0"/>
        <pt x="386" y="625" on="0"/>
        <pt x="352" y="625" on="1"/>
        <pt x="151" y="625" on="1"/>
        <pt x="151" y="372" on="1"/>
        <pt x="317" y="372" on="1"/>
        <pt x="340" y="372" on="0"/>
        <pt x="371" y="400" on="0"/>
        <pt x="371" y="419" on="1"/>
        <pt x="381" y="419" on="1"/>
        <pt x="381" y="294" on="1"/>
        <pt x="371" y="294" on="1"/>
        <pt x="371" y="312" on="0"/>
        <pt x="341" y="338" on="0"/>
        <pt x="317" y="338" on="1"/>
        <pt x="151" y="338" on="1"/>
        <pt x="151" y="35" on="1"/>
        <pt x="370" y="35" on="1"/>
        <pt x="389" y="35" on="0"/>
        <pt x="417" y="53" on="0"/>
        <pt x="436" y="78" on="0"/>
        <pt x="445" y="107" on="0"/>
        <pt x="445" y="117" on="1"/>
        <pt x="455" y="117" on="1"/>
        <pt x="455" y="0" on="1"/>
        <pt x="45" y="0" on="1"/>
      </contour>
      <contour>
        <pt x="331" y="718" on="1"/>
        <pt x="331" y="704" on="0"/>
        <pt x="313" y="686" on="0"/>
        <pt x="301" y="686" on="1"/>
        <pt x="287" y="686" on="0"/>
        <pt x="268" y="704" on="0"/>
        <pt x="268" y="718" on="1"/>
        <pt x="268" y="732" on="0"/>
        <pt x="287" y="750" on="0"/>
        <pt x="301" y="750" on="1"/>
        <pt x="313" y="750" on="0"/>
        <pt x="331" y="732" on="0"/>
      </contour>
      <contour>
        <pt x="216" y="718" on="1"/>
        <pt x="216" y="704" on="0"/>
        <pt x="198" y="686" on="0"/>
        <pt x="184" y="686" on="1"/>
        <pt x="170" y="686" on="0"/>
        <pt x="152" y="704" on="0"/>
        <pt x="152" y="718" on="1"/>
        <pt x="152" y="732" on="0"/>
        <pt x="170" y="750" on="0"/>
        <pt x="184" y="750" on="1"/>
        <pt x="198" y="750" on="0"/>
        <pt x="216" y="732" on="0"/>
      </contour>
    </TTGlyph>
    <TTGlyph name="Edotaccent" xMin="45" yMin="0" xMax="455" yMax="779">
      <contour>
        <pt x="45" y="10" on="1"/>
        <pt x="50" y="10" on="1"/>
        <pt x="58" y="10" on="0"/>
        <pt x="70" y="21" on="0"/>
        <pt x="79" y="37" on="0"/>
        <pt x="84" y="55" on="0"/>
        <pt x="84" y="63" on="1"/>
        <pt x="84" y="598" on="1"/>
        <pt x="84" y="605" on="0"/>
        <pt x="79" y="623" on="0"/>
        <pt x="70" y="639" on="0"/>
        <pt x="58" y="650" on="0"/>
        <pt x="50" y="650" on="1"/>
        <pt x="45" y="650" on="1"/>
        <pt x="45" y="660" on="1"/>
        <pt x="430" y="660" on="1"/>
        <pt x="430" y="567" on="1"/>
        <pt x="420" y="567" on="1"/>
        <pt x="418" y="590" on="0"/>
        <pt x="386" y="625" on="0"/>
        <pt x="352" y="625" on="1"/>
        <pt x="151" y="625" on="1"/>
        <pt x="151" y="372" on="1"/>
        <pt x="317" y="372" on="1"/>
        <pt x="340" y="372" on="0"/>
        <pt x="371" y="400" on="0"/>
        <pt x="371" y="419" on="1"/>
        <pt x="381" y="419" on="1"/>
        <pt x="381" y="294" on="1"/>
        <pt x="371" y="294" on="1"/>
        <pt x="371" y="312" on="0"/>
        <pt x="341" y="338" on="0"/>
        <pt x="317" y="338" on="1"/>
        <pt x="151" y="338" on="1"/>
        <pt x="151" y="35" on="1"/>
        <pt x="370" y="35" on="1"/>
        <pt x="389" y="35" on="0"/>
        <pt x="417" y="53" on="0"/>
        <pt x="436" y="78" on="0"/>
        <pt x="445" y="107" on="0"/>
        <pt x="445" y="117" on="1"/>
        <pt x="455" y="117" on="1"/>
        <pt x="455" y="0" on="1"/>
        <pt x="45" y="0" on="1"/>
      </contour>
      <contour>
        <pt x="204" y="741" on="1"/>
        <pt x="204" y="758" on="0"/>
        <pt x="225" y="779" on="0"/>
        <pt x="242" y="779" on="1"/>
        <pt x="259" y="779" on="0"/>
        <pt x="281" y="758" on="0"/>
        <pt x="281" y="741" on="1"/>
        <pt x="281" y="724" on="0"/>
        <pt x="259" y="703" on="0"/>
        <pt x="242" y="703" on="1"/>
        <pt x="225" y="703" on="0"/>
        <pt x="204" y="724" on="0"/>
      </contour>
    </TTGlyph>
    <TTGlyph name="Egrave" xMin="45" yMin="0" xMax="455" yMax="795">
      <contour>
        <pt x="45" y="10" on="1"/>
        <pt x="50" y="10" on="1"/>
        <pt x="58" y="10" on="0"/>
        <pt x="70" y="21" on="0"/>
        <pt x="79" y="37" on="0"/>
        <pt x="84" y="55" on="0"/>
        <pt x="84" y="63" on="1"/>
        <pt x="84" y="598" on="1"/>
        <pt x="84" y="605" on="0"/>
        <pt x="79" y="623" on="0"/>
        <pt x="70" y="639" on="0"/>
        <pt x="58" y="650" on="0"/>
        <pt x="50" y="650" on="1"/>
        <pt x="45" y="650" on="1"/>
        <pt x="45" y="660" on="1"/>
        <pt x="430" y="660" on="1"/>
        <pt x="430" y="567" on="1"/>
        <pt x="420" y="567" on="1"/>
        <pt x="418" y="590" on="0"/>
        <pt x="386" y="625" on="0"/>
        <pt x="352" y="625" on="1"/>
        <pt x="151" y="625" on="1"/>
        <pt x="151" y="372" on="1"/>
        <pt x="317" y="372" on="1"/>
        <pt x="340" y="372" on="0"/>
        <pt x="371" y="400" on="0"/>
        <pt x="371" y="419" on="1"/>
        <pt x="381" y="419" on="1"/>
        <pt x="381" y="294" on="1"/>
        <pt x="371" y="294" on="1"/>
        <pt x="371" y="312" on="0"/>
        <pt x="341" y="338" on="0"/>
        <pt x="317" y="338" on="1"/>
        <pt x="151" y="338" on="1"/>
        <pt x="151" y="35" on="1"/>
        <pt x="370" y="35" on="1"/>
        <pt x="389" y="35" on="0"/>
        <pt x="417" y="53" on="0"/>
        <pt x="436" y="78" on="0"/>
        <pt x="445" y="107" on="0"/>
        <pt x="445" y="117" on="1"/>
        <pt x="455" y="117" on="1"/>
        <pt x="455" y="0" on="1"/>
        <pt x="45" y="0" on="1"/>
      </contour>
      <contour>
        <pt x="324" y="687" on="1"/>
        <pt x="158" y="750" on="1"/>
        <pt x="184" y="795" on="1"/>
        <pt x="326" y="693" on="1"/>
      </contour>
    </TTGlyph>
    <TTGlyph name="Emacron" xMin="45" yMin="0" xMax="455" yMax="753">
      <contour>
        <pt x="45" y="10" on="1"/>
        <pt x="50" y="10" on="1"/>
        <pt x="58" y="10" on="0"/>
        <pt x="70" y="21" on="0"/>
        <pt x="79" y="37" on="0"/>
        <pt x="84" y="55" on="0"/>
        <pt x="84" y="63" on="1"/>
        <pt x="84" y="598" on="1"/>
        <pt x="84" y="605" on="0"/>
        <pt x="79" y="623" on="0"/>
        <pt x="70" y="639" on="0"/>
        <pt x="58" y="650" on="0"/>
        <pt x="50" y="650" on="1"/>
        <pt x="45" y="650" on="1"/>
        <pt x="45" y="660" on="1"/>
        <pt x="430" y="660" on="1"/>
        <pt x="430" y="567" on="1"/>
        <pt x="420" y="567" on="1"/>
        <pt x="418" y="590" on="0"/>
        <pt x="386" y="625" on="0"/>
        <pt x="352" y="625" on="1"/>
        <pt x="151" y="625" on="1"/>
        <pt x="151" y="372" on="1"/>
        <pt x="317" y="372" on="1"/>
        <pt x="340" y="372" on="0"/>
        <pt x="371" y="400" on="0"/>
        <pt x="371" y="419" on="1"/>
        <pt x="381" y="419" on="1"/>
        <pt x="381" y="294" on="1"/>
        <pt x="371" y="294" on="1"/>
        <pt x="371" y="312" on="0"/>
        <pt x="341" y="338" on="0"/>
        <pt x="317" y="338" on="1"/>
        <pt x="151" y="338" on="1"/>
        <pt x="151" y="35" on="1"/>
        <pt x="370" y="35" on="1"/>
        <pt x="389" y="35" on="0"/>
        <pt x="417" y="53" on="0"/>
        <pt x="436" y="78" on="0"/>
        <pt x="445" y="107" on="0"/>
        <pt x="445" y="117" on="1"/>
        <pt x="455" y="117" on="1"/>
        <pt x="455" y="0" on="1"/>
        <pt x="45" y="0" on="1"/>
      </contour>
      <contour>
        <pt x="142" y="753" on="1"/>
        <pt x="342" y="753" on="1"/>
        <pt x="342" y="713" on="1"/>
        <pt x="142" y="713" on="1"/>
      </contour>
    </TTGlyph>
    <TTGlyph name="Eng" xMin="45" yMin="-247" xMax="578" yMax="660">
      <contour>
        <pt x="150" y="10" on="1"/>
        <pt x="155" y="10" on="1"/>
        <pt x="155" y="0" on="1"/>
        <pt x="45" y="0" on="1"/>
        <pt x="45" y="10" on="1"/>
        <pt x="50" y="10" on="1"/>
        <pt x="57" y="10" on="0"/>
        <pt x="70" y="22" on="0"/>
        <pt x="78" y="38" on="0"/>
        <pt x="83" y="57" on="0"/>
        <pt x="83" y="65" on="1"/>
        <pt x="83" y="598" on="1"/>
        <pt x="83" y="605" on="0"/>
        <pt x="81" y="623" on="0"/>
        <pt x="74" y="639" on="0"/>
        <pt x="61" y="650" on="0"/>
        <pt x="50" y="650" on="1"/>
        <pt x="45" y="650" on="1"/>
        <pt x="45" y="660" on="1"/>
        <pt x="143" y="660" on="1"/>
        <pt x="506" y="88" on="1"/>
        <pt x="506" y="598" on="1"/>
        <pt x="506" y="605" on="0"/>
        <pt x="501" y="623" on="0"/>
        <pt x="492" y="639" on="0"/>
        <pt x="480" y="650" on="0"/>
        <pt x="472" y="650" on="1"/>
        <pt x="467" y="650" on="1"/>
        <pt x="467" y="660" on="1"/>
        <pt x="578" y="660" on="1"/>
        <pt x="578" y="650" on="1"/>
        <pt x="573" y="650" on="1"/>
        <pt x="565" y="650" on="0"/>
        <pt x="553" y="639" on="0"/>
        <pt x="544" y="623" on="0"/>
        <pt x="540" y="605" on="0"/>
        <pt x="540" y="598" on="1"/>
        <pt x="540" y="1" on="1"/>
        <pt x="540" y="-32" on="0"/>
        <pt x="524" y="-88" on="0"/>
        <pt x="499" y="-135" on="0"/>
        <pt x="466" y="-173" on="0"/>
        <pt x="449" y="-188" on="1"/>
        <pt x="409" y="-223" on="0"/>
        <pt x="358" y="-247" on="1"/>
        <pt x="353" y="-240" on="1"/>
        <pt x="388" y="-212" on="0"/>
        <pt x="416" y="-175" on="1"/>
        <pt x="439" y="-143" on="0"/>
        <pt x="479" y="-56" on="0"/>
        <pt x="479" y="0" on="1"/>
        <pt x="117" y="574" on="1"/>
        <pt x="117" y="65" on="1"/>
        <pt x="117" y="57" on="0"/>
        <pt x="121" y="38" on="0"/>
        <pt x="130" y="22" on="0"/>
        <pt x="142" y="10" on="0"/>
      </contour>
    </TTGlyph>
    <TTGlyph name="Eogonek" xMin="45" yMin="-139" xMax="455" yMax="660">
      <contour>
        <pt x="45" y="10" on="1"/>
        <pt x="50" y="10" on="1"/>
        <pt x="57" y="10" on="0"/>
        <pt x="70" y="21" on="0"/>
        <pt x="79" y="37" on="0"/>
        <pt x="84" y="55" on="0"/>
        <pt x="84" y="63" on="1"/>
        <pt x="84" y="598" on="1"/>
        <pt x="84" y="605" on="0"/>
        <pt x="79" y="623" on="0"/>
        <pt x="70" y="639" on="0"/>
        <pt x="57" y="650" on="0"/>
        <pt x="50" y="650" on="1"/>
        <pt x="45" y="650" on="1"/>
        <pt x="45" y="660" on="1"/>
        <pt x="430" y="660" on="1"/>
        <pt x="430" y="567" on="1"/>
        <pt x="420" y="567" on="1"/>
        <pt x="420" y="590" on="0"/>
        <pt x="389" y="625" on="0"/>
        <pt x="356" y="625" on="1"/>
        <pt x="151" y="625" on="1"/>
        <pt x="151" y="372" on="1"/>
        <pt x="317" y="372" on="1"/>
        <pt x="340" y="372" on="0"/>
        <pt x="371" y="400" on="0"/>
        <pt x="371" y="419" on="1"/>
        <pt x="381" y="419" on="1"/>
        <pt x="381" y="294" on="1"/>
        <pt x="371" y="294" on="1"/>
        <pt x="371" y="312" on="0"/>
        <pt x="341" y="338" on="0"/>
        <pt x="317" y="338" on="1"/>
        <pt x="151" y="338" on="1"/>
        <pt x="151" y="35" on="1"/>
        <pt x="370" y="35" on="1"/>
        <pt x="389" y="35" on="0"/>
        <pt x="417" y="53" on="0"/>
        <pt x="436" y="80" on="0"/>
        <pt x="445" y="111" on="0"/>
        <pt x="445" y="124" on="1"/>
        <pt x="455" y="124" on="1"/>
        <pt x="455" y="0" on="1"/>
        <pt x="388" y="0" on="1"/>
        <pt x="371" y="-15" on="0"/>
        <pt x="345" y="-56" on="0"/>
        <pt x="345" y="-76" on="1"/>
        <pt x="345" y="-95" on="0"/>
        <pt x="374" y="-125" on="0"/>
        <pt x="412" y="-125" on="1"/>
        <pt x="436" y="-125" on="0"/>
        <pt x="453" y="-118" on="1"/>
        <pt x="455" y="-123" on="1"/>
        <pt x="442" y="-131" on="0"/>
        <pt x="404" y="-139" on="0"/>
        <pt x="383" y="-139" on="1"/>
        <pt x="338" y="-139" on="0"/>
        <pt x="297" y="-106" on="0"/>
        <pt x="297" y="-83" on="1"/>
        <pt x="297" y="-59" on="0"/>
        <pt x="332" y="-15" on="0"/>
        <pt x="355" y="0" on="1"/>
        <pt x="45" y="0" on="1"/>
      </contour>
    </TTGlyph>
    <TTGlyph name="Eth" xMin="31" yMin="0" xMax="575" yMax="660">
      <contour>
        <pt x="45" y="660" on="1"/>
        <pt x="237" y="660" on="1"/>
        <pt x="316" y="660" on="0"/>
        <pt x="442" y="605" on="0"/>
        <pt x="529" y="512" on="0"/>
        <pt x="575" y="392" on="0"/>
        <pt x="575" y="327" on="1"/>
        <pt x="575" y="266" on="0"/>
        <pt x="531" y="149" on="0"/>
        <pt x="443" y="57" on="0"/>
        <pt x="311" y="0" on="0"/>
        <pt x="224" y="0" on="1"/>
        <pt x="45" y="0" on="1"/>
        <pt x="45" y="10" on="1"/>
        <pt x="50" y="10" on="1"/>
        <pt x="57" y="10" on="0"/>
        <pt x="69" y="22" on="0"/>
        <pt x="78" y="38" on="0"/>
        <pt x="82" y="57" on="0"/>
        <pt x="82" y="65" on="1"/>
        <pt x="82" y="311" on="1"/>
        <pt x="31" y="311" on="1"/>
        <pt x="31" y="351" on="1"/>
        <pt x="82" y="351" on="1"/>
        <pt x="82" y="598" on="1"/>
        <pt x="82" y="605" on="0"/>
        <pt x="78" y="623" on="0"/>
        <pt x="69" y="639" on="0"/>
        <pt x="57" y="650" on="0"/>
        <pt x="50" y="650" on="1"/>
        <pt x="45" y="650" on="1"/>
      </contour>
      <contour>
        <pt x="507" y="312" on="1"/>
        <pt x="507" y="376" on="0"/>
        <pt x="461" y="490" on="0"/>
        <pt x="378" y="575" on="0"/>
        <pt x="265" y="625" on="0"/>
        <pt x="199" y="625" on="1"/>
        <pt x="148" y="625" on="1"/>
        <pt x="148" y="351" on="1"/>
        <pt x="323" y="351" on="1"/>
        <pt x="323" y="311" on="1"/>
        <pt x="148" y="311" on="1"/>
        <pt x="148" y="35" on="1"/>
        <pt x="201" y="35" on="1"/>
        <pt x="255" y="35" on="0"/>
        <pt x="364" y="68" on="0"/>
        <pt x="452" y="137" on="0"/>
        <pt x="507" y="241" on="0"/>
      </contour>
    </TTGlyph>
    <TTGlyph name="Euro" xMin="12" yMin="-10" xMax="432" yMax="669">
      <contour>
        <pt x="432" y="24" on="1"/>
        <pt x="424" y="24" on="0"/>
        <pt x="408" y="19" on="0"/>
        <pt x="398" y="14" on="1"/>
        <pt x="392" y="11" on="1"/>
        <pt x="378" y="4" on="0"/>
        <pt x="337" y="-10" on="0"/>
        <pt x="310" y="-10" on="1"/>
        <pt x="270" y="-10" on="0"/>
        <pt x="194" y="26" on="0"/>
        <pt x="131" y="94" on="0"/>
        <pt x="85" y="192" on="0"/>
        <pt x="76" y="254" on="1"/>
        <pt x="12" y="254" on="1"/>
        <pt x="12" y="292" on="1"/>
        <pt x="73" y="292" on="1"/>
        <pt x="72" y="300" on="0"/>
        <pt x="71" y="319" on="0"/>
        <pt x="71" y="330" on="1"/>
        <pt x="71" y="343" on="0"/>
        <pt x="71" y="372" on="0"/>
        <pt x="73" y="385" on="1"/>
        <pt x="12" y="385" on="1"/>
        <pt x="12" y="424" on="1"/>
        <pt x="78" y="424" on="1"/>
        <pt x="89" y="482" on="0"/>
        <pt x="134" y="573" on="0"/>
        <pt x="193" y="636" on="0"/>
        <pt x="264" y="669" on="0"/>
        <pt x="302" y="669" on="1"/>
        <pt x="318" y="669" on="0"/>
        <pt x="353" y="659" on="0"/>
        <pt x="370" y="654" on="1"/>
        <pt x="384" y="649" on="0"/>
        <pt x="407" y="643" on="0"/>
        <pt x="417" y="643" on="1"/>
        <pt x="417" y="535" on="1"/>
        <pt x="407" y="535" on="1"/>
        <pt x="400" y="564" on="0"/>
        <pt x="375" y="602" on="0"/>
        <pt x="344" y="624" on="0"/>
        <pt x="309" y="632" on="0"/>
        <pt x="292" y="632" on="1"/>
        <pt x="262" y="632" on="0"/>
        <pt x="210" y="596" on="0"/>
        <pt x="169" y="538" on="0"/>
        <pt x="141" y="463" on="0"/>
        <pt x="135" y="424" on="1"/>
        <pt x="417" y="424" on="1"/>
        <pt x="417" y="385" on="1"/>
        <pt x="132" y="385" on="1"/>
        <pt x="132" y="372" on="1"/>
        <pt x="132" y="352" on="0"/>
        <pt x="135" y="311" on="0"/>
        <pt x="139" y="292" on="1"/>
        <pt x="416" y="292" on="1"/>
        <pt x="416" y="254" on="1"/>
        <pt x="146" y="254" on="1"/>
        <pt x="157" y="211" on="0"/>
        <pt x="189" y="130" on="0"/>
        <pt x="233" y="66" on="0"/>
        <pt x="289" y="27" on="0"/>
        <pt x="325" y="27" on="1"/>
        <pt x="339" y="27" on="0"/>
        <pt x="370" y="40" on="0"/>
        <pt x="398" y="67" on="0"/>
        <pt x="419" y="107" on="0"/>
        <pt x="423" y="134" on="1"/>
        <pt x="432" y="134" on="1"/>
      </contour>
    </TTGlyph>
    <TTGlyph name="F" xMin="46" yMin="0" xMax="430" yMax="660">
      <contour>
        <pt x="184" y="10" on="1"/>
        <pt x="189" y="10" on="1"/>
        <pt x="189" y="0" on="1"/>
        <pt x="46" y="0" on="1"/>
        <pt x="46" y="10" on="1"/>
        <pt x="51" y="10" on="1"/>
        <pt x="59" y="10" on="0"/>
        <pt x="71" y="21" on="0"/>
        <pt x="80" y="37" on="0"/>
        <pt x="84" y="55" on="0"/>
        <pt x="84" y="63" on="1"/>
        <pt x="84" y="598" on="1"/>
        <pt x="84" y="605" on="0"/>
        <pt x="80" y="623" on="0"/>
        <pt x="72" y="639" on="0"/>
        <pt x="59" y="650" on="0"/>
        <pt x="51" y="650" on="1"/>
        <pt x="46" y="650" on="1"/>
        <pt x="46" y="660" on="1"/>
        <pt x="430" y="660" on="1"/>
        <pt x="430" y="567" on="1"/>
        <pt x="420" y="567" on="1"/>
        <pt x="420" y="590" on="0"/>
        <pt x="389" y="625" on="0"/>
        <pt x="356" y="625" on="1"/>
        <pt x="151" y="625" on="1"/>
        <pt x="151" y="372" on="1"/>
        <pt x="317" y="372" on="1"/>
        <pt x="340" y="372" on="0"/>
        <pt x="371" y="400" on="0"/>
        <pt x="371" y="419" on="1"/>
        <pt x="381" y="419" on="1"/>
        <pt x="381" y="294" on="1"/>
        <pt x="371" y="294" on="1"/>
        <pt x="371" y="312" on="0"/>
        <pt x="341" y="338" on="0"/>
        <pt x="317" y="338" on="1"/>
        <pt x="151" y="338" on="1"/>
        <pt x="151" y="63" on="1"/>
        <pt x="151" y="55" on="0"/>
        <pt x="155" y="37" on="0"/>
        <pt x="164" y="21" on="0"/>
        <pt x="176" y="10" on="0"/>
      </contour>
    </TTGlyph>
    <TTGlyph name="G" xMin="37" yMin="-10" xMax="618" yMax="670">
      <contour>
        <pt x="475" y="348" on="1"/>
        <pt x="618" y="348" on="1"/>
        <pt x="618" y="338" on="1"/>
        <pt x="613" y="338" on="1"/>
        <pt x="605" y="338" on="0"/>
        <pt x="593" y="327" on="0"/>
        <pt x="585" y="311" on="0"/>
        <pt x="580" y="293" on="0"/>
        <pt x="580" y="286" on="1"/>
        <pt x="580" y="18" on="1"/>
        <pt x="562" y="11" on="0"/>
        <pt x="516" y="1" on="0"/>
        <pt x="466" y="-6" on="0"/>
        <pt x="414" y="-10" on="0"/>
        <pt x="392" y="-10" on="1"/>
        <pt x="302" y="-10" on="0"/>
        <pt x="168" y="50" on="0"/>
        <pt x="80" y="147" on="0"/>
        <pt x="37" y="269" on="0"/>
        <pt x="37" y="331" on="1"/>
        <pt x="37" y="393" on="0"/>
        <pt x="80" y="515" on="0"/>
        <pt x="169" y="611" on="0"/>
        <pt x="304" y="670" on="0"/>
        <pt x="397" y="670" on="1"/>
        <pt x="432" y="670" on="0"/>
        <pt x="492" y="658" on="0"/>
        <pt x="515" y="653" on="1"/>
        <pt x="528" y="650" on="0"/>
        <pt x="547" y="645" on="0"/>
        <pt x="554" y="645" on="1"/>
        <pt x="563" y="645" on="1"/>
        <pt x="563" y="539" on="1"/>
        <pt x="553" y="539" on="1"/>
        <pt x="547" y="570" on="0"/>
        <pt x="512" y="608" on="0"/>
        <pt x="466" y="628" on="0"/>
        <pt x="415" y="635" on="0"/>
        <pt x="393" y="635" on="1"/>
        <pt x="318" y="635" on="0"/>
        <pt x="208" y="582" on="0"/>
        <pt x="138" y="498" on="0"/>
        <pt x="104" y="393" on="0"/>
        <pt x="104" y="341" on="1"/>
        <pt x="104" y="283" on="0"/>
        <pt x="148" y="170" on="0"/>
        <pt x="228" y="81" on="0"/>
        <pt x="341" y="26" on="0"/>
        <pt x="410" y="26" on="1"/>
        <pt x="429" y="26" on="0"/>
        <pt x="485" y="35" on="0"/>
        <pt x="513" y="51" on="1"/>
        <pt x="513" y="286" on="1"/>
        <pt x="513" y="293" on="0"/>
        <pt x="509" y="311" on="0"/>
        <pt x="500" y="327" on="0"/>
        <pt x="488" y="338" on="0"/>
        <pt x="480" y="338" on="1"/>
        <pt x="475" y="338" on="1"/>
      </contour>
    </TTGlyph>
    <TTGlyph name="Gbreve" xMin="37" yMin="-10" xMax="618" yMax="795">
      <contour>
        <pt x="475" y="348" on="1"/>
        <pt x="618" y="348" on="1"/>
        <pt x="618" y="338" on="1"/>
        <pt x="613" y="338" on="1"/>
        <pt x="605" y="338" on="0"/>
        <pt x="593" y="327" on="0"/>
        <pt x="585" y="311" on="0"/>
        <pt x="580" y="293" on="0"/>
        <pt x="580" y="286" on="1"/>
        <pt x="580" y="18" on="1"/>
        <pt x="562" y="11" on="0"/>
        <pt x="516" y="1" on="0"/>
        <pt x="466" y="-6" on="0"/>
        <pt x="414" y="-10" on="0"/>
        <pt x="392" y="-10" on="1"/>
        <pt x="302" y="-10" on="0"/>
        <pt x="168" y="50" on="0"/>
        <pt x="80" y="147" on="0"/>
        <pt x="37" y="269" on="0"/>
        <pt x="37" y="331" on="1"/>
        <pt x="37" y="393" on="0"/>
        <pt x="80" y="515" on="0"/>
        <pt x="169" y="611" on="0"/>
        <pt x="304" y="670" on="0"/>
        <pt x="397" y="670" on="1"/>
        <pt x="432" y="670" on="0"/>
        <pt x="492" y="658" on="0"/>
        <pt x="515" y="653" on="1"/>
        <pt x="528" y="650" on="0"/>
        <pt x="547" y="645" on="0"/>
        <pt x="554" y="645" on="1"/>
        <pt x="563" y="645" on="1"/>
        <pt x="563" y="539" on="1"/>
        <pt x="553" y="539" on="1"/>
        <pt x="547" y="570" on="0"/>
        <pt x="512" y="608" on="0"/>
        <pt x="466" y="628" on="0"/>
        <pt x="415" y="635" on="0"/>
        <pt x="393" y="635" on="1"/>
        <pt x="318" y="635" on="0"/>
        <pt x="208" y="582" on="0"/>
        <pt x="138" y="498" on="0"/>
        <pt x="104" y="393" on="0"/>
        <pt x="104" y="341" on="1"/>
        <pt x="104" y="283" on="0"/>
        <pt x="148" y="170" on="0"/>
        <pt x="228" y="81" on="0"/>
        <pt x="341" y="26" on="0"/>
        <pt x="410" y="26" on="1"/>
        <pt x="429" y="26" on="0"/>
        <pt x="485" y="35" on="0"/>
        <pt x="513" y="51" on="1"/>
        <pt x="513" y="286" on="1"/>
        <pt x="513" y="293" on="0"/>
        <pt x="509" y="311" on="0"/>
        <pt x="500" y="327" on="0"/>
        <pt x="488" y="338" on="0"/>
        <pt x="480" y="338" on="1"/>
        <pt x="475" y="338" on="1"/>
      </contour>
      <contour>
        <pt x="488" y="795" on="1"/>
        <pt x="488" y="779" on="0"/>
        <pt x="472" y="742" on="0"/>
        <pt x="443" y="711" on="0"/>
        <pt x="402" y="691" on="0"/>
        <pt x="377" y="691" on="1"/>
        <pt x="353" y="691" on="0"/>
        <pt x="312" y="710" on="0"/>
        <pt x="282" y="740" on="0"/>
        <pt x="264" y="777" on="0"/>
        <pt x="264" y="795" on="1"/>
        <pt x="270" y="795" on="1"/>
        <pt x="271" y="789" on="0"/>
        <pt x="282" y="768" on="0"/>
        <pt x="306" y="746" on="0"/>
        <pt x="346" y="730" on="0"/>
        <pt x="376" y="730" on="1"/>
        <pt x="407" y="730" on="0"/>
        <pt x="446" y="746" on="0"/>
        <pt x="470" y="768" on="0"/>
        <pt x="480" y="789" on="0"/>
        <pt x="482" y="795" on="1"/>
      </contour>
    </TTGlyph>
    <TTGlyph name="Gcircumflex" xMin="37" yMin="-10" xMax="618" yMax="793">
      <contour>
        <pt x="475" y="348" on="1"/>
        <pt x="618" y="348" on="1"/>
        <pt x="618" y="338" on="1"/>
        <pt x="613" y="338" on="1"/>
        <pt x="605" y="338" on="0"/>
        <pt x="593" y="327" on="0"/>
        <pt x="585" y="311" on="0"/>
        <pt x="580" y="293" on="0"/>
        <pt x="580" y="286" on="1"/>
        <pt x="580" y="18" on="1"/>
        <pt x="562" y="11" on="0"/>
        <pt x="516" y="1" on="0"/>
        <pt x="466" y="-6" on="0"/>
        <pt x="414" y="-10" on="0"/>
        <pt x="392" y="-10" on="1"/>
        <pt x="302" y="-10" on="0"/>
        <pt x="168" y="50" on="0"/>
        <pt x="80" y="147" on="0"/>
        <pt x="37" y="269" on="0"/>
        <pt x="37" y="331" on="1"/>
        <pt x="37" y="393" on="0"/>
        <pt x="80" y="515" on="0"/>
        <pt x="169" y="611" on="0"/>
        <pt x="304" y="670" on="0"/>
        <pt x="397" y="670" on="1"/>
        <pt x="432" y="670" on="0"/>
        <pt x="492" y="658" on="0"/>
        <pt x="515" y="653" on="1"/>
        <pt x="528" y="650" on="0"/>
        <pt x="547" y="645" on="0"/>
        <pt x="554" y="645" on="1"/>
        <pt x="563" y="645" on="1"/>
        <pt x="563" y="539" on="1"/>
        <pt x="553" y="539" on="1"/>
        <pt x="547" y="570" on="0"/>
        <pt x="512" y="608" on="0"/>
        <pt x="466" y="628" on="0"/>
        <pt x="415" y="635" on="0"/>
        <pt x="393" y="635" on="1"/>
        <pt x="318" y="635" on="0"/>
        <pt x="208" y="582" on="0"/>
        <pt x="138" y="498" on="0"/>
        <pt x="104" y="393" on="0"/>
        <pt x="104" y="341" on="1"/>
        <pt x="104" y="283" on="0"/>
        <pt x="148" y="170" on="0"/>
        <pt x="228" y="81" on="0"/>
        <pt x="341" y="26" on="0"/>
        <pt x="410" y="26" on="1"/>
        <pt x="429" y="26" on="0"/>
        <pt x="485" y="35" on="0"/>
        <pt x="513" y="51" on="1"/>
        <pt x="513" y="286" on="1"/>
        <pt x="513" y="293" on="0"/>
        <pt x="509" y="311" on="0"/>
        <pt x="500" y="327" on="0"/>
        <pt x="488" y="338" on="0"/>
        <pt x="480" y="338" on="1"/>
        <pt x="475" y="338" on="1"/>
      </contour>
      <contour>
        <pt x="513" y="685" on="1"/>
        <pt x="392" y="744" on="1"/>
        <pt x="272" y="685" on="1"/>
        <pt x="270" y="690" on="1"/>
        <pt x="392" y="793" on="1"/>
        <pt x="514" y="690" on="1"/>
      </contour>
    </TTGlyph>
    <TTGlyph name="Gdotaccent" xMin="37" yMin="-10" xMax="618" yMax="779">
      <contour>
        <pt x="475" y="348" on="1"/>
        <pt x="618" y="348" on="1"/>
        <pt x="618" y="338" on="1"/>
        <pt x="613" y="338" on="1"/>
        <pt x="605" y="338" on="0"/>
        <pt x="593" y="327" on="0"/>
        <pt x="585" y="311" on="0"/>
        <pt x="580" y="293" on="0"/>
        <pt x="580" y="286" on="1"/>
        <pt x="580" y="18" on="1"/>
        <pt x="562" y="11" on="0"/>
        <pt x="516" y="1" on="0"/>
        <pt x="466" y="-6" on="0"/>
        <pt x="414" y="-10" on="0"/>
        <pt x="392" y="-10" on="1"/>
        <pt x="302" y="-10" on="0"/>
        <pt x="168" y="50" on="0"/>
        <pt x="80" y="147" on="0"/>
        <pt x="37" y="269" on="0"/>
        <pt x="37" y="331" on="1"/>
        <pt x="37" y="393" on="0"/>
        <pt x="80" y="515" on="0"/>
        <pt x="169" y="611" on="0"/>
        <pt x="304" y="670" on="0"/>
        <pt x="397" y="670" on="1"/>
        <pt x="432" y="670" on="0"/>
        <pt x="492" y="658" on="0"/>
        <pt x="515" y="653" on="1"/>
        <pt x="528" y="650" on="0"/>
        <pt x="547" y="645" on="0"/>
        <pt x="554" y="645" on="1"/>
        <pt x="563" y="645" on="1"/>
        <pt x="563" y="539" on="1"/>
        <pt x="553" y="539" on="1"/>
        <pt x="547" y="570" on="0"/>
        <pt x="512" y="608" on="0"/>
        <pt x="466" y="628" on="0"/>
        <pt x="415" y="635" on="0"/>
        <pt x="393" y="635" on="1"/>
        <pt x="318" y="635" on="0"/>
        <pt x="208" y="582" on="0"/>
        <pt x="138" y="498" on="0"/>
        <pt x="104" y="393" on="0"/>
        <pt x="104" y="341" on="1"/>
        <pt x="104" y="283" on="0"/>
        <pt x="148" y="170" on="0"/>
        <pt x="228" y="81" on="0"/>
        <pt x="341" y="26" on="0"/>
        <pt x="410" y="26" on="1"/>
        <pt x="429" y="26" on="0"/>
        <pt x="485" y="35" on="0"/>
        <pt x="513" y="51" on="1"/>
        <pt x="513" y="286" on="1"/>
        <pt x="513" y="293" on="0"/>
        <pt x="509" y="311" on="0"/>
        <pt x="500" y="327" on="0"/>
        <pt x="488" y="338" on="0"/>
        <pt x="480" y="338" on="1"/>
        <pt x="475" y="338" on="1"/>
      </contour>
      <contour>
        <pt x="351" y="741" on="1"/>
        <pt x="351" y="758" on="0"/>
        <pt x="372" y="779" on="0"/>
        <pt x="389" y="779" on="1"/>
        <pt x="406" y="779" on="0"/>
        <pt x="428" y="758" on="0"/>
        <pt x="428" y="741" on="1"/>
        <pt x="428" y="724" on="0"/>
        <pt x="406" y="703" on="0"/>
        <pt x="389" y="703" on="1"/>
        <pt x="372" y="703" on="0"/>
        <pt x="351" y="724" on="0"/>
      </contour>
    </TTGlyph>
    <TTGlyph name="H" xMin="57" yMin="0" xMax="584" yMax="660">
      <contour>
        <pt x="444" y="10" on="1"/>
        <pt x="449" y="10" on="1"/>
        <pt x="456" y="10" on="0"/>
        <pt x="468" y="21" on="0"/>
        <pt x="477" y="38" on="0"/>
        <pt x="481" y="57" on="0"/>
        <pt x="481" y="65" on="1"/>
        <pt x="481" y="337" on="1"/>
        <pt x="161" y="337" on="1"/>
        <pt x="161" y="65" on="1"/>
        <pt x="161" y="57" on="0"/>
        <pt x="165" y="38" on="0"/>
        <pt x="173" y="22" on="0"/>
        <pt x="184" y="10" on="0"/>
        <pt x="192" y="10" on="1"/>
        <pt x="197" y="10" on="1"/>
        <pt x="197" y="0" on="1"/>
        <pt x="57" y="0" on="1"/>
        <pt x="57" y="10" on="1"/>
        <pt x="62" y="10" on="1"/>
        <pt x="69" y="10" on="0"/>
        <pt x="81" y="21" on="0"/>
        <pt x="90" y="38" on="0"/>
        <pt x="94" y="57" on="0"/>
        <pt x="94" y="65" on="1"/>
        <pt x="94" y="598" on="1"/>
        <pt x="94" y="605" on="0"/>
        <pt x="90" y="623" on="0"/>
        <pt x="82" y="639" on="0"/>
        <pt x="70" y="650" on="0"/>
        <pt x="62" y="650" on="1"/>
        <pt x="57" y="650" on="1"/>
        <pt x="57" y="660" on="1"/>
        <pt x="197" y="660" on="1"/>
        <pt x="197" y="650" on="1"/>
        <pt x="192" y="650" on="1"/>
        <pt x="184" y="650" on="0"/>
        <pt x="172" y="639" on="0"/>
        <pt x="165" y="623" on="0"/>
        <pt x="161" y="605" on="0"/>
        <pt x="161" y="598" on="1"/>
        <pt x="161" y="372" on="1"/>
        <pt x="481" y="372" on="1"/>
        <pt x="481" y="598" on="1"/>
        <pt x="481" y="605" on="0"/>
        <pt x="477" y="623" on="0"/>
        <pt x="469" y="639" on="0"/>
        <pt x="457" y="650" on="0"/>
        <pt x="449" y="650" on="1"/>
        <pt x="444" y="650" on="1"/>
        <pt x="444" y="660" on="1"/>
        <pt x="584" y="660" on="1"/>
        <pt x="584" y="650" on="1"/>
        <pt x="579" y="650" on="1"/>
        <pt x="571" y="650" on="0"/>
        <pt x="559" y="639" on="0"/>
        <pt x="552" y="623" on="0"/>
        <pt x="548" y="605" on="0"/>
        <pt x="548" y="598" on="1"/>
        <pt x="548" y="65" on="1"/>
        <pt x="548" y="57" on="0"/>
        <pt x="553" y="38" on="0"/>
        <pt x="561" y="22" on="0"/>
        <pt x="572" y="10" on="0"/>
        <pt x="579" y="10" on="1"/>
        <pt x="584" y="10" on="1"/>
        <pt x="584" y="0" on="1"/>
        <pt x="444" y="0" on="1"/>
      </contour>
    </TTGlyph>
    <TTGlyph name="Hbar" xMin="28" yMin="0" xMax="585" yMax="660">
      <contour>
        <pt x="45" y="660" on="1"/>
        <pt x="185" y="660" on="1"/>
        <pt x="185" y="650" on="1"/>
        <pt x="180" y="650" on="1"/>
        <pt x="172" y="650" on="0"/>
        <pt x="160" y="639" on="0"/>
        <pt x="153" y="623" on="0"/>
        <pt x="149" y="605" on="0"/>
        <pt x="149" y="598" on="1"/>
        <pt x="149" y="508" on="1"/>
        <pt x="469" y="508" on="1"/>
        <pt x="469" y="598" on="1"/>
        <pt x="469" y="605" on="0"/>
        <pt x="465" y="623" on="0"/>
        <pt x="457" y="639" on="0"/>
        <pt x="445" y="650" on="0"/>
        <pt x="438" y="650" on="1"/>
        <pt x="433" y="650" on="1"/>
        <pt x="433" y="660" on="1"/>
        <pt x="573" y="660" on="1"/>
        <pt x="573" y="650" on="1"/>
        <pt x="568" y="650" on="1"/>
        <pt x="560" y="650" on="0"/>
        <pt x="548" y="639" on="0"/>
        <pt x="540" y="623" on="0"/>
        <pt x="536" y="605" on="0"/>
        <pt x="536" y="598" on="1"/>
        <pt x="536" y="508" on="1"/>
        <pt x="585" y="508" on="1"/>
        <pt x="585" y="476" on="1"/>
        <pt x="536" y="476" on="1"/>
        <pt x="536" y="65" on="1"/>
        <pt x="536" y="57" on="0"/>
        <pt x="541" y="38" on="0"/>
        <pt x="550" y="22" on="0"/>
        <pt x="561" y="10" on="0"/>
        <pt x="568" y="10" on="1"/>
        <pt x="573" y="10" on="1"/>
        <pt x="573" y="0" on="1"/>
        <pt x="433" y="0" on="1"/>
        <pt x="433" y="10" on="1"/>
        <pt x="438" y="10" on="1"/>
        <pt x="445" y="10" on="0"/>
        <pt x="457" y="21" on="0"/>
        <pt x="465" y="38" on="0"/>
        <pt x="469" y="57" on="0"/>
        <pt x="469" y="65" on="1"/>
        <pt x="469" y="338" on="1"/>
        <pt x="149" y="338" on="1"/>
        <pt x="149" y="65" on="1"/>
        <pt x="149" y="57" on="0"/>
        <pt x="153" y="38" on="0"/>
        <pt x="161" y="22" on="0"/>
        <pt x="173" y="10" on="0"/>
        <pt x="180" y="10" on="1"/>
        <pt x="185" y="10" on="1"/>
        <pt x="185" y="0" on="1"/>
        <pt x="45" y="0" on="1"/>
        <pt x="45" y="10" on="1"/>
        <pt x="50" y="10" on="1"/>
        <pt x="57" y="10" on="0"/>
        <pt x="69" y="21" on="0"/>
        <pt x="78" y="38" on="0"/>
        <pt x="82" y="57" on="0"/>
        <pt x="82" y="65" on="1"/>
        <pt x="82" y="476" on="1"/>
        <pt x="28" y="476" on="1"/>
        <pt x="28" y="508" on="1"/>
        <pt x="82" y="508" on="1"/>
        <pt x="82" y="598" on="1"/>
        <pt x="82" y="605" on="0"/>
        <pt x="78" y="623" on="0"/>
        <pt x="70" y="639" on="0"/>
        <pt x="58" y="650" on="0"/>
        <pt x="50" y="650" on="1"/>
        <pt x="45" y="650" on="1"/>
      </contour>
      <contour>
        <pt x="469" y="372" on="1"/>
        <pt x="469" y="476" on="1"/>
        <pt x="149" y="476" on="1"/>
        <pt x="149" y="372" on="1"/>
      </contour>
    </TTGlyph>
    <TTGlyph name="Hcircumflex" xMin="52" yMin="0" xMax="579" yMax="793">
      <contour>
        <pt x="439" y="10" on="1"/>
        <pt x="444" y="10" on="1"/>
        <pt x="451" y="10" on="0"/>
        <pt x="463" y="21" on="0"/>
        <pt x="472" y="38" on="0"/>
        <pt x="476" y="57" on="0"/>
        <pt x="476" y="65" on="1"/>
        <pt x="476" y="337" on="1"/>
        <pt x="156" y="337" on="1"/>
        <pt x="156" y="65" on="1"/>
        <pt x="156" y="57" on="0"/>
        <pt x="160" y="38" on="0"/>
        <pt x="168" y="22" on="0"/>
        <pt x="179" y="10" on="0"/>
        <pt x="187" y="10" on="1"/>
        <pt x="192" y="10" on="1"/>
        <pt x="192" y="0" on="1"/>
        <pt x="52" y="0" on="1"/>
        <pt x="52" y="10" on="1"/>
        <pt x="57" y="10" on="1"/>
        <pt x="64" y="10" on="0"/>
        <pt x="76" y="21" on="0"/>
        <pt x="85" y="38" on="0"/>
        <pt x="89" y="57" on="0"/>
        <pt x="89" y="65" on="1"/>
        <pt x="89" y="598" on="1"/>
        <pt x="89" y="605" on="0"/>
        <pt x="85" y="623" on="0"/>
        <pt x="77" y="639" on="0"/>
        <pt x="65" y="650" on="0"/>
        <pt x="57" y="650" on="1"/>
        <pt x="52" y="650" on="1"/>
        <pt x="52" y="660" on="1"/>
        <pt x="192" y="660" on="1"/>
        <pt x="192" y="650" on="1"/>
        <pt x="187" y="650" on="1"/>
        <pt x="179" y="650" on="0"/>
        <pt x="167" y="639" on="0"/>
        <pt x="160" y="623" on="0"/>
        <pt x="156" y="605" on="0"/>
        <pt x="156" y="598" on="1"/>
        <pt x="156" y="372" on="1"/>
        <pt x="476" y="372" on="1"/>
        <pt x="476" y="598" on="1"/>
        <pt x="476" y="605" on="0"/>
        <pt x="472" y="623" on="0"/>
        <pt x="464" y="639" on="0"/>
        <pt x="452" y="650" on="0"/>
        <pt x="444" y="650" on="1"/>
        <pt x="439" y="650" on="1"/>
        <pt x="439" y="660" on="1"/>
        <pt x="579" y="660" on="1"/>
        <pt x="579" y="650" on="1"/>
        <pt x="574" y="650" on="1"/>
        <pt x="566" y="650" on="0"/>
        <pt x="554" y="639" on="0"/>
        <pt x="547" y="623" on="0"/>
        <pt x="543" y="605" on="0"/>
        <pt x="543" y="598" on="1"/>
        <pt x="543" y="65" on="1"/>
        <pt x="543" y="57" on="0"/>
        <pt x="548" y="38" on="0"/>
        <pt x="556" y="22" on="0"/>
        <pt x="567" y="10" on="0"/>
        <pt x="574" y="10" on="1"/>
        <pt x="579" y="10" on="1"/>
        <pt x="579" y="0" on="1"/>
        <pt x="439" y="0" on="1"/>
      </contour>
      <contour>
        <pt x="431" y="685" on="1"/>
        <pt x="310" y="744" on="1"/>
        <pt x="190" y="685" on="1"/>
        <pt x="188" y="690" on="1"/>
        <pt x="310" y="793" on="1"/>
        <pt x="432" y="690" on="1"/>
      </contour>
    </TTGlyph>
    <TTGlyph name="I" xMin="49" yMin="0" xMax="192" yMax="660">
      <contour>
        <pt x="49" y="660" on="1"/>
        <pt x="192" y="660" on="1"/>
        <pt x="192" y="650" on="1"/>
        <pt x="187" y="650" on="1"/>
        <pt x="180" y="650" on="0"/>
        <pt x="168" y="639" on="0"/>
        <pt x="160" y="624" on="0"/>
        <pt x="155" y="605" on="0"/>
        <pt x="155" y="598" on="1"/>
        <pt x="155" y="65" on="1"/>
        <pt x="155" y="57" on="0"/>
        <pt x="159" y="38" on="0"/>
        <pt x="168" y="22" on="0"/>
        <pt x="179" y="10" on="0"/>
        <pt x="187" y="10" on="1"/>
        <pt x="192" y="10" on="1"/>
        <pt x="192" y="0" on="1"/>
        <pt x="49" y="0" on="1"/>
        <pt x="49" y="10" on="1"/>
        <pt x="54" y="10" on="1"/>
        <pt x="62" y="10" on="0"/>
        <pt x="74" y="21" on="0"/>
        <pt x="83" y="38" on="0"/>
        <pt x="87" y="57" on="0"/>
        <pt x="87" y="65" on="1"/>
        <pt x="87" y="598" on="1"/>
        <pt x="87" y="605" on="0"/>
        <pt x="83" y="623" on="0"/>
        <pt x="74" y="639" on="0"/>
        <pt x="62" y="650" on="0"/>
        <pt x="54" y="650" on="1"/>
        <pt x="49" y="650" on="1"/>
      </contour>
    </TTGlyph>
    <TTGlyph name="Iacute" xMin="37" yMin="0" xMax="205" yMax="795">
      <contour>
        <pt x="49" y="660" on="1"/>
        <pt x="192" y="660" on="1"/>
        <pt x="192" y="650" on="1"/>
        <pt x="187" y="650" on="1"/>
        <pt x="180" y="650" on="0"/>
        <pt x="168" y="639" on="0"/>
        <pt x="160" y="624" on="0"/>
        <pt x="155" y="605" on="0"/>
        <pt x="155" y="598" on="1"/>
        <pt x="155" y="65" on="1"/>
        <pt x="155" y="57" on="0"/>
        <pt x="159" y="38" on="0"/>
        <pt x="168" y="22" on="0"/>
        <pt x="179" y="10" on="0"/>
        <pt x="187" y="10" on="1"/>
        <pt x="192" y="10" on="1"/>
        <pt x="192" y="0" on="1"/>
        <pt x="49" y="0" on="1"/>
        <pt x="49" y="10" on="1"/>
        <pt x="54" y="10" on="1"/>
        <pt x="62" y="10" on="0"/>
        <pt x="74" y="21" on="0"/>
        <pt x="83" y="38" on="0"/>
        <pt x="87" y="57" on="0"/>
        <pt x="87" y="65" on="1"/>
        <pt x="87" y="598" on="1"/>
        <pt x="87" y="605" on="0"/>
        <pt x="83" y="623" on="0"/>
        <pt x="74" y="639" on="0"/>
        <pt x="62" y="650" on="0"/>
        <pt x="54" y="650" on="1"/>
        <pt x="49" y="650" on="1"/>
      </contour>
      <contour>
        <pt x="37" y="688" on="1"/>
        <pt x="179" y="795" on="1"/>
        <pt x="205" y="750" on="1"/>
        <pt x="40" y="682" on="1"/>
      </contour>
    </TTGlyph>
    <TTGlyph name="Ibreve" xMin="9" yMin="0" xMax="233" yMax="795">
      <contour>
        <pt x="49" y="660" on="1"/>
        <pt x="192" y="660" on="1"/>
        <pt x="192" y="650" on="1"/>
        <pt x="187" y="650" on="1"/>
        <pt x="180" y="650" on="0"/>
        <pt x="168" y="639" on="0"/>
        <pt x="160" y="624" on="0"/>
        <pt x="155" y="605" on="0"/>
        <pt x="155" y="598" on="1"/>
        <pt x="155" y="65" on="1"/>
        <pt x="155" y="57" on="0"/>
        <pt x="159" y="38" on="0"/>
        <pt x="168" y="22" on="0"/>
        <pt x="179" y="10" on="0"/>
        <pt x="187" y="10" on="1"/>
        <pt x="192" y="10" on="1"/>
        <pt x="192" y="0" on="1"/>
        <pt x="49" y="0" on="1"/>
        <pt x="49" y="10" on="1"/>
        <pt x="54" y="10" on="1"/>
        <pt x="62" y="10" on="0"/>
        <pt x="74" y="21" on="0"/>
        <pt x="83" y="38" on="0"/>
        <pt x="87" y="57" on="0"/>
        <pt x="87" y="65" on="1"/>
        <pt x="87" y="598" on="1"/>
        <pt x="87" y="605" on="0"/>
        <pt x="83" y="623" on="0"/>
        <pt x="74" y="639" on="0"/>
        <pt x="62" y="650" on="0"/>
        <pt x="54" y="650" on="1"/>
        <pt x="49" y="650" on="1"/>
      </contour>
      <contour>
        <pt x="233" y="795" on="1"/>
        <pt x="233" y="779" on="0"/>
        <pt x="217" y="742" on="0"/>
        <pt x="188" y="711" on="0"/>
        <pt x="147" y="691" on="0"/>
        <pt x="122" y="691" on="1"/>
        <pt x="98" y="691" on="0"/>
        <pt x="57" y="710" on="0"/>
        <pt x="27" y="740" on="0"/>
        <pt x="9" y="777" on="0"/>
        <pt x="9" y="795" on="1"/>
        <pt x="15" y="795" on="1"/>
        <pt x="16" y="789" on="0"/>
        <pt x="27" y="768" on="0"/>
        <pt x="51" y="746" on="0"/>
        <pt x="91" y="730" on="0"/>
        <pt x="121" y="730" on="1"/>
        <pt x="152" y="730" on="0"/>
        <pt x="191" y="746" on="0"/>
        <pt x="215" y="768" on="0"/>
        <pt x="225" y="789" on="0"/>
        <pt x="227" y="795" on="1"/>
      </contour>
    </TTGlyph>
    <TTGlyph name="Icircumflex" xMin="-1" yMin="0" xMax="243" yMax="793">
      <contour>
        <pt x="49" y="660" on="1"/>
        <pt x="192" y="660" on="1"/>
        <pt x="192" y="650" on="1"/>
        <pt x="187" y="650" on="1"/>
        <pt x="180" y="650" on="0"/>
        <pt x="168" y="639" on="0"/>
        <pt x="160" y="624" on="0"/>
        <pt x="155" y="605" on="0"/>
        <pt x="155" y="598" on="1"/>
        <pt x="155" y="65" on="1"/>
        <pt x="155" y="57" on="0"/>
        <pt x="159" y="38" on="0"/>
        <pt x="168" y="22" on="0"/>
        <pt x="179" y="10" on="0"/>
        <pt x="187" y="10" on="1"/>
        <pt x="192" y="10" on="1"/>
        <pt x="192" y="0" on="1"/>
        <pt x="49" y="0" on="1"/>
        <pt x="49" y="10" on="1"/>
        <pt x="54" y="10" on="1"/>
        <pt x="62" y="10" on="0"/>
        <pt x="74" y="21" on="0"/>
        <pt x="83" y="38" on="0"/>
        <pt x="87" y="57" on="0"/>
        <pt x="87" y="65" on="1"/>
        <pt x="87" y="598" on="1"/>
        <pt x="87" y="605" on="0"/>
        <pt x="83" y="623" on="0"/>
        <pt x="74" y="639" on="0"/>
        <pt x="62" y="650" on="0"/>
        <pt x="54" y="650" on="1"/>
        <pt x="49" y="650" on="1"/>
      </contour>
      <contour>
        <pt x="242" y="685" on="1"/>
        <pt x="121" y="744" on="1"/>
        <pt x="1" y="685" on="1"/>
        <pt x="-1" y="690" on="1"/>
        <pt x="121" y="793" on="1"/>
        <pt x="243" y="690" on="1"/>
      </contour>
    </TTGlyph>
    <TTGlyph name="Idieresis" xMin="31" yMin="0" xMax="210" yMax="750">
      <contour>
        <pt x="49" y="660" on="1"/>
        <pt x="192" y="660" on="1"/>
        <pt x="192" y="650" on="1"/>
        <pt x="187" y="650" on="1"/>
        <pt x="180" y="650" on="0"/>
        <pt x="168" y="639" on="0"/>
        <pt x="160" y="624" on="0"/>
        <pt x="155" y="605" on="0"/>
        <pt x="155" y="598" on="1"/>
        <pt x="155" y="65" on="1"/>
        <pt x="155" y="57" on="0"/>
        <pt x="159" y="38" on="0"/>
        <pt x="168" y="22" on="0"/>
        <pt x="179" y="10" on="0"/>
        <pt x="187" y="10" on="1"/>
        <pt x="192" y="10" on="1"/>
        <pt x="192" y="0" on="1"/>
        <pt x="49" y="0" on="1"/>
        <pt x="49" y="10" on="1"/>
        <pt x="54" y="10" on="1"/>
        <pt x="62" y="10" on="0"/>
        <pt x="74" y="21" on="0"/>
        <pt x="83" y="38" on="0"/>
        <pt x="87" y="57" on="0"/>
        <pt x="87" y="65" on="1"/>
        <pt x="87" y="598" on="1"/>
        <pt x="87" y="605" on="0"/>
        <pt x="83" y="623" on="0"/>
        <pt x="74" y="639" on="0"/>
        <pt x="62" y="650" on="0"/>
        <pt x="54" y="650" on="1"/>
        <pt x="49" y="650" on="1"/>
      </contour>
      <contour>
        <pt x="210" y="718" on="1"/>
        <pt x="210" y="704" on="0"/>
        <pt x="192" y="686" on="0"/>
        <pt x="180" y="686" on="1"/>
        <pt x="166" y="686" on="0"/>
        <pt x="147" y="704" on="0"/>
        <pt x="147" y="718" on="1"/>
        <pt x="147" y="732" on="0"/>
        <pt x="166" y="750" on="0"/>
        <pt x="180" y="750" on="1"/>
        <pt x="192" y="750" on="0"/>
        <pt x="210" y="732" on="0"/>
      </contour>
      <contour>
        <pt x="95" y="718" on="1"/>
        <pt x="95" y="704" on="0"/>
        <pt x="77" y="686" on="0"/>
        <pt x="63" y="686" on="1"/>
        <pt x="49" y="686" on="0"/>
        <pt x="31" y="704" on="0"/>
        <pt x="31" y="718" on="1"/>
        <pt x="31" y="732" on="0"/>
        <pt x="49" y="750" on="0"/>
        <pt x="63" y="750" on="1"/>
        <pt x="77" y="750" on="0"/>
        <pt x="95" y="732" on="0"/>
      </contour>
    </TTGlyph>
    <TTGlyph name="Idotaccent" xMin="49" yMin="0" xMax="192" yMax="779">
      <contour>
        <pt x="49" y="660" on="1"/>
        <pt x="192" y="660" on="1"/>
        <pt x="192" y="650" on="1"/>
        <pt x="187" y="650" on="1"/>
        <pt x="180" y="650" on="0"/>
        <pt x="168" y="639" on="0"/>
        <pt x="160" y="624" on="0"/>
        <pt x="155" y="605" on="0"/>
        <pt x="155" y="598" on="1"/>
        <pt x="155" y="65" on="1"/>
        <pt x="155" y="57" on="0"/>
        <pt x="159" y="38" on="0"/>
        <pt x="168" y="22" on="0"/>
        <pt x="179" y="10" on="0"/>
        <pt x="187" y="10" on="1"/>
        <pt x="192" y="10" on="1"/>
        <pt x="192" y="0" on="1"/>
        <pt x="49" y="0" on="1"/>
        <pt x="49" y="10" on="1"/>
        <pt x="54" y="10" on="1"/>
        <pt x="62" y="10" on="0"/>
        <pt x="74" y="21" on="0"/>
        <pt x="83" y="38" on="0"/>
        <pt x="87" y="57" on="0"/>
        <pt x="87" y="65" on="1"/>
        <pt x="87" y="598" on="1"/>
        <pt x="87" y="605" on="0"/>
        <pt x="83" y="623" on="0"/>
        <pt x="74" y="639" on="0"/>
        <pt x="62" y="650" on="0"/>
        <pt x="54" y="650" on="1"/>
        <pt x="49" y="650" on="1"/>
      </contour>
      <contour>
        <pt x="83" y="741" on="1"/>
        <pt x="83" y="758" on="0"/>
        <pt x="104" y="779" on="0"/>
        <pt x="121" y="779" on="1"/>
        <pt x="138" y="779" on="0"/>
        <pt x="160" y="758" on="0"/>
        <pt x="160" y="741" on="1"/>
        <pt x="160" y="724" on="0"/>
        <pt x="138" y="703" on="0"/>
        <pt x="121" y="703" on="1"/>
        <pt x="104" y="703" on="0"/>
        <pt x="83" y="724" on="0"/>
      </contour>
    </TTGlyph>
    <TTGlyph name="Igrave" xMin="37" yMin="0" xMax="205" yMax="795">
      <contour>
        <pt x="49" y="660" on="1"/>
        <pt x="192" y="660" on="1"/>
        <pt x="192" y="650" on="1"/>
        <pt x="187" y="650" on="1"/>
        <pt x="180" y="650" on="0"/>
        <pt x="168" y="639" on="0"/>
        <pt x="160" y="624" on="0"/>
        <pt x="155" y="605" on="0"/>
        <pt x="155" y="598" on="1"/>
        <pt x="155" y="65" on="1"/>
        <pt x="155" y="57" on="0"/>
        <pt x="159" y="38" on="0"/>
        <pt x="168" y="22" on="0"/>
        <pt x="179" y="10" on="0"/>
        <pt x="187" y="10" on="1"/>
        <pt x="192" y="10" on="1"/>
        <pt x="192" y="0" on="1"/>
        <pt x="49" y="0" on="1"/>
        <pt x="49" y="10" on="1"/>
        <pt x="54" y="10" on="1"/>
        <pt x="62" y="10" on="0"/>
        <pt x="74" y="21" on="0"/>
        <pt x="83" y="38" on="0"/>
        <pt x="87" y="57" on="0"/>
        <pt x="87" y="65" on="1"/>
        <pt x="87" y="598" on="1"/>
        <pt x="87" y="605" on="0"/>
        <pt x="83" y="623" on="0"/>
        <pt x="74" y="639" on="0"/>
        <pt x="62" y="650" on="0"/>
        <pt x="54" y="650" on="1"/>
        <pt x="49" y="650" on="1"/>
      </contour>
      <contour>
        <pt x="203" y="682" on="1"/>
        <pt x="37" y="750" on="1"/>
        <pt x="63" y="795" on="1"/>
        <pt x="205" y="688" on="1"/>
      </contour>
    </TTGlyph>
    <TTGlyph name="Imacron" xMin="21" yMin="0" xMax="221" yMax="753">
      <contour>
        <pt x="49" y="660" on="1"/>
        <pt x="192" y="660" on="1"/>
        <pt x="192" y="650" on="1"/>
        <pt x="187" y="650" on="1"/>
        <pt x="180" y="650" on="0"/>
        <pt x="168" y="639" on="0"/>
        <pt x="160" y="624" on="0"/>
        <pt x="155" y="605" on="0"/>
        <pt x="155" y="598" on="1"/>
        <pt x="155" y="65" on="1"/>
        <pt x="155" y="57" on="0"/>
        <pt x="159" y="38" on="0"/>
        <pt x="168" y="22" on="0"/>
        <pt x="179" y="10" on="0"/>
        <pt x="187" y="10" on="1"/>
        <pt x="192" y="10" on="1"/>
        <pt x="192" y="0" on="1"/>
        <pt x="49" y="0" on="1"/>
        <pt x="49" y="10" on="1"/>
        <pt x="54" y="10" on="1"/>
        <pt x="62" y="10" on="0"/>
        <pt x="74" y="21" on="0"/>
        <pt x="83" y="38" on="0"/>
        <pt x="87" y="57" on="0"/>
        <pt x="87" y="65" on="1"/>
        <pt x="87" y="598" on="1"/>
        <pt x="87" y="605" on="0"/>
        <pt x="83" y="623" on="0"/>
        <pt x="74" y="639" on="0"/>
        <pt x="62" y="650" on="0"/>
        <pt x="54" y="650" on="1"/>
        <pt x="49" y="650" on="1"/>
      </contour>
      <contour>
        <pt x="21" y="753" on="1"/>
        <pt x="221" y="753" on="1"/>
        <pt x="221" y="713" on="1"/>
        <pt x="21" y="713" on="1"/>
      </contour>
    </TTGlyph>
    <TTGlyph name="Iogonek" xMin="43" yMin="-139" xMax="201" yMax="660">
      <contour>
        <pt x="49" y="10" on="1"/>
        <pt x="54" y="10" on="1"/>
        <pt x="62" y="10" on="0"/>
        <pt x="74" y="21" on="0"/>
        <pt x="83" y="38" on="0"/>
        <pt x="87" y="57" on="0"/>
        <pt x="87" y="65" on="1"/>
        <pt x="87" y="598" on="1"/>
        <pt x="87" y="605" on="0"/>
        <pt x="83" y="623" on="0"/>
        <pt x="74" y="639" on="0"/>
        <pt x="62" y="650" on="0"/>
        <pt x="54" y="650" on="1"/>
        <pt x="49" y="650" on="1"/>
        <pt x="49" y="660" on="1"/>
        <pt x="192" y="660" on="1"/>
        <pt x="192" y="650" on="1"/>
        <pt x="187" y="650" on="1"/>
        <pt x="180" y="650" on="0"/>
        <pt x="168" y="639" on="0"/>
        <pt x="160" y="624" on="0"/>
        <pt x="155" y="605" on="0"/>
        <pt x="155" y="598" on="1"/>
        <pt x="155" y="65" on="1"/>
        <pt x="155" y="57" on="0"/>
        <pt x="159" y="38" on="0"/>
        <pt x="168" y="22" on="0"/>
        <pt x="179" y="10" on="0"/>
        <pt x="187" y="10" on="1"/>
        <pt x="192" y="10" on="1"/>
        <pt x="192" y="0" on="1"/>
        <pt x="134" y="0" on="1"/>
        <pt x="117" y="-15" on="0"/>
        <pt x="91" y="-56" on="0"/>
        <pt x="91" y="-76" on="1"/>
        <pt x="91" y="-95" on="0"/>
        <pt x="120" y="-125" on="0"/>
        <pt x="158" y="-125" on="1"/>
        <pt x="181" y="-125" on="0"/>
        <pt x="199" y="-118" on="1"/>
        <pt x="201" y="-123" on="1"/>
        <pt x="188" y="-131" on="0"/>
        <pt x="150" y="-139" on="0"/>
        <pt x="129" y="-139" on="1"/>
        <pt x="84" y="-139" on="0"/>
        <pt x="43" y="-106" on="0"/>
        <pt x="43" y="-83" on="1"/>
        <pt x="43" y="-59" on="0"/>
        <pt x="78" y="-15" on="0"/>
        <pt x="101" y="0" on="1"/>
        <pt x="49" y="0" on="1"/>
      </contour>
    </TTGlyph>
    <TTGlyph name="Itilde" xMin="7" yMin="0" xMax="235" yMax="772">
      <contour>
        <pt x="49" y="660" on="1"/>
        <pt x="192" y="660" on="1"/>
        <pt x="192" y="650" on="1"/>
        <pt x="187" y="650" on="1"/>
        <pt x="180" y="650" on="0"/>
        <pt x="168" y="639" on="0"/>
        <pt x="160" y="624" on="0"/>
        <pt x="155" y="605" on="0"/>
        <pt x="155" y="598" on="1"/>
        <pt x="155" y="65" on="1"/>
        <pt x="155" y="57" on="0"/>
        <pt x="159" y="38" on="0"/>
        <pt x="168" y="22" on="0"/>
        <pt x="179" y="10" on="0"/>
        <pt x="187" y="10" on="1"/>
        <pt x="192" y="10" on="1"/>
        <pt x="192" y="0" on="1"/>
        <pt x="49" y="0" on="1"/>
        <pt x="49" y="10" on="1"/>
        <pt x="54" y="10" on="1"/>
        <pt x="62" y="10" on="0"/>
        <pt x="74" y="21" on="0"/>
        <pt x="83" y="38" on="0"/>
        <pt x="87" y="57" on="0"/>
        <pt x="87" y="65" on="1"/>
        <pt x="87" y="598" on="1"/>
        <pt x="87" y="605" on="0"/>
        <pt x="83" y="623" on="0"/>
        <pt x="74" y="639" on="0"/>
        <pt x="62" y="650" on="0"/>
        <pt x="54" y="650" on="1"/>
        <pt x="49" y="650" on="1"/>
      </contour>
      <contour>
        <pt x="235" y="767" on="1"/>
        <pt x="223" y="722" on="0"/>
        <pt x="200" y="694" on="0"/>
        <pt x="179" y="694" on="1"/>
        <pt x="167" y="694" on="0"/>
        <pt x="137" y="706" on="0"/>
        <pt x="105" y="721" on="0"/>
        <pt x="74" y="734" on="0"/>
        <pt x="61" y="734" on="1"/>
        <pt x="46" y="734" on="0"/>
        <pt x="25" y="712" on="0"/>
        <pt x="12" y="694" on="1"/>
        <pt x="7" y="695" on="1"/>
        <pt x="21" y="737" on="0"/>
        <pt x="58" y="772" on="0"/>
        <pt x="78" y="772" on="1"/>
        <pt x="90" y="772" on="0"/>
        <pt x="118" y="760" on="0"/>
        <pt x="145" y="745" on="0"/>
        <pt x="173" y="733" on="0"/>
        <pt x="185" y="733" on="1"/>
        <pt x="201" y="733" on="0"/>
        <pt x="223" y="754" on="0"/>
        <pt x="231" y="768" on="1"/>
      </contour>
    </TTGlyph>
    <TTGlyph name="J" xMin="-13" yMin="-210" xMax="219" yMax="660">
      <contour>
        <pt x="75" y="660" on="1"/>
        <pt x="219" y="660" on="1"/>
        <pt x="219" y="650" on="1"/>
        <pt x="214" y="650" on="1"/>
        <pt x="206" y="650" on="0"/>
        <pt x="194" y="639" on="0"/>
        <pt x="185" y="622" on="0"/>
        <pt x="180" y="604" on="0"/>
        <pt x="180" y="597" on="1"/>
        <pt x="180" y="40" on="1"/>
        <pt x="180" y="8" on="0"/>
        <pt x="164" y="-46" on="0"/>
        <pt x="137" y="-93" on="0"/>
        <pt x="104" y="-132" on="0"/>
        <pt x="86" y="-148" on="1"/>
        <pt x="45" y="-185" on="0"/>
        <pt x="-8" y="-210" on="1"/>
        <pt x="-13" y="-202" on="1"/>
        <pt x="22" y="-177" on="0"/>
        <pt x="49" y="-143" on="1"/>
        <pt x="72" y="-114" on="0"/>
        <pt x="112" y="-30" on="0"/>
        <pt x="112" y="25" on="1"/>
        <pt x="112" y="597" on="1"/>
        <pt x="112" y="604" on="0"/>
        <pt x="108" y="622" on="0"/>
        <pt x="99" y="639" on="0"/>
        <pt x="87" y="650" on="0"/>
        <pt x="80" y="650" on="1"/>
        <pt x="75" y="650" on="1"/>
      </contour>
    </TTGlyph>
    <TTGlyph name="Jcircumflex" xMin="-13" yMin="-210" xMax="266" yMax="793">
      <contour>
        <pt x="75" y="660" on="1"/>
        <pt x="219" y="660" on="1"/>
        <pt x="219" y="650" on="1"/>
        <pt x="214" y="650" on="1"/>
        <pt x="206" y="650" on="0"/>
        <pt x="194" y="639" on="0"/>
        <pt x="185" y="622" on="0"/>
        <pt x="180" y="604" on="0"/>
        <pt x="180" y="597" on="1"/>
        <pt x="180" y="40" on="1"/>
        <pt x="180" y="8" on="0"/>
        <pt x="164" y="-46" on="0"/>
        <pt x="137" y="-93" on="0"/>
        <pt x="104" y="-132" on="0"/>
        <pt x="86" y="-148" on="1"/>
        <pt x="45" y="-185" on="0"/>
        <pt x="-8" y="-210" on="1"/>
        <pt x="-13" y="-202" on="1"/>
        <pt x="22" y="-177" on="0"/>
        <pt x="49" y="-143" on="1"/>
        <pt x="72" y="-114" on="0"/>
        <pt x="112" y="-30" on="0"/>
        <pt x="112" y="25" on="1"/>
        <pt x="112" y="597" on="1"/>
        <pt x="112" y="604" on="0"/>
        <pt x="108" y="622" on="0"/>
        <pt x="99" y="639" on="0"/>
        <pt x="87" y="650" on="0"/>
        <pt x="80" y="650" on="1"/>
        <pt x="75" y="650" on="1"/>
      </contour>
      <contour>
        <pt x="265" y="685" on="1"/>
        <pt x="144" y="744" on="1"/>
        <pt x="24" y="685" on="1"/>
        <pt x="22" y="690" on="1"/>
        <pt x="144" y="793" on="1"/>
        <pt x="266" y="690" on="1"/>
      </contour>
    </TTGlyph>
    <TTGlyph name="K" xMin="45" yMin="0" xMax="546" yMax="660">
      <contour>
        <pt x="183" y="10" on="1"/>
        <pt x="188" y="10" on="1"/>
        <pt x="188" y="0" on="1"/>
        <pt x="45" y="0" on="1"/>
        <pt x="45" y="10" on="1"/>
        <pt x="50" y="10" on="1"/>
        <pt x="58" y="10" on="0"/>
        <pt x="70" y="22" on="0"/>
        <pt x="79" y="38" on="0"/>
        <pt x="83" y="57" on="0"/>
        <pt x="83" y="65" on="1"/>
        <pt x="83" y="598" on="1"/>
        <pt x="83" y="605" on="0"/>
        <pt x="79" y="623" on="0"/>
        <pt x="70" y="639" on="0"/>
        <pt x="58" y="650" on="0"/>
        <pt x="51" y="650" on="1"/>
        <pt x="46" y="650" on="1"/>
        <pt x="46" y="660" on="1"/>
        <pt x="189" y="660" on="1"/>
        <pt x="189" y="650" on="1"/>
        <pt x="184" y="650" on="1"/>
        <pt x="176" y="650" on="0"/>
        <pt x="164" y="639" on="0"/>
        <pt x="155" y="623" on="0"/>
        <pt x="150" y="605" on="0"/>
        <pt x="150" y="598" on="1"/>
        <pt x="150" y="366" on="1"/>
        <pt x="404" y="618" on="1"/>
        <pt x="410" y="625" on="0"/>
        <pt x="410" y="634" on="1"/>
        <pt x="410" y="650" on="0"/>
        <pt x="398" y="650" on="1"/>
        <pt x="393" y="650" on="1"/>
        <pt x="393" y="660" on="1"/>
        <pt x="515" y="660" on="1"/>
        <pt x="515" y="650" on="1"/>
        <pt x="510" y="650" on="1"/>
        <pt x="496" y="650" on="0"/>
        <pt x="466" y="630" on="0"/>
        <pt x="451" y="615" on="1"/>
        <pt x="241" y="406" on="1"/>
        <pt x="462" y="71" on="1"/>
        <pt x="463" y="69" on="0"/>
        <pt x="479" y="49" on="0"/>
        <pt x="502" y="27" on="0"/>
        <pt x="531" y="10" on="0"/>
        <pt x="546" y="10" on="1"/>
        <pt x="546" y="0" on="1"/>
        <pt x="522" y="0" on="1"/>
        <pt x="492" y="0" on="0"/>
        <pt x="451" y="7" on="0"/>
        <pt x="421" y="23" on="0"/>
        <pt x="398" y="47" on="0"/>
        <pt x="386" y="65" on="1"/>
        <pt x="192" y="358" on="1"/>
        <pt x="150" y="315" on="1"/>
        <pt x="150" y="65" on="1"/>
        <pt x="150" y="57" on="0"/>
        <pt x="155" y="39" on="0"/>
        <pt x="163" y="22" on="0"/>
        <pt x="175" y="10" on="0"/>
      </contour>
    </TTGlyph>
    <TTGlyph name="L" xMin="45" yMin="0" xMax="455" yMax="660">
      <contour>
        <pt x="45" y="10" on="1"/>
        <pt x="50" y="10" on="1"/>
        <pt x="58" y="10" on="0"/>
        <pt x="70" y="21" on="0"/>
        <pt x="79" y="37" on="0"/>
        <pt x="84" y="55" on="0"/>
        <pt x="84" y="63" on="1"/>
        <pt x="84" y="598" on="1"/>
        <pt x="84" y="605" on="0"/>
        <pt x="79" y="623" on="0"/>
        <pt x="70" y="639" on="0"/>
        <pt x="58" y="650" on="0"/>
        <pt x="50" y="650" on="1"/>
        <pt x="45" y="650" on="1"/>
        <pt x="45" y="660" on="1"/>
        <pt x="189" y="660" on="1"/>
        <pt x="189" y="650" on="1"/>
        <pt x="184" y="650" on="1"/>
        <pt x="176" y="650" on="0"/>
        <pt x="164" y="639" on="0"/>
        <pt x="156" y="623" on="0"/>
        <pt x="151" y="605" on="0"/>
        <pt x="151" y="598" on="1"/>
        <pt x="151" y="37" on="1"/>
        <pt x="370" y="37" on="1"/>
        <pt x="389" y="37" on="0"/>
        <pt x="417" y="55" on="0"/>
        <pt x="436" y="82" on="0"/>
        <pt x="445" y="113" on="0"/>
        <pt x="445" y="126" on="1"/>
        <pt x="455" y="126" on="1"/>
        <pt x="455" y="0" on="1"/>
        <pt x="45" y="0" on="1"/>
      </contour>
    </TTGlyph>
    <TTGlyph name="Lacute" xMin="34" yMin="0" xMax="455" yMax="795">
      <contour>
        <pt x="45" y="10" on="1"/>
        <pt x="50" y="10" on="1"/>
        <pt x="58" y="10" on="0"/>
        <pt x="70" y="21" on="0"/>
        <pt x="79" y="37" on="0"/>
        <pt x="84" y="55" on="0"/>
        <pt x="84" y="63" on="1"/>
        <pt x="84" y="598" on="1"/>
        <pt x="84" y="605" on="0"/>
        <pt x="79" y="623" on="0"/>
        <pt x="70" y="639" on="0"/>
        <pt x="58" y="650" on="0"/>
        <pt x="50" y="650" on="1"/>
        <pt x="45" y="650" on="1"/>
        <pt x="45" y="660" on="1"/>
        <pt x="189" y="660" on="1"/>
        <pt x="189" y="650" on="1"/>
        <pt x="184" y="650" on="1"/>
        <pt x="176" y="650" on="0"/>
        <pt x="164" y="639" on="0"/>
        <pt x="156" y="623" on="0"/>
        <pt x="151" y="605" on="0"/>
        <pt x="151" y="598" on="1"/>
        <pt x="151" y="37" on="1"/>
        <pt x="370" y="37" on="1"/>
        <pt x="389" y="37" on="0"/>
        <pt x="417" y="55" on="0"/>
        <pt x="436" y="82" on="0"/>
        <pt x="445" y="113" on="0"/>
        <pt x="445" y="126" on="1"/>
        <pt x="455" y="126" on="1"/>
        <pt x="455" y="0" on="1"/>
        <pt x="45" y="0" on="1"/>
      </contour>
      <contour>
        <pt x="34" y="688" on="1"/>
        <pt x="176" y="795" on="1"/>
        <pt x="202" y="750" on="1"/>
        <pt x="37" y="682" on="1"/>
      </contour>
    </TTGlyph>
    <TTGlyph name="Lcaron" xMin="45" yMin="0" xMax="455" yMax="660">
      <contour>
        <pt x="45" y="10" on="1"/>
        <pt x="50" y="10" on="1"/>
        <pt x="58" y="10" on="0"/>
        <pt x="70" y="21" on="0"/>
        <pt x="79" y="37" on="0"/>
        <pt x="84" y="55" on="0"/>
        <pt x="84" y="63" on="1"/>
        <pt x="84" y="598" on="1"/>
        <pt x="84" y="605" on="0"/>
        <pt x="79" y="623" on="0"/>
        <pt x="70" y="639" on="0"/>
        <pt x="58" y="650" on="0"/>
        <pt x="50" y="650" on="1"/>
        <pt x="45" y="650" on="1"/>
        <pt x="45" y="660" on="1"/>
        <pt x="189" y="660" on="1"/>
        <pt x="189" y="650" on="1"/>
        <pt x="184" y="650" on="1"/>
        <pt x="176" y="650" on="0"/>
        <pt x="164" y="639" on="0"/>
        <pt x="156" y="623" on="0"/>
        <pt x="151" y="605" on="0"/>
        <pt x="151" y="598" on="1"/>
        <pt x="151" y="37" on="1"/>
        <pt x="370" y="37" on="1"/>
        <pt x="389" y="37" on="0"/>
        <pt x="417" y="55" on="0"/>
        <pt x="436" y="82" on="0"/>
        <pt x="445" y="113" on="0"/>
        <pt x="445" y="126" on="1"/>
        <pt x="455" y="126" on="1"/>
        <pt x="455" y="0" on="1"/>
        <pt x="45" y="0" on="1"/>
      </contour>
      <contour>
        <pt x="234" y="659" on="1"/>
        <pt x="263" y="659" on="0"/>
        <pt x="290" y="620" on="0"/>
        <pt x="290" y="594" on="1"/>
        <pt x="290" y="578" on="0"/>
        <pt x="282" y="542" on="0"/>
        <pt x="259" y="504" on="0"/>
        <pt x="216" y="467" on="0"/>
        <pt x="181" y="451" on="1"/>
        <pt x="175" y="460" on="1"/>
        <pt x="195" y="479" on="0"/>
        <pt x="218" y="507" on="0"/>
        <pt x="230" y="530" on="0"/>
        <pt x="233" y="550" on="0"/>
        <pt x="233" y="561" on="1"/>
        <pt x="233" y="569" on="0"/>
        <pt x="224" y="577" on="0"/>
        <pt x="217" y="581" on="1"/>
        <pt x="209" y="586" on="0"/>
        <pt x="193" y="599" on="0"/>
        <pt x="193" y="616" on="1"/>
        <pt x="193" y="635" on="0"/>
        <pt x="217" y="659" on="0"/>
      </contour>
    </TTGlyph>
    <TTGlyph name="Ldot" xMin="45" yMin="0" xMax="455" yMax="660">
      <contour>
        <pt x="45" y="10" on="1"/>
        <pt x="50" y="10" on="1"/>
        <pt x="58" y="10" on="0"/>
        <pt x="70" y="21" on="0"/>
        <pt x="79" y="37" on="0"/>
        <pt x="84" y="55" on="0"/>
        <pt x="84" y="63" on="1"/>
        <pt x="84" y="598" on="1"/>
        <pt x="84" y="605" on="0"/>
        <pt x="79" y="623" on="0"/>
        <pt x="70" y="639" on="0"/>
        <pt x="58" y="650" on="0"/>
        <pt x="50" y="650" on="1"/>
        <pt x="45" y="650" on="1"/>
        <pt x="45" y="660" on="1"/>
        <pt x="189" y="660" on="1"/>
        <pt x="189" y="650" on="1"/>
        <pt x="184" y="650" on="1"/>
        <pt x="176" y="650" on="0"/>
        <pt x="164" y="639" on="0"/>
        <pt x="156" y="623" on="0"/>
        <pt x="151" y="605" on="0"/>
        <pt x="151" y="598" on="1"/>
        <pt x="151" y="37" on="1"/>
        <pt x="370" y="37" on="1"/>
        <pt x="389" y="37" on="0"/>
        <pt x="417" y="55" on="0"/>
        <pt x="436" y="82" on="0"/>
        <pt x="445" y="113" on="0"/>
        <pt x="445" y="126" on="1"/>
        <pt x="455" y="126" on="1"/>
        <pt x="455" y="0" on="1"/>
        <pt x="45" y="0" on="1"/>
      </contour>
      <contour>
        <pt x="185" y="192" on="1"/>
        <pt x="185" y="212" on="0"/>
        <pt x="212" y="240" on="0"/>
        <pt x="232" y="240" on="1"/>
        <pt x="252" y="240" on="0"/>
        <pt x="280" y="212" on="0"/>
        <pt x="280" y="192" on="1"/>
        <pt x="280" y="172" on="0"/>
        <pt x="252" y="145" on="0"/>
        <pt x="232" y="145" on="1"/>
        <pt x="212" y="145" on="0"/>
        <pt x="185" y="172" on="0"/>
      </contour>
    </TTGlyph>
    <TTGlyph name="Lslash" xMin="26" yMin="0" xMax="455" yMax="660">
      <contour>
        <pt x="45" y="660" on="1"/>
        <pt x="189" y="660" on="1"/>
        <pt x="189" y="650" on="1"/>
        <pt x="184" y="650" on="1"/>
        <pt x="176" y="650" on="0"/>
        <pt x="164" y="639" on="0"/>
        <pt x="156" y="623" on="0"/>
        <pt x="151" y="605" on="0"/>
        <pt x="151" y="598" on="1"/>
        <pt x="151" y="254" on="1"/>
        <pt x="172" y="270" on="0"/>
        <pt x="220" y="303" on="0"/>
        <pt x="241" y="319" on="1"/>
        <pt x="263" y="289" on="1"/>
        <pt x="151" y="208" on="1"/>
        <pt x="151" y="37" on="1"/>
        <pt x="370" y="37" on="1"/>
        <pt x="389" y="37" on="0"/>
        <pt x="417" y="55" on="0"/>
        <pt x="436" y="82" on="0"/>
        <pt x="445" y="113" on="0"/>
        <pt x="445" y="126" on="1"/>
        <pt x="455" y="126" on="1"/>
        <pt x="455" y="0" on="1"/>
        <pt x="45" y="0" on="1"/>
        <pt x="45" y="10" on="1"/>
        <pt x="50" y="10" on="1"/>
        <pt x="58" y="10" on="0"/>
        <pt x="70" y="21" on="0"/>
        <pt x="79" y="37" on="0"/>
        <pt x="84" y="55" on="0"/>
        <pt x="84" y="63" on="1"/>
        <pt x="84" y="161" on="1"/>
        <pt x="75" y="155" on="0"/>
        <pt x="58" y="141" on="0"/>
        <pt x="49" y="135" on="1"/>
        <pt x="26" y="165" on="1"/>
        <pt x="84" y="206" on="1"/>
        <pt x="84" y="598" on="1"/>
        <pt x="84" y="605" on="0"/>
        <pt x="79" y="623" on="0"/>
        <pt x="70" y="639" on="0"/>
        <pt x="58" y="650" on="0"/>
        <pt x="50" y="650" on="1"/>
        <pt x="45" y="650" on="1"/>
      </contour>
    </TTGlyph>
    <TTGlyph name="M" xMin="46" yMin="-11" xMax="725" yMax="660">
      <contour>
        <pt x="583" y="10" on="1"/>
        <pt x="588" y="10" on="1"/>
        <pt x="595" y="10" on="0"/>
        <pt x="607" y="22" on="0"/>
        <pt x="616" y="38" on="0"/>
        <pt x="620" y="57" on="0"/>
        <pt x="620" y="65" on="1"/>
        <pt x="620" y="591" on="1"/>
        <pt x="362" y="-11" on="1"/>
        <pt x="117" y="560" on="1"/>
        <pt x="117" y="65" on="1"/>
        <pt x="117" y="57" on="0"/>
        <pt x="121" y="38" on="0"/>
        <pt x="130" y="22" on="0"/>
        <pt x="142" y="10" on="0"/>
        <pt x="150" y="10" on="1"/>
        <pt x="155" y="10" on="1"/>
        <pt x="155" y="0" on="1"/>
        <pt x="46" y="0" on="1"/>
        <pt x="46" y="10" on="1"/>
        <pt x="51" y="10" on="1"/>
        <pt x="58" y="10" on="0"/>
        <pt x="70" y="22" on="0"/>
        <pt x="78" y="38" on="0"/>
        <pt x="82" y="57" on="0"/>
        <pt x="82" y="65" on="1"/>
        <pt x="82" y="598" on="1"/>
        <pt x="82" y="605" on="0"/>
        <pt x="78" y="623" on="0"/>
        <pt x="70" y="639" on="0"/>
        <pt x="58" y="650" on="0"/>
        <pt x="51" y="650" on="1"/>
        <pt x="46" y="650" on="1"/>
        <pt x="46" y="660" on="1"/>
        <pt x="148" y="660" on="1"/>
        <pt x="380" y="113" on="1"/>
        <pt x="612" y="660" on="1"/>
        <pt x="725" y="660" on="1"/>
        <pt x="725" y="650" on="1"/>
        <pt x="720" y="650" on="1"/>
        <pt x="712" y="650" on="0"/>
        <pt x="700" y="639" on="0"/>
        <pt x="691" y="623" on="0"/>
        <pt x="687" y="605" on="0"/>
        <pt x="687" y="598" on="1"/>
        <pt x="687" y="65" on="1"/>
        <pt x="687" y="57" on="0"/>
        <pt x="691" y="38" on="0"/>
        <pt x="700" y="22" on="0"/>
        <pt x="712" y="10" on="0"/>
        <pt x="720" y="10" on="1"/>
        <pt x="725" y="10" on="1"/>
        <pt x="725" y="0" on="1"/>
        <pt x="583" y="0" on="1"/>
      </contour>
    </TTGlyph>
    <TTGlyph name="N" xMin="42" yMin="0" xMax="579" yMax="660">
      <contour>
        <pt x="150" y="10" on="1"/>
        <pt x="155" y="10" on="1"/>
        <pt x="155" y="0" on="1"/>
        <pt x="44" y="0" on="1"/>
        <pt x="44" y="10" on="1"/>
        <pt x="49" y="10" on="1"/>
        <pt x="56" y="10" on="0"/>
        <pt x="69" y="22" on="0"/>
        <pt x="77" y="38" on="0"/>
        <pt x="82" y="57" on="0"/>
        <pt x="82" y="65" on="1"/>
        <pt x="82" y="598" on="1"/>
        <pt x="82" y="605" on="0"/>
        <pt x="79" y="623" on="0"/>
        <pt x="71" y="639" on="0"/>
        <pt x="57" y="650" on="0"/>
        <pt x="47" y="650" on="1"/>
        <pt x="42" y="650" on="1"/>
        <pt x="42" y="660" on="1"/>
        <pt x="143" y="660" on="1"/>
        <pt x="506" y="88" on="1"/>
        <pt x="506" y="598" on="1"/>
        <pt x="506" y="605" on="0"/>
        <pt x="501" y="623" on="0"/>
        <pt x="492" y="639" on="0"/>
        <pt x="480" y="650" on="0"/>
        <pt x="472" y="650" on="1"/>
        <pt x="467" y="650" on="1"/>
        <pt x="467" y="660" on="1"/>
        <pt x="579" y="660" on="1"/>
        <pt x="579" y="650" on="1"/>
        <pt x="574" y="650" on="1"/>
        <pt x="566" y="650" on="0"/>
        <pt x="554" y="639" on="0"/>
        <pt x="545" y="623" on="0"/>
        <pt x="541" y="605" on="0"/>
        <pt x="541" y="598" on="1"/>
        <pt x="541" y="0" on="1"/>
        <pt x="479" y="0" on="1"/>
        <pt x="117" y="574" on="1"/>
        <pt x="117" y="65" on="1"/>
        <pt x="117" y="57" on="0"/>
        <pt x="121" y="38" on="0"/>
        <pt x="130" y="22" on="0"/>
        <pt x="142" y="10" on="0"/>
      </contour>
    </TTGlyph>
    <TTGlyph name="Nacute" xMin="42" yMin="0" xMax="579" yMax="795">
      <contour>
        <pt x="150" y="10" on="1"/>
        <pt x="155" y="10" on="1"/>
        <pt x="155" y="0" on="1"/>
        <pt x="44" y="0" on="1"/>
        <pt x="44" y="10" on="1"/>
        <pt x="49" y="10" on="1"/>
        <pt x="56" y="10" on="0"/>
        <pt x="69" y="22" on="0"/>
        <pt x="77" y="38" on="0"/>
        <pt x="82" y="57" on="0"/>
        <pt x="82" y="65" on="1"/>
        <pt x="82" y="598" on="1"/>
        <pt x="82" y="605" on="0"/>
        <pt x="79" y="623" on="0"/>
        <pt x="71" y="639" on="0"/>
        <pt x="57" y="650" on="0"/>
        <pt x="47" y="650" on="1"/>
        <pt x="42" y="650" on="1"/>
        <pt x="42" y="660" on="1"/>
        <pt x="143" y="660" on="1"/>
        <pt x="506" y="88" on="1"/>
        <pt x="506" y="598" on="1"/>
        <pt x="506" y="605" on="0"/>
        <pt x="501" y="623" on="0"/>
        <pt x="492" y="639" on="0"/>
        <pt x="480" y="650" on="0"/>
        <pt x="472" y="650" on="1"/>
        <pt x="467" y="650" on="1"/>
        <pt x="467" y="660" on="1"/>
        <pt x="579" y="660" on="1"/>
        <pt x="579" y="650" on="1"/>
        <pt x="574" y="650" on="1"/>
        <pt x="566" y="650" on="0"/>
        <pt x="554" y="639" on="0"/>
        <pt x="545" y="623" on="0"/>
        <pt x="541" y="605" on="0"/>
        <pt x="541" y="598" on="1"/>
        <pt x="541" y="0" on="1"/>
        <pt x="479" y="0" on="1"/>
        <pt x="117" y="574" on="1"/>
        <pt x="117" y="65" on="1"/>
        <pt x="117" y="57" on="0"/>
        <pt x="121" y="38" on="0"/>
        <pt x="130" y="22" on="0"/>
        <pt x="142" y="10" on="0"/>
      </contour>
      <contour>
        <pt x="229" y="688" on="1"/>
        <pt x="371" y="795" on="1"/>
        <pt x="397" y="750" on="1"/>
        <pt x="232" y="682" on="1"/>
      </contour>
    </TTGlyph>
    <TTGlyph name="Ncaron" xMin="42" yMin="0" xMax="579" yMax="790">
      <contour>
        <pt x="150" y="10" on="1"/>
        <pt x="155" y="10" on="1"/>
        <pt x="155" y="0" on="1"/>
        <pt x="44" y="0" on="1"/>
        <pt x="44" y="10" on="1"/>
        <pt x="49" y="10" on="1"/>
        <pt x="56" y="10" on="0"/>
        <pt x="69" y="22" on="0"/>
        <pt x="77" y="38" on="0"/>
        <pt x="82" y="57" on="0"/>
        <pt x="82" y="65" on="1"/>
        <pt x="82" y="598" on="1"/>
        <pt x="82" y="605" on="0"/>
        <pt x="79" y="623" on="0"/>
        <pt x="71" y="639" on="0"/>
        <pt x="57" y="650" on="0"/>
        <pt x="47" y="650" on="1"/>
        <pt x="42" y="650" on="1"/>
        <pt x="42" y="660" on="1"/>
        <pt x="143" y="660" on="1"/>
        <pt x="506" y="88" on="1"/>
        <pt x="506" y="598" on="1"/>
        <pt x="506" y="605" on="0"/>
        <pt x="501" y="623" on="0"/>
        <pt x="492" y="639" on="0"/>
        <pt x="480" y="650" on="0"/>
        <pt x="472" y="650" on="1"/>
        <pt x="467" y="650" on="1"/>
        <pt x="467" y="660" on="1"/>
        <pt x="579" y="660" on="1"/>
        <pt x="579" y="650" on="1"/>
        <pt x="574" y="650" on="1"/>
        <pt x="566" y="650" on="0"/>
        <pt x="554" y="639" on="0"/>
        <pt x="545" y="623" on="0"/>
        <pt x="541" y="605" on="0"/>
        <pt x="541" y="598" on="1"/>
        <pt x="541" y="0" on="1"/>
        <pt x="479" y="0" on="1"/>
        <pt x="117" y="574" on="1"/>
        <pt x="117" y="65" on="1"/>
        <pt x="117" y="57" on="0"/>
        <pt x="121" y="38" on="0"/>
        <pt x="130" y="22" on="0"/>
        <pt x="142" y="10" on="0"/>
      </contour>
      <contour>
        <pt x="193" y="790" on="1"/>
        <pt x="314" y="733" on="1"/>
        <pt x="433" y="790" on="1"/>
        <pt x="435" y="786" on="1"/>
        <pt x="314" y="682" on="1"/>
        <pt x="190" y="786" on="1"/>
      </contour>
    </TTGlyph>
    <TTGlyph name="Ntilde" xMin="42" yMin="0" xMax="579" yMax="772">
      <contour>
        <pt x="150" y="10" on="1"/>
        <pt x="155" y="10" on="1"/>
        <pt x="155" y="0" on="1"/>
        <pt x="44" y="0" on="1"/>
        <pt x="44" y="10" on="1"/>
        <pt x="49" y="10" on="1"/>
        <pt x="56" y="10" on="0"/>
        <pt x="69" y="22" on="0"/>
        <pt x="77" y="38" on="0"/>
        <pt x="82" y="57" on="0"/>
        <pt x="82" y="65" on="1"/>
        <pt x="82" y="598" on="1"/>
        <pt x="82" y="605" on="0"/>
        <pt x="79" y="623" on="0"/>
        <pt x="71" y="639" on="0"/>
        <pt x="57" y="650" on="0"/>
        <pt x="47" y="650" on="1"/>
        <pt x="42" y="650" on="1"/>
        <pt x="42" y="660" on="1"/>
        <pt x="143" y="660" on="1"/>
        <pt x="506" y="88" on="1"/>
        <pt x="506" y="598" on="1"/>
        <pt x="506" y="605" on="0"/>
        <pt x="501" y="623" on="0"/>
        <pt x="492" y="639" on="0"/>
        <pt x="480" y="650" on="0"/>
        <pt x="472" y="650" on="1"/>
        <pt x="467" y="650" on="1"/>
        <pt x="467" y="660" on="1"/>
        <pt x="579" y="660" on="1"/>
        <pt x="579" y="650" on="1"/>
        <pt x="574" y="650" on="1"/>
        <pt x="566" y="650" on="0"/>
        <pt x="554" y="639" on="0"/>
        <pt x="545" y="623" on="0"/>
        <pt x="541" y="605" on="0"/>
        <pt x="541" y="598" on="1"/>
        <pt x="541" y="0" on="1"/>
        <pt x="479" y="0" on="1"/>
        <pt x="117" y="574" on="1"/>
        <pt x="117" y="65" on="1"/>
        <pt x="117" y="57" on="0"/>
        <pt x="121" y="38" on="0"/>
        <pt x="130" y="22" on="0"/>
        <pt x="142" y="10" on="0"/>
      </contour>
      <contour>
        <pt x="427" y="767" on="1"/>
        <pt x="415" y="722" on="0"/>
        <pt x="392" y="694" on="0"/>
        <pt x="371" y="694" on="1"/>
        <pt x="359" y="694" on="0"/>
        <pt x="329" y="706" on="0"/>
        <pt x="297" y="721" on="0"/>
        <pt x="266" y="734" on="0"/>
        <pt x="253" y="734" on="1"/>
        <pt x="238" y="734" on="0"/>
        <pt x="217" y="712" on="0"/>
        <pt x="204" y="694" on="1"/>
        <pt x="199" y="695" on="1"/>
        <pt x="213" y="737" on="0"/>
        <pt x="250" y="772" on="0"/>
        <pt x="270" y="772" on="1"/>
        <pt x="282" y="772" on="0"/>
        <pt x="310" y="760" on="0"/>
        <pt x="337" y="745" on="0"/>
        <pt x="365" y="733" on="0"/>
        <pt x="377" y="733" on="1"/>
        <pt x="393" y="733" on="0"/>
        <pt x="415" y="754" on="0"/>
        <pt x="423" y="768" on="1"/>
      </contour>
    </TTGlyph>
    <TTGlyph name="O" xMin="37" yMin="-10" xMax="718" yMax="670">
      <contour>
        <pt x="382" y="670" on="1"/>
        <pt x="460" y="670" on="0"/>
        <pt x="584" y="615" on="0"/>
        <pt x="671" y="522" on="0"/>
        <pt x="718" y="399" on="0"/>
        <pt x="718" y="332" on="1"/>
        <pt x="718" y="257" on="0"/>
        <pt x="663" y="131" on="0"/>
        <pt x="567" y="41" on="0"/>
        <pt x="440" y="-10" on="0"/>
        <pt x="368" y="-10" on="1"/>
        <pt x="291" y="-10" on="0"/>
        <pt x="168" y="46" on="0"/>
        <pt x="83" y="138" on="0"/>
        <pt x="37" y="258" on="0"/>
        <pt x="37" y="323" on="1"/>
        <pt x="37" y="387" on="0"/>
        <pt x="83" y="512" on="0"/>
        <pt x="172" y="610" on="0"/>
        <pt x="300" y="670" on="0"/>
      </contour>
      <contour>
        <pt x="381" y="25" on="1"/>
        <pt x="448" y="28" on="0"/>
        <pt x="549" y="83" on="0"/>
        <pt x="617" y="168" on="0"/>
        <pt x="650" y="270" on="0"/>
        <pt x="650" y="320" on="1"/>
        <pt x="650" y="375" on="0"/>
        <pt x="610" y="487" on="0"/>
        <pt x="536" y="578" on="0"/>
        <pt x="433" y="635" on="0"/>
        <pt x="369" y="635" on="1"/>
        <pt x="307" y="635" on="0"/>
        <pt x="209" y="580" on="0"/>
        <pt x="140" y="494" on="0"/>
        <pt x="104" y="388" on="0"/>
        <pt x="104" y="337" on="1"/>
        <pt x="104" y="282" on="0"/>
        <pt x="146" y="171" on="0"/>
        <pt x="220" y="81" on="0"/>
        <pt x="321" y="25" on="0"/>
      </contour>
    </TTGlyph>
    <TTGlyph name="OE" xMin="45" yMin="-11" xMax="852" yMax="669">
      <contour>
        <pt x="852" y="123" on="1"/>
        <pt x="852" y="1" on="1"/>
        <pt x="458" y="1" on="1"/>
        <pt x="413" y="-11" on="0"/>
        <pt x="366" y="-11" on="1"/>
        <pt x="289" y="-11" on="0"/>
        <pt x="169" y="45" on="0"/>
        <pt x="87" y="137" on="0"/>
        <pt x="45" y="257" on="0"/>
        <pt x="45" y="322" on="1"/>
        <pt x="45" y="387" on="0"/>
        <pt x="88" y="512" on="0"/>
        <pt x="173" y="609" on="0"/>
        <pt x="298" y="669" on="0"/>
        <pt x="380" y="669" on="1"/>
        <pt x="402" y="669" on="0"/>
        <pt x="445" y="664" on="0"/>
        <pt x="465" y="659" on="1"/>
        <pt x="827" y="659" on="1"/>
        <pt x="827" y="566" on="1"/>
        <pt x="817" y="566" on="1"/>
        <pt x="817" y="589" on="0"/>
        <pt x="786" y="624" on="0"/>
        <pt x="753" y="624" on="1"/>
        <pt x="558" y="624" on="1"/>
        <pt x="558" y="371" on="1"/>
        <pt x="715" y="371" on="1"/>
        <pt x="738" y="371" on="0"/>
        <pt x="768" y="399" on="0"/>
        <pt x="768" y="418" on="1"/>
        <pt x="778" y="418" on="1"/>
        <pt x="778" y="293" on="1"/>
        <pt x="768" y="293" on="1"/>
        <pt x="768" y="311" on="0"/>
        <pt x="738" y="337" on="0"/>
        <pt x="715" y="337" on="1"/>
        <pt x="558" y="337" on="1"/>
        <pt x="558" y="34" on="1"/>
        <pt x="767" y="34" on="1"/>
        <pt x="786" y="34" on="0"/>
        <pt x="814" y="52" on="0"/>
        <pt x="833" y="79" on="0"/>
        <pt x="842" y="110" on="0"/>
        <pt x="842" y="123" on="1"/>
      </contour>
      <contour>
        <pt x="111" y="336" on="1"/>
        <pt x="111" y="281" on="0"/>
        <pt x="150" y="170" on="0"/>
        <pt x="220" y="80" on="0"/>
        <pt x="319" y="24" on="0"/>
        <pt x="379" y="24" on="1"/>
        <pt x="409" y="24" on="0"/>
        <pt x="467" y="40" on="0"/>
        <pt x="491" y="51" on="1"/>
        <pt x="491" y="600" on="1"/>
        <pt x="464" y="619" on="0"/>
        <pt x="399" y="634" on="0"/>
        <pt x="367" y="634" on="1"/>
        <pt x="305" y="634" on="0"/>
        <pt x="209" y="579" on="0"/>
        <pt x="144" y="493" on="0"/>
        <pt x="111" y="387" on="0"/>
      </contour>
    </TTGlyph>
    <TTGlyph name="Oacute" xMin="37" yMin="-10" xMax="718" yMax="795">
      <contour>
        <pt x="382" y="670" on="1"/>
        <pt x="460" y="670" on="0"/>
        <pt x="584" y="615" on="0"/>
        <pt x="671" y="522" on="0"/>
        <pt x="718" y="399" on="0"/>
        <pt x="718" y="332" on="1"/>
        <pt x="718" y="257" on="0"/>
        <pt x="663" y="131" on="0"/>
        <pt x="567" y="41" on="0"/>
        <pt x="440" y="-10" on="0"/>
        <pt x="368" y="-10" on="1"/>
        <pt x="291" y="-10" on="0"/>
        <pt x="168" y="46" on="0"/>
        <pt x="83" y="138" on="0"/>
        <pt x="37" y="258" on="0"/>
        <pt x="37" y="323" on="1"/>
        <pt x="37" y="387" on="0"/>
        <pt x="83" y="512" on="0"/>
        <pt x="172" y="610" on="0"/>
        <pt x="300" y="670" on="0"/>
      </contour>
      <contour>
        <pt x="381" y="25" on="1"/>
        <pt x="448" y="28" on="0"/>
        <pt x="549" y="83" on="0"/>
        <pt x="617" y="168" on="0"/>
        <pt x="650" y="270" on="0"/>
        <pt x="650" y="320" on="1"/>
        <pt x="650" y="375" on="0"/>
        <pt x="610" y="487" on="0"/>
        <pt x="536" y="578" on="0"/>
        <pt x="433" y="635" on="0"/>
        <pt x="369" y="635" on="1"/>
        <pt x="307" y="635" on="0"/>
        <pt x="209" y="580" on="0"/>
        <pt x="140" y="494" on="0"/>
        <pt x="104" y="388" on="0"/>
        <pt x="104" y="337" on="1"/>
        <pt x="104" y="282" on="0"/>
        <pt x="146" y="171" on="0"/>
        <pt x="220" y="81" on="0"/>
        <pt x="321" y="25" on="0"/>
      </contour>
      <contour>
        <pt x="296" y="688" on="1"/>
        <pt x="438" y="795" on="1"/>
        <pt x="464" y="750" on="1"/>
        <pt x="299" y="682" on="1"/>
      </contour>
    </TTGlyph>
    <TTGlyph name="Obreve" xMin="37" yMin="-10" xMax="718" yMax="795">
      <contour>
        <pt x="382" y="670" on="1"/>
        <pt x="460" y="670" on="0"/>
        <pt x="584" y="615" on="0"/>
        <pt x="671" y="522" on="0"/>
        <pt x="718" y="399" on="0"/>
        <pt x="718" y="332" on="1"/>
        <pt x="718" y="257" on="0"/>
        <pt x="663" y="131" on="0"/>
        <pt x="567" y="41" on="0"/>
        <pt x="440" y="-10" on="0"/>
        <pt x="368" y="-10" on="1"/>
        <pt x="291" y="-10" on="0"/>
        <pt x="168" y="46" on="0"/>
        <pt x="83" y="138" on="0"/>
        <pt x="37" y="258" on="0"/>
        <pt x="37" y="323" on="1"/>
        <pt x="37" y="387" on="0"/>
        <pt x="83" y="512" on="0"/>
        <pt x="172" y="610" on="0"/>
        <pt x="300" y="670" on="0"/>
      </contour>
      <contour>
        <pt x="381" y="25" on="1"/>
        <pt x="448" y="28" on="0"/>
        <pt x="549" y="83" on="0"/>
        <pt x="617" y="168" on="0"/>
        <pt x="650" y="270" on="0"/>
        <pt x="650" y="320" on="1"/>
        <pt x="650" y="375" on="0"/>
        <pt x="610" y="487" on="0"/>
        <pt x="536" y="578" on="0"/>
        <pt x="433" y="635" on="0"/>
        <pt x="369" y="635" on="1"/>
        <pt x="307" y="635" on="0"/>
        <pt x="209" y="580" on="0"/>
        <pt x="140" y="494" on="0"/>
        <pt x="104" y="388" on="0"/>
        <pt x="104" y="337" on="1"/>
        <pt x="104" y="282" on="0"/>
        <pt x="146" y="171" on="0"/>
        <pt x="220" y="81" on="0"/>
        <pt x="321" y="25" on="0"/>
      </contour>
      <contour>
        <pt x="492" y="795" on="1"/>
        <pt x="492" y="779" on="0"/>
        <pt x="476" y="742" on="0"/>
        <pt x="447" y="711" on="0"/>
        <pt x="406" y="691" on="0"/>
        <pt x="381" y="691" on="1"/>
        <pt x="357" y="691" on="0"/>
        <pt x="316" y="710" on="0"/>
        <pt x="286" y="740" on="0"/>
        <pt x="268" y="777" on="0"/>
        <pt x="268" y="795" on="1"/>
        <pt x="274" y="795" on="1"/>
        <pt x="275" y="789" on="0"/>
        <pt x="286" y="768" on="0"/>
        <pt x="310" y="746" on="0"/>
        <pt x="350" y="730" on="0"/>
        <pt x="380" y="730" on="1"/>
        <pt x="411" y="730" on="0"/>
        <pt x="450" y="746" on="0"/>
        <pt x="474" y="768" on="0"/>
        <pt x="484" y="789" on="0"/>
        <pt x="486" y="795" on="1"/>
      </contour>
    </TTGlyph>
    <TTGlyph name="Ocircumflex" xMin="37" yMin="-10" xMax="718" yMax="793">
      <contour>
        <pt x="382" y="670" on="1"/>
        <pt x="460" y="670" on="0"/>
        <pt x="584" y="615" on="0"/>
        <pt x="671" y="522" on="0"/>
        <pt x="718" y="399" on="0"/>
        <pt x="718" y="332" on="1"/>
        <pt x="718" y="257" on="0"/>
        <pt x="663" y="131" on="0"/>
        <pt x="567" y="41" on="0"/>
        <pt x="440" y="-10" on="0"/>
        <pt x="368" y="-10" on="1"/>
        <pt x="291" y="-10" on="0"/>
        <pt x="168" y="46" on="0"/>
        <pt x="83" y="138" on="0"/>
        <pt x="37" y="258" on="0"/>
        <pt x="37" y="323" on="1"/>
        <pt x="37" y="387" on="0"/>
        <pt x="83" y="512" on="0"/>
        <pt x="172" y="610" on="0"/>
        <pt x="300" y="670" on="0"/>
      </contour>
      <contour>
        <pt x="381" y="25" on="1"/>
        <pt x="448" y="28" on="0"/>
        <pt x="549" y="83" on="0"/>
        <pt x="617" y="168" on="0"/>
        <pt x="650" y="270" on="0"/>
        <pt x="650" y="320" on="1"/>
        <pt x="650" y="375" on="0"/>
        <pt x="610" y="487" on="0"/>
        <pt x="536" y="578" on="0"/>
        <pt x="433" y="635" on="0"/>
        <pt x="369" y="635" on="1"/>
        <pt x="307" y="635" on="0"/>
        <pt x="209" y="580" on="0"/>
        <pt x="140" y="494" on="0"/>
        <pt x="104" y="388" on="0"/>
        <pt x="104" y="337" on="1"/>
        <pt x="104" y="282" on="0"/>
        <pt x="146" y="171" on="0"/>
        <pt x="220" y="81" on="0"/>
        <pt x="321" y="25" on="0"/>
      </contour>
      <contour>
        <pt x="501" y="685" on="1"/>
        <pt x="380" y="744" on="1"/>
        <pt x="260" y="685" on="1"/>
        <pt x="258" y="690" on="1"/>
        <pt x="380" y="793" on="1"/>
        <pt x="502" y="690" on="1"/>
      </contour>
    </TTGlyph>
    <TTGlyph name="Odieresis" xMin="37" yMin="-10" xMax="718" yMax="750">
      <contour>
        <pt x="382" y="670" on="1"/>
        <pt x="460" y="670" on="0"/>
        <pt x="584" y="615" on="0"/>
        <pt x="671" y="522" on="0"/>
        <pt x="718" y="399" on="0"/>
        <pt x="718" y="332" on="1"/>
        <pt x="718" y="257" on="0"/>
        <pt x="663" y="131" on="0"/>
        <pt x="567" y="41" on="0"/>
        <pt x="440" y="-10" on="0"/>
        <pt x="368" y="-10" on="1"/>
        <pt x="291" y="-10" on="0"/>
        <pt x="168" y="46" on="0"/>
        <pt x="83" y="138" on="0"/>
        <pt x="37" y="258" on="0"/>
        <pt x="37" y="323" on="1"/>
        <pt x="37" y="387" on="0"/>
        <pt x="83" y="512" on="0"/>
        <pt x="172" y="610" on="0"/>
        <pt x="300" y="670" on="0"/>
      </contour>
      <contour>
        <pt x="381" y="25" on="1"/>
        <pt x="448" y="28" on="0"/>
        <pt x="549" y="83" on="0"/>
        <pt x="617" y="168" on="0"/>
        <pt x="650" y="270" on="0"/>
        <pt x="650" y="320" on="1"/>
        <pt x="650" y="375" on="0"/>
        <pt x="610" y="487" on="0"/>
        <pt x="536" y="578" on="0"/>
        <pt x="433" y="635" on="0"/>
        <pt x="369" y="635" on="1"/>
        <pt x="307" y="635" on="0"/>
        <pt x="209" y="580" on="0"/>
        <pt x="140" y="494" on="0"/>
        <pt x="104" y="388" on="0"/>
        <pt x="104" y="337" on="1"/>
        <pt x="104" y="282" on="0"/>
        <pt x="146" y="171" on="0"/>
        <pt x="220" y="81" on="0"/>
        <pt x="321" y="25" on="0"/>
      </contour>
      <contour>
        <pt x="469" y="718" on="1"/>
        <pt x="469" y="704" on="0"/>
        <pt x="451" y="686" on="0"/>
        <pt x="439" y="686" on="1"/>
        <pt x="425" y="686" on="0"/>
        <pt x="406" y="704" on="0"/>
        <pt x="406" y="718" on="1"/>
        <pt x="406" y="732" on="0"/>
        <pt x="425" y="750" on="0"/>
        <pt x="439" y="750" on="1"/>
        <pt x="451" y="750" on="0"/>
        <pt x="469" y="732" on="0"/>
      </contour>
      <contour>
        <pt x="354" y="718" on="1"/>
        <pt x="354" y="704" on="0"/>
        <pt x="336" y="686" on="0"/>
        <pt x="322" y="686" on="1"/>
        <pt x="308" y="686" on="0"/>
        <pt x="290" y="704" on="0"/>
        <pt x="290" y="718" on="1"/>
        <pt x="290" y="732" on="0"/>
        <pt x="308" y="750" on="0"/>
        <pt x="322" y="750" on="1"/>
        <pt x="336" y="750" on="0"/>
        <pt x="354" y="732" on="0"/>
      </contour>
    </TTGlyph>
    <TTGlyph name="Ograve" xMin="37" yMin="-10" xMax="718" yMax="795">
      <contour>
        <pt x="382" y="670" on="1"/>
        <pt x="460" y="670" on="0"/>
        <pt x="584" y="615" on="0"/>
        <pt x="671" y="522" on="0"/>
        <pt x="718" y="399" on="0"/>
        <pt x="718" y="332" on="1"/>
        <pt x="718" y="257" on="0"/>
        <pt x="663" y="131" on="0"/>
        <pt x="567" y="41" on="0"/>
        <pt x="440" y="-10" on="0"/>
        <pt x="368" y="-10" on="1"/>
        <pt x="291" y="-10" on="0"/>
        <pt x="168" y="46" on="0"/>
        <pt x="83" y="138" on="0"/>
        <pt x="37" y="258" on="0"/>
        <pt x="37" y="323" on="1"/>
        <pt x="37" y="387" on="0"/>
        <pt x="83" y="512" on="0"/>
        <pt x="172" y="610" on="0"/>
        <pt x="300" y="670" on="0"/>
      </contour>
      <contour>
        <pt x="381" y="25" on="1"/>
        <pt x="448" y="28" on="0"/>
        <pt x="549" y="83" on="0"/>
        <pt x="617" y="168" on="0"/>
        <pt x="650" y="270" on="0"/>
        <pt x="650" y="320" on="1"/>
        <pt x="650" y="375" on="0"/>
        <pt x="610" y="487" on="0"/>
        <pt x="536" y="578" on="0"/>
        <pt x="433" y="635" on="0"/>
        <pt x="369" y="635" on="1"/>
        <pt x="307" y="635" on="0"/>
        <pt x="209" y="580" on="0"/>
        <pt x="140" y="494" on="0"/>
        <pt x="104" y="388" on="0"/>
        <pt x="104" y="337" on="1"/>
        <pt x="104" y="282" on="0"/>
        <pt x="146" y="171" on="0"/>
        <pt x="220" y="81" on="0"/>
        <pt x="321" y="25" on="0"/>
      </contour>
      <contour>
        <pt x="462" y="682" on="1"/>
        <pt x="296" y="750" on="1"/>
        <pt x="322" y="795" on="1"/>
        <pt x="464" y="688" on="1"/>
      </contour>
    </TTGlyph>
    <TTGlyph name="Ohungarumlaut" xMin="37" yMin="-10" xMax="718" yMax="856">
      <contour>
        <pt x="382" y="670" on="1"/>
        <pt x="460" y="670" on="0"/>
        <pt x="584" y="615" on="0"/>
        <pt x="671" y="522" on="0"/>
        <pt x="718" y="399" on="0"/>
        <pt x="718" y="332" on="1"/>
        <pt x="718" y="257" on="0"/>
        <pt x="663" y="131" on="0"/>
        <pt x="567" y="41" on="0"/>
        <pt x="440" y="-10" on="0"/>
        <pt x="368" y="-10" on="1"/>
        <pt x="291" y="-10" on="0"/>
        <pt x="168" y="46" on="0"/>
        <pt x="83" y="138" on="0"/>
        <pt x="37" y="258" on="0"/>
        <pt x="37" y="323" on="1"/>
        <pt x="37" y="387" on="0"/>
        <pt x="83" y="512" on="0"/>
        <pt x="172" y="610" on="0"/>
        <pt x="300" y="670" on="0"/>
      </contour>
      <contour>
        <pt x="381" y="25" on="1"/>
        <pt x="448" y="28" on="0"/>
        <pt x="549" y="83" on="0"/>
        <pt x="617" y="168" on="0"/>
        <pt x="650" y="270" on="0"/>
        <pt x="650" y="320" on="1"/>
        <pt x="650" y="375" on="0"/>
        <pt x="610" y="487" on="0"/>
        <pt x="536" y="578" on="0"/>
        <pt x="433" y="635" on="0"/>
        <pt x="369" y="635" on="1"/>
        <pt x="307" y="635" on="0"/>
        <pt x="209" y="580" on="0"/>
        <pt x="140" y="494" on="0"/>
        <pt x="104" y="388" on="0"/>
        <pt x="104" y="337" on="1"/>
        <pt x="104" y="282" on="0"/>
        <pt x="146" y="171" on="0"/>
        <pt x="220" y="81" on="0"/>
        <pt x="321" y="25" on="0"/>
      </contour>
      <contour>
        <pt x="258" y="694" on="1"/>
        <pt x="341" y="856" on="1"/>
        <pt x="392" y="824" on="1"/>
        <pt x="269" y="686" on="1"/>
      </contour>
      <contour>
        <pt x="350" y="695" on="1"/>
        <pt x="457" y="842" on="1"/>
        <pt x="502" y="803" on="1"/>
        <pt x="361" y="685" on="1"/>
      </contour>
    </TTGlyph>
    <TTGlyph name="Omacron" xMin="37" yMin="-10" xMax="718" yMax="753">
      <contour>
        <pt x="382" y="670" on="1"/>
        <pt x="460" y="670" on="0"/>
        <pt x="584" y="615" on="0"/>
        <pt x="671" y="522" on="0"/>
        <pt x="718" y="399" on="0"/>
        <pt x="718" y="332" on="1"/>
        <pt x="718" y="257" on="0"/>
        <pt x="663" y="131" on="0"/>
        <pt x="567" y="41" on="0"/>
        <pt x="440" y="-10" on="0"/>
        <pt x="368" y="-10" on="1"/>
        <pt x="291" y="-10" on="0"/>
        <pt x="168" y="46" on="0"/>
        <pt x="83" y="138" on="0"/>
        <pt x="37" y="258" on="0"/>
        <pt x="37" y="323" on="1"/>
        <pt x="37" y="387" on="0"/>
        <pt x="83" y="512" on="0"/>
        <pt x="172" y="610" on="0"/>
        <pt x="300" y="670" on="0"/>
      </contour>
      <contour>
        <pt x="381" y="25" on="1"/>
        <pt x="448" y="28" on="0"/>
        <pt x="549" y="83" on="0"/>
        <pt x="617" y="168" on="0"/>
        <pt x="650" y="270" on="0"/>
        <pt x="650" y="320" on="1"/>
        <pt x="650" y="375" on="0"/>
        <pt x="610" y="487" on="0"/>
        <pt x="536" y="578" on="0"/>
        <pt x="433" y="635" on="0"/>
        <pt x="369" y="635" on="1"/>
        <pt x="307" y="635" on="0"/>
        <pt x="209" y="580" on="0"/>
        <pt x="140" y="494" on="0"/>
        <pt x="104" y="388" on="0"/>
        <pt x="104" y="337" on="1"/>
        <pt x="104" y="282" on="0"/>
        <pt x="146" y="171" on="0"/>
        <pt x="220" y="81" on="0"/>
        <pt x="321" y="25" on="0"/>
      </contour>
      <contour>
        <pt x="280" y="753" on="1"/>
        <pt x="480" y="753" on="1"/>
        <pt x="480" y="713" on="1"/>
        <pt x="280" y="713" on="1"/>
      </contour>
    </TTGlyph>
    <TTGlyph name="Oslash" xMin="37" yMin="-61" xMax="718" yMax="714">
      <contour>
        <pt x="382" y="670" on="1"/>
        <pt x="433" y="670" on="0"/>
        <pt x="480" y="656" on="1"/>
        <pt x="502" y="714" on="1"/>
        <pt x="542" y="714" on="1"/>
        <pt x="516" y="645" on="1"/>
        <pt x="563" y="625" on="0"/>
        <pt x="638" y="560" on="0"/>
        <pt x="690" y="478" on="0"/>
        <pt x="718" y="383" on="0"/>
        <pt x="718" y="332" on="1"/>
        <pt x="718" y="257" on="0"/>
        <pt x="663" y="131" on="0"/>
        <pt x="567" y="41" on="0"/>
        <pt x="440" y="-10" on="0"/>
        <pt x="368" y="-10" on="1"/>
        <pt x="324" y="-10" on="0"/>
        <pt x="280" y="1" on="1"/>
        <pt x="257" y="-61" on="1"/>
        <pt x="216" y="-61" on="1"/>
        <pt x="243" y="12" on="1"/>
        <pt x="195" y="31" on="0"/>
        <pt x="119" y="96" on="0"/>
        <pt x="65" y="179" on="0"/>
        <pt x="37" y="273" on="0"/>
        <pt x="37" y="323" on="1"/>
        <pt x="37" y="387" on="0"/>
        <pt x="83" y="512" on="0"/>
        <pt x="172" y="610" on="0"/>
        <pt x="300" y="670" on="0"/>
      </contour>
      <contour>
        <pt x="104" y="337" on="1"/>
        <pt x="104" y="298" on="0"/>
        <pt x="127" y="218" on="0"/>
        <pt x="168" y="144" on="0"/>
        <pt x="225" y="81" on="0"/>
        <pt x="260" y="60" on="1"/>
        <pt x="466" y="615" on="1"/>
        <pt x="420" y="635" on="0"/>
        <pt x="369" y="635" on="1"/>
        <pt x="307" y="635" on="0"/>
        <pt x="209" y="580" on="0"/>
        <pt x="140" y="494" on="0"/>
        <pt x="104" y="388" on="0"/>
      </contour>
      <contour>
        <pt x="381" y="25" on="1"/>
        <pt x="448" y="28" on="0"/>
        <pt x="549" y="83" on="0"/>
        <pt x="617" y="168" on="0"/>
        <pt x="650" y="270" on="0"/>
        <pt x="650" y="320" on="1"/>
        <pt x="650" y="359" on="0"/>
        <pt x="629" y="438" on="0"/>
        <pt x="590" y="512" on="0"/>
        <pt x="534" y="575" on="0"/>
        <pt x="499" y="597" on="1"/>
        <pt x="294" y="41" on="1"/>
        <pt x="337" y="25" on="0"/>
      </contour>
    </TTGlyph>
    <TTGlyph name="Oslashacute" xMin="37" yMin="-61" xMax="718" yMax="795">
      <contour>
        <pt x="382" y="670" on="1"/>
        <pt x="460" y="670" on="0"/>
        <pt x="584" y="615" on="0"/>
        <pt x="671" y="522" on="0"/>
        <pt x="718" y="399" on="0"/>
        <pt x="718" y="332" on="1"/>
        <pt x="718" y="257" on="0"/>
        <pt x="663" y="131" on="0"/>
        <pt x="567" y="41" on="0"/>
        <pt x="440" y="-10" on="0"/>
        <pt x="368" y="-10" on="1"/>
        <pt x="291" y="-10" on="0"/>
        <pt x="168" y="46" on="0"/>
        <pt x="83" y="138" on="0"/>
        <pt x="37" y="258" on="0"/>
        <pt x="37" y="323" on="1"/>
        <pt x="37" y="387" on="0"/>
        <pt x="83" y="512" on="0"/>
        <pt x="172" y="610" on="0"/>
        <pt x="300" y="670" on="0"/>
      </contour>
      <contour>
        <pt x="381" y="25" on="1"/>
        <pt x="448" y="28" on="0"/>
        <pt x="549" y="83" on="0"/>
        <pt x="617" y="168" on="0"/>
        <pt x="650" y="270" on="0"/>
        <pt x="650" y="320" on="1"/>
        <pt x="650" y="375" on="0"/>
        <pt x="610" y="487" on="0"/>
        <pt x="536" y="578" on="0"/>
        <pt x="433" y="635" on="0"/>
        <pt x="369" y="635" on="1"/>
        <pt x="307" y="635" on="0"/>
        <pt x="209" y="580" on="0"/>
        <pt x="140" y="494" on="0"/>
        <pt x="104" y="388" on="0"/>
        <pt x="104" y="337" on="1"/>
        <pt x="104" y="282" on="0"/>
        <pt x="146" y="171" on="0"/>
        <pt x="220" y="81" on="0"/>
        <pt x="321" y="25" on="0"/>
      </contour>
      <contour>
        <pt x="257" y="-61" on="1"/>
        <pt x="220" y="-49" on="1"/>
        <pt x="502" y="714" on="1"/>
        <pt x="539" y="704" on="1"/>
      </contour>
      <contour>
        <pt x="296" y="688" on="1"/>
        <pt x="438" y="795" on="1"/>
        <pt x="464" y="750" on="1"/>
        <pt x="299" y="682" on="1"/>
      </contour>
    </TTGlyph>
    <TTGlyph name="Otilde" xMin="37" yMin="-10" xMax="718" yMax="772">
      <contour>
        <pt x="382" y="670" on="1"/>
        <pt x="460" y="670" on="0"/>
        <pt x="584" y="615" on="0"/>
        <pt x="671" y="522" on="0"/>
        <pt x="718" y="399" on="0"/>
        <pt x="718" y="332" on="1"/>
        <pt x="718" y="257" on="0"/>
        <pt x="663" y="131" on="0"/>
        <pt x="567" y="41" on="0"/>
        <pt x="440" y="-10" on="0"/>
        <pt x="368" y="-10" on="1"/>
        <pt x="291" y="-10" on="0"/>
        <pt x="168" y="46" on="0"/>
        <pt x="83" y="138" on="0"/>
        <pt x="37" y="258" on="0"/>
        <pt x="37" y="323" on="1"/>
        <pt x="37" y="387" on="0"/>
        <pt x="83" y="512" on="0"/>
        <pt x="172" y="610" on="0"/>
        <pt x="300" y="670" on="0"/>
      </contour>
      <contour>
        <pt x="381" y="25" on="1"/>
        <pt x="448" y="28" on="0"/>
        <pt x="549" y="83" on="0"/>
        <pt x="617" y="168" on="0"/>
        <pt x="650" y="270" on="0"/>
        <pt x="650" y="320" on="1"/>
        <pt x="650" y="375" on="0"/>
        <pt x="610" y="487" on="0"/>
        <pt x="536" y="578" on="0"/>
        <pt x="433" y="635" on="0"/>
        <pt x="369" y="635" on="1"/>
        <pt x="307" y="635" on="0"/>
        <pt x="209" y="580" on="0"/>
        <pt x="140" y="494" on="0"/>
        <pt x="104" y="388" on="0"/>
        <pt x="104" y="337" on="1"/>
        <pt x="104" y="282" on="0"/>
        <pt x="146" y="171" on="0"/>
        <pt x="220" y="81" on="0"/>
        <pt x="321" y="25" on="0"/>
      </contour>
      <contour>
        <pt x="494" y="767" on="1"/>
        <pt x="482" y="722" on="0"/>
        <pt x="459" y="694" on="0"/>
        <pt x="438" y="694" on="1"/>
        <pt x="426" y="694" on="0"/>
        <pt x="396" y="706" on="0"/>
        <pt x="364" y="721" on="0"/>
        <pt x="333" y="734" on="0"/>
        <pt x="320" y="734" on="1"/>
        <pt x="305" y="734" on="0"/>
        <pt x="284" y="712" on="0"/>
        <pt x="271" y="694" on="1"/>
        <pt x="266" y="695" on="1"/>
        <pt x="280" y="737" on="0"/>
        <pt x="317" y="772" on="0"/>
        <pt x="337" y="772" on="1"/>
        <pt x="349" y="772" on="0"/>
        <pt x="377" y="760" on="0"/>
        <pt x="404" y="745" on="0"/>
        <pt x="432" y="733" on="0"/>
        <pt x="444" y="733" on="1"/>
        <pt x="460" y="733" on="0"/>
        <pt x="482" y="754" on="0"/>
        <pt x="490" y="768" on="1"/>
      </contour>
    </TTGlyph>
    <TTGlyph name="P" xMin="44" yMin="0" xMax="412" yMax="660">
      <contour>
        <pt x="44" y="660" on="1"/>
        <pt x="186" y="660" on="1"/>
        <pt x="297" y="660" on="0"/>
        <pt x="412" y="575" on="0"/>
        <pt x="412" y="497" on="1"/>
        <pt x="412" y="455" on="0"/>
        <pt x="372" y="389" on="0"/>
        <pt x="307" y="344" on="0"/>
        <pt x="226" y="320" on="0"/>
        <pt x="186" y="320" on="1"/>
        <pt x="148" y="320" on="1"/>
        <pt x="148" y="65" on="1"/>
        <pt x="148" y="57" on="0"/>
        <pt x="152" y="38" on="0"/>
        <pt x="161" y="22" on="0"/>
        <pt x="172" y="10" on="0"/>
        <pt x="180" y="10" on="1"/>
        <pt x="185" y="10" on="1"/>
        <pt x="185" y="0" on="1"/>
        <pt x="44" y="0" on="1"/>
        <pt x="44" y="10" on="1"/>
        <pt x="49" y="10" on="1"/>
        <pt x="56" y="10" on="0"/>
        <pt x="68" y="22" on="0"/>
        <pt x="76" y="38" on="0"/>
        <pt x="80" y="57" on="0"/>
        <pt x="80" y="65" on="1"/>
        <pt x="80" y="598" on="1"/>
        <pt x="80" y="612" on="0"/>
        <pt x="64" y="648" on="0"/>
        <pt x="49" y="650" on="1"/>
        <pt x="44" y="650" on="1"/>
      </contour>
      <contour>
        <pt x="148" y="625" on="1"/>
        <pt x="148" y="355" on="1"/>
        <pt x="178" y="355" on="1"/>
        <pt x="218" y="355" on="0"/>
        <pt x="281" y="377" on="0"/>
        <pt x="323" y="413" on="0"/>
        <pt x="345" y="459" on="0"/>
        <pt x="345" y="483" on="1"/>
        <pt x="345" y="512" on="0"/>
        <pt x="326" y="563" on="0"/>
        <pt x="283" y="602" on="0"/>
        <pt x="213" y="625" on="0"/>
        <pt x="162" y="625" on="1"/>
      </contour>
    </TTGlyph>
    <TTGlyph name="Q" xMin="40" yMin="-168" xMax="1294" yMax="670">
      <contour>
        <pt x="384" y="670" on="1"/>
        <pt x="462" y="670" on="0"/>
        <pt x="586" y="611" on="0"/>
        <pt x="673" y="516" on="0"/>
        <pt x="720" y="396" on="0"/>
        <pt x="720" y="334" on="1"/>
        <pt x="720" y="289" on="0"/>
        <pt x="702" y="213" on="0"/>
        <pt x="670" y="149" on="0"/>
        <pt x="629" y="96" on="0"/>
        <pt x="605" y="74" on="1"/>
        <pt x="638" y="37" on="1"/>
        <pt x="677" y="1" on="0"/>
        <pt x="769" y="-56" on="0"/>
        <pt x="863" y="-95" on="0"/>
        <pt x="955" y="-115" on="0"/>
        <pt x="993" y="-115" on="1"/>
        <pt x="1026" y="-115" on="0"/>
        <pt x="1101" y="-103" on="0"/>
        <pt x="1178" y="-79" on="0"/>
        <pt x="1254" y="-40" on="0"/>
        <pt x="1288" y="-13" on="1"/>
        <pt x="1294" y="-22" on="1"/>
        <pt x="1261" y="-58" on="0"/>
        <pt x="1179" y="-113" on="0"/>
        <pt x="1089" y="-149" on="0"/>
        <pt x="994" y="-168" on="0"/>
        <pt x="948" y="-168" on="1"/>
        <pt x="902" y="-168" on="0"/>
        <pt x="810" y="-152" on="0"/>
        <pt x="718" y="-114" on="0"/>
        <pt x="626" y="-49" on="0"/>
        <pt x="580" y="0" on="1"/>
        <pt x="546" y="36" on="1"/>
        <pt x="529" y="25" on="0"/>
        <pt x="486" y="8" on="0"/>
        <pt x="438" y="-4" on="0"/>
        <pt x="388" y="-10" on="0"/>
        <pt x="366" y="-10" on="1"/>
        <pt x="296" y="-10" on="0"/>
        <pt x="177" y="47" on="0"/>
        <pt x="90" y="140" on="0"/>
        <pt x="40" y="260" on="0"/>
        <pt x="40" y="323" on="1"/>
        <pt x="40" y="387" on="0"/>
        <pt x="86" y="512" on="0"/>
        <pt x="175" y="610" on="0"/>
        <pt x="303" y="670" on="0"/>
      </contour>
      <contour>
        <pt x="383" y="25" on="1"/>
        <pt x="450" y="28" on="0"/>
        <pt x="552" y="83" on="0"/>
        <pt x="619" y="168" on="0"/>
        <pt x="653" y="270" on="0"/>
        <pt x="653" y="319" on="1"/>
        <pt x="653" y="374" on="0"/>
        <pt x="612" y="487" on="0"/>
        <pt x="539" y="578" on="0"/>
        <pt x="435" y="635" on="0"/>
        <pt x="372" y="635" on="1"/>
        <pt x="310" y="635" on="0"/>
        <pt x="211" y="580" on="0"/>
        <pt x="143" y="494" on="0"/>
        <pt x="107" y="389" on="0"/>
        <pt x="107" y="338" on="1"/>
        <pt x="107" y="283" on="0"/>
        <pt x="148" y="171" on="0"/>
        <pt x="222" y="81" on="0"/>
        <pt x="323" y="25" on="0"/>
      </contour>
    </TTGlyph>
    <TTGlyph name="R" xMin="45" yMin="0" xMax="525" yMax="660">
      <contour>
        <pt x="181" y="10" on="1"/>
        <pt x="186" y="10" on="1"/>
        <pt x="186" y="0" on="1"/>
        <pt x="45" y="0" on="1"/>
        <pt x="45" y="10" on="1"/>
        <pt x="50" y="10" on="1"/>
        <pt x="57" y="10" on="0"/>
        <pt x="69" y="22" on="0"/>
        <pt x="78" y="38" on="0"/>
        <pt x="82" y="57" on="0"/>
        <pt x="82" y="65" on="1"/>
        <pt x="82" y="598" on="1"/>
        <pt x="82" y="605" on="0"/>
        <pt x="78" y="623" on="0"/>
        <pt x="69" y="639" on="0"/>
        <pt x="57" y="650" on="0"/>
        <pt x="50" y="650" on="1"/>
        <pt x="45" y="650" on="1"/>
        <pt x="45" y="660" on="1"/>
        <pt x="219" y="660" on="1"/>
        <pt x="319" y="660" on="0"/>
        <pt x="428" y="582" on="0"/>
        <pt x="428" y="506" on="1"/>
        <pt x="428" y="468" on="0"/>
        <pt x="403" y="411" on="0"/>
        <pt x="361" y="370" on="0"/>
        <pt x="304" y="345" on="0"/>
        <pt x="272" y="339" on="1"/>
        <pt x="344" y="229" on="1"/>
        <pt x="370" y="189" on="0"/>
        <pt x="424" y="112" on="0"/>
        <pt x="450" y="71" on="1"/>
        <pt x="457" y="61" on="0"/>
        <pt x="474" y="39" on="0"/>
        <pt x="493" y="21" on="0"/>
        <pt x="514" y="10" on="0"/>
        <pt x="525" y="10" on="1"/>
        <pt x="525" y="0" on="1"/>
        <pt x="482" y="0" on="1"/>
        <pt x="442" y="0" on="0"/>
        <pt x="391" y="39" on="0"/>
        <pt x="374" y="65" on="1"/>
        <pt x="329" y="131" on="0"/>
        <pt x="240" y="267" on="0"/>
        <pt x="196" y="333" on="1"/>
        <pt x="185" y="334" on="0"/>
        <pt x="160" y="337" on="0"/>
        <pt x="149" y="339" on="1"/>
        <pt x="149" y="65" on="1"/>
        <pt x="149" y="57" on="0"/>
        <pt x="153" y="38" on="0"/>
        <pt x="162" y="22" on="0"/>
        <pt x="173" y="10" on="0"/>
      </contour>
      <contour>
        <pt x="149" y="626" on="1"/>
        <pt x="149" y="372" on="1"/>
        <pt x="154" y="372" on="1"/>
        <pt x="162" y="371" on="0"/>
        <pt x="197" y="370" on="0"/>
        <pt x="223" y="370" on="1"/>
        <pt x="244" y="370" on="0"/>
        <pt x="291" y="383" on="0"/>
        <pt x="332" y="414" on="0"/>
        <pt x="359" y="464" on="0"/>
        <pt x="359" y="502" on="1"/>
        <pt x="359" y="540" on="0"/>
        <pt x="330" y="588" on="0"/>
        <pt x="279" y="616" on="0"/>
        <pt x="207" y="626" on="0"/>
        <pt x="164" y="626" on="1"/>
      </contour>
    </TTGlyph>
    <TTGlyph name="Racute" xMin="45" yMin="0" xMax="525" yMax="795">
      <contour>
        <pt x="181" y="10" on="1"/>
        <pt x="186" y="10" on="1"/>
        <pt x="186" y="0" on="1"/>
        <pt x="45" y="0" on="1"/>
        <pt x="45" y="10" on="1"/>
        <pt x="50" y="10" on="1"/>
        <pt x="57" y="10" on="0"/>
        <pt x="69" y="22" on="0"/>
        <pt x="78" y="38" on="0"/>
        <pt x="82" y="57" on="0"/>
        <pt x="82" y="65" on="1"/>
        <pt x="82" y="598" on="1"/>
        <pt x="82" y="605" on="0"/>
        <pt x="78" y="623" on="0"/>
        <pt x="69" y="639" on="0"/>
        <pt x="57" y="650" on="0"/>
        <pt x="50" y="650" on="1"/>
        <pt x="45" y="650" on="1"/>
        <pt x="45" y="660" on="1"/>
        <pt x="219" y="660" on="1"/>
        <pt x="319" y="660" on="0"/>
        <pt x="428" y="582" on="0"/>
        <pt x="428" y="506" on="1"/>
        <pt x="428" y="468" on="0"/>
        <pt x="403" y="411" on="0"/>
        <pt x="361" y="370" on="0"/>
        <pt x="304" y="345" on="0"/>
        <pt x="272" y="339" on="1"/>
        <pt x="344" y="229" on="1"/>
        <pt x="370" y="189" on="0"/>
        <pt x="424" y="112" on="0"/>
        <pt x="450" y="71" on="1"/>
        <pt x="457" y="61" on="0"/>
        <pt x="474" y="39" on="0"/>
        <pt x="493" y="21" on="0"/>
        <pt x="514" y="10" on="0"/>
        <pt x="525" y="10" on="1"/>
        <pt x="525" y="0" on="1"/>
        <pt x="482" y="0" on="1"/>
        <pt x="442" y="0" on="0"/>
        <pt x="391" y="39" on="0"/>
        <pt x="374" y="65" on="1"/>
        <pt x="329" y="131" on="0"/>
        <pt x="240" y="267" on="0"/>
        <pt x="196" y="333" on="1"/>
        <pt x="185" y="334" on="0"/>
        <pt x="160" y="337" on="0"/>
        <pt x="149" y="339" on="1"/>
        <pt x="149" y="65" on="1"/>
        <pt x="149" y="57" on="0"/>
        <pt x="153" y="38" on="0"/>
        <pt x="162" y="22" on="0"/>
        <pt x="173" y="10" on="0"/>
      </contour>
      <contour>
        <pt x="149" y="626" on="1"/>
        <pt x="149" y="372" on="1"/>
        <pt x="154" y="372" on="1"/>
        <pt x="162" y="371" on="0"/>
        <pt x="197" y="370" on="0"/>
        <pt x="223" y="370" on="1"/>
        <pt x="244" y="370" on="0"/>
        <pt x="291" y="383" on="0"/>
        <pt x="332" y="414" on="0"/>
        <pt x="359" y="464" on="0"/>
        <pt x="359" y="502" on="1"/>
        <pt x="359" y="540" on="0"/>
        <pt x="330" y="588" on="0"/>
        <pt x="279" y="616" on="0"/>
        <pt x="207" y="626" on="0"/>
        <pt x="164" y="626" on="1"/>
      </contour>
      <contour>
        <pt x="185" y="688" on="1"/>
        <pt x="327" y="795" on="1"/>
        <pt x="353" y="750" on="1"/>
        <pt x="188" y="682" on="1"/>
      </contour>
    </TTGlyph>
    <TTGlyph name="Rcaron" xMin="45" yMin="0" xMax="525" yMax="790">
      <contour>
        <pt x="181" y="10" on="1"/>
        <pt x="186" y="10" on="1"/>
        <pt x="186" y="0" on="1"/>
        <pt x="45" y="0" on="1"/>
        <pt x="45" y="10" on="1"/>
        <pt x="50" y="10" on="1"/>
        <pt x="57" y="10" on="0"/>
        <pt x="69" y="22" on="0"/>
        <pt x="78" y="38" on="0"/>
        <pt x="82" y="57" on="0"/>
        <pt x="82" y="65" on="1"/>
        <pt x="82" y="598" on="1"/>
        <pt x="82" y="605" on="0"/>
        <pt x="78" y="623" on="0"/>
        <pt x="69" y="639" on="0"/>
        <pt x="57" y="650" on="0"/>
        <pt x="50" y="650" on="1"/>
        <pt x="45" y="650" on="1"/>
        <pt x="45" y="660" on="1"/>
        <pt x="219" y="660" on="1"/>
        <pt x="319" y="660" on="0"/>
        <pt x="428" y="582" on="0"/>
        <pt x="428" y="506" on="1"/>
        <pt x="428" y="468" on="0"/>
        <pt x="403" y="411" on="0"/>
        <pt x="361" y="370" on="0"/>
        <pt x="304" y="345" on="0"/>
        <pt x="272" y="339" on="1"/>
        <pt x="344" y="229" on="1"/>
        <pt x="370" y="189" on="0"/>
        <pt x="424" y="112" on="0"/>
        <pt x="450" y="71" on="1"/>
        <pt x="457" y="61" on="0"/>
        <pt x="474" y="39" on="0"/>
        <pt x="493" y="21" on="0"/>
        <pt x="514" y="10" on="0"/>
        <pt x="525" y="10" on="1"/>
        <pt x="525" y="0" on="1"/>
        <pt x="482" y="0" on="1"/>
        <pt x="442" y="0" on="0"/>
        <pt x="391" y="39" on="0"/>
        <pt x="374" y="65" on="1"/>
        <pt x="329" y="131" on="0"/>
        <pt x="240" y="267" on="0"/>
        <pt x="196" y="333" on="1"/>
        <pt x="185" y="334" on="0"/>
        <pt x="160" y="337" on="0"/>
        <pt x="149" y="339" on="1"/>
        <pt x="149" y="65" on="1"/>
        <pt x="149" y="57" on="0"/>
        <pt x="153" y="38" on="0"/>
        <pt x="162" y="22" on="0"/>
        <pt x="173" y="10" on="0"/>
      </contour>
      <contour>
        <pt x="149" y="626" on="1"/>
        <pt x="149" y="372" on="1"/>
        <pt x="154" y="372" on="1"/>
        <pt x="162" y="371" on="0"/>
        <pt x="197" y="370" on="0"/>
        <pt x="223" y="370" on="1"/>
        <pt x="244" y="370" on="0"/>
        <pt x="291" y="383" on="0"/>
        <pt x="332" y="414" on="0"/>
        <pt x="359" y="464" on="0"/>
        <pt x="359" y="502" on="1"/>
        <pt x="359" y="540" on="0"/>
        <pt x="330" y="588" on="0"/>
        <pt x="279" y="616" on="0"/>
        <pt x="207" y="626" on="0"/>
        <pt x="164" y="626" on="1"/>
      </contour>
      <contour>
        <pt x="149" y="790" on="1"/>
        <pt x="270" y="733" on="1"/>
        <pt x="389" y="790" on="1"/>
        <pt x="391" y="786" on="1"/>
        <pt x="270" y="682" on="1"/>
        <pt x="146" y="786" on="1"/>
      </contour>
    </TTGlyph>
    <TTGlyph name="S" xMin="36" yMin="-8" xMax="450" yMax="670">
      <contour>
        <pt x="450" y="177" on="1"/>
        <pt x="450" y="127" on="0"/>
        <pt x="410" y="56" on="0"/>
        <pt x="347" y="12" on="0"/>
        <pt x="268" y="-8" on="0"/>
        <pt x="229" y="-8" on="1"/>
        <pt x="189" y="-8" on="0"/>
        <pt x="131" y="8" on="0"/>
        <pt x="107" y="15" on="1"/>
        <pt x="91" y="20" on="0"/>
        <pt x="65" y="27" on="0"/>
        <pt x="52" y="27" on="1"/>
        <pt x="52" y="141" on="1"/>
        <pt x="62" y="141" on="1"/>
        <pt x="62" y="103" on="0"/>
        <pt x="101" y="58" on="0"/>
        <pt x="153" y="34" on="0"/>
        <pt x="205" y="27" on="0"/>
        <pt x="217" y="27" on="1"/>
        <pt x="260" y="27" on="0"/>
        <pt x="322" y="52" on="0"/>
        <pt x="362" y="93" on="0"/>
        <pt x="381" y="143" on="0"/>
        <pt x="381" y="169" on="1"/>
        <pt x="381" y="202" on="0"/>
        <pt x="353" y="247" on="0"/>
        <pt x="308" y="281" on="0"/>
        <pt x="250" y="305" on="0"/>
        <pt x="220" y="317" on="1"/>
        <pt x="186" y="330" on="0"/>
        <pt x="120" y="358" on="0"/>
        <pt x="68" y="399" on="0"/>
        <pt x="36" y="456" on="0"/>
        <pt x="36" y="498" on="1"/>
        <pt x="36" y="542" on="0"/>
        <pt x="70" y="607" on="0"/>
        <pt x="127" y="649" on="0"/>
        <pt x="200" y="670" on="0"/>
        <pt x="238" y="670" on="1"/>
        <pt x="264" y="670" on="0"/>
        <pt x="310" y="663" on="0"/>
        <pt x="331" y="658" on="1"/>
        <pt x="348" y="654" on="0"/>
        <pt x="380" y="649" on="0"/>
        <pt x="395" y="649" on="1"/>
        <pt x="395" y="546" on="1"/>
        <pt x="385" y="546" on="1"/>
        <pt x="383" y="598" on="0"/>
        <pt x="305" y="635" on="0"/>
        <pt x="236" y="635" on="1"/>
        <pt x="196" y="635" on="0"/>
        <pt x="145" y="608" on="0"/>
        <pt x="115" y="569" on="0"/>
        <pt x="104" y="524" on="0"/>
        <pt x="104" y="507" on="1"/>
        <pt x="104" y="479" on="0"/>
        <pt x="129" y="439" on="0"/>
        <pt x="171" y="409" on="0"/>
        <pt x="226" y="385" on="0"/>
        <pt x="256" y="374" on="1"/>
        <pt x="290" y="361" on="0"/>
        <pt x="360" y="331" on="0"/>
        <pt x="415" y="287" on="0"/>
        <pt x="450" y="223" on="0"/>
      </contour>
    </TTGlyph>
    <TTGlyph name="Sacute" xMin="36" yMin="-8" xMax="450" yMax="795">
      <contour>
        <pt x="450" y="177" on="1"/>
        <pt x="450" y="127" on="0"/>
        <pt x="410" y="56" on="0"/>
        <pt x="347" y="12" on="0"/>
        <pt x="268" y="-8" on="0"/>
        <pt x="229" y="-8" on="1"/>
        <pt x="189" y="-8" on="0"/>
        <pt x="131" y="8" on="0"/>
        <pt x="107" y="15" on="1"/>
        <pt x="91" y="20" on="0"/>
        <pt x="65" y="27" on="0"/>
        <pt x="52" y="27" on="1"/>
        <pt x="52" y="141" on="1"/>
        <pt x="62" y="141" on="1"/>
        <pt x="62" y="103" on="0"/>
        <pt x="101" y="58" on="0"/>
        <pt x="153" y="34" on="0"/>
        <pt x="205" y="27" on="0"/>
        <pt x="217" y="27" on="1"/>
        <pt x="260" y="27" on="0"/>
        <pt x="322" y="52" on="0"/>
        <pt x="362" y="93" on="0"/>
        <pt x="381" y="143" on="0"/>
        <pt x="381" y="169" on="1"/>
        <pt x="381" y="202" on="0"/>
        <pt x="353" y="247" on="0"/>
        <pt x="308" y="281" on="0"/>
        <pt x="250" y="305" on="0"/>
        <pt x="220" y="317" on="1"/>
        <pt x="186" y="330" on="0"/>
        <pt x="120" y="358" on="0"/>
        <pt x="68" y="399" on="0"/>
        <pt x="36" y="456" on="0"/>
        <pt x="36" y="498" on="1"/>
        <pt x="36" y="542" on="0"/>
        <pt x="70" y="607" on="0"/>
        <pt x="127" y="649" on="0"/>
        <pt x="200" y="670" on="0"/>
        <pt x="238" y="670" on="1"/>
        <pt x="264" y="670" on="0"/>
        <pt x="310" y="663" on="0"/>
        <pt x="331" y="658" on="1"/>
        <pt x="348" y="654" on="0"/>
        <pt x="380" y="649" on="0"/>
        <pt x="395" y="649" on="1"/>
        <pt x="395" y="546" on="1"/>
        <pt x="385" y="546" on="1"/>
        <pt x="383" y="598" on="0"/>
        <pt x="305" y="635" on="0"/>
        <pt x="236" y="635" on="1"/>
        <pt x="196" y="635" on="0"/>
        <pt x="145" y="608" on="0"/>
        <pt x="115" y="569" on="0"/>
        <pt x="104" y="524" on="0"/>
        <pt x="104" y="507" on="1"/>
        <pt x="104" y="479" on="0"/>
        <pt x="129" y="439" on="0"/>
        <pt x="171" y="409" on="0"/>
        <pt x="226" y="385" on="0"/>
        <pt x="256" y="374" on="1"/>
        <pt x="290" y="361" on="0"/>
        <pt x="360" y="331" on="0"/>
        <pt x="415" y="287" on="0"/>
        <pt x="450" y="223" on="0"/>
      </contour>
      <contour>
        <pt x="160" y="688" on="1"/>
        <pt x="302" y="795" on="1"/>
        <pt x="328" y="750" on="1"/>
        <pt x="163" y="682" on="1"/>
      </contour>
    </TTGlyph>
    <TTGlyph name="Scaron" xMin="36" yMin="-8" xMax="450" yMax="790">
      <contour>
        <pt x="450" y="177" on="1"/>
        <pt x="450" y="127" on="0"/>
        <pt x="410" y="56" on="0"/>
        <pt x="347" y="12" on="0"/>
        <pt x="268" y="-8" on="0"/>
        <pt x="229" y="-8" on="1"/>
        <pt x="189" y="-8" on="0"/>
        <pt x="131" y="8" on="0"/>
        <pt x="107" y="15" on="1"/>
        <pt x="91" y="20" on="0"/>
        <pt x="65" y="27" on="0"/>
        <pt x="52" y="27" on="1"/>
        <pt x="52" y="141" on="1"/>
        <pt x="62" y="141" on="1"/>
        <pt x="62" y="103" on="0"/>
        <pt x="101" y="58" on="0"/>
        <pt x="153" y="34" on="0"/>
        <pt x="205" y="27" on="0"/>
        <pt x="217" y="27" on="1"/>
        <pt x="260" y="27" on="0"/>
        <pt x="322" y="52" on="0"/>
        <pt x="362" y="93" on="0"/>
        <pt x="381" y="143" on="0"/>
        <pt x="381" y="169" on="1"/>
        <pt x="381" y="202" on="0"/>
        <pt x="353" y="247" on="0"/>
        <pt x="308" y="281" on="0"/>
        <pt x="250" y="305" on="0"/>
        <pt x="220" y="317" on="1"/>
        <pt x="186" y="330" on="0"/>
        <pt x="120" y="358" on="0"/>
        <pt x="68" y="399" on="0"/>
        <pt x="36" y="456" on="0"/>
        <pt x="36" y="498" on="1"/>
        <pt x="36" y="542" on="0"/>
        <pt x="70" y="607" on="0"/>
        <pt x="127" y="649" on="0"/>
        <pt x="200" y="670" on="0"/>
        <pt x="238" y="670" on="1"/>
        <pt x="264" y="670" on="0"/>
        <pt x="310" y="663" on="0"/>
        <pt x="331" y="658" on="1"/>
        <pt x="348" y="654" on="0"/>
        <pt x="380" y="649" on="0"/>
        <pt x="395" y="649" on="1"/>
        <pt x="395" y="546" on="1"/>
        <pt x="385" y="546" on="1"/>
        <pt x="383" y="598" on="0"/>
        <pt x="305" y="635" on="0"/>
        <pt x="236" y="635" on="1"/>
        <pt x="196" y="635" on="0"/>
        <pt x="145" y="608" on="0"/>
        <pt x="115" y="569" on="0"/>
        <pt x="104" y="524" on="0"/>
        <pt x="104" y="507" on="1"/>
        <pt x="104" y="479" on="0"/>
        <pt x="129" y="439" on="0"/>
        <pt x="171" y="409" on="0"/>
        <pt x="226" y="385" on="0"/>
        <pt x="256" y="374" on="1"/>
        <pt x="290" y="361" on="0"/>
        <pt x="360" y="331" on="0"/>
        <pt x="415" y="287" on="0"/>
        <pt x="450" y="223" on="0"/>
      </contour>
      <contour>
        <pt x="124" y="790" on="1"/>
        <pt x="245" y="733" on="1"/>
        <pt x="364" y="790" on="1"/>
        <pt x="366" y="786" on="1"/>
        <pt x="245" y="682" on="1"/>
        <pt x="121" y="786" on="1"/>
      </contour>
    </TTGlyph>
    <TTGlyph name="Scedilla" xMin="36" yMin="-179" xMax="450" yMax="670">
      <contour>
        <pt x="236" y="-50" on="1"/>
        <pt x="280" y="-55" on="0"/>
        <pt x="320" y="-88" on="0"/>
        <pt x="320" y="-109" on="1"/>
        <pt x="320" y="-135" on="0"/>
        <pt x="262" y="-179" on="0"/>
        <pt x="208" y="-179" on="1"/>
        <pt x="202" y="-179" on="0"/>
        <pt x="190" y="-178" on="0"/>
        <pt x="184" y="-177" on="1"/>
        <pt x="179" y="-177" on="0"/>
        <pt x="171" y="-176" on="0"/>
        <pt x="168" y="-176" on="1"/>
        <pt x="168" y="-168" on="1"/>
        <pt x="179" y="-168" on="1"/>
        <pt x="198" y="-168" on="0"/>
        <pt x="232" y="-159" on="0"/>
        <pt x="257" y="-144" on="0"/>
        <pt x="272" y="-125" on="0"/>
        <pt x="272" y="-114" on="1"/>
        <pt x="272" y="-97" on="0"/>
        <pt x="232" y="-66" on="0"/>
        <pt x="195" y="-61" on="1"/>
        <pt x="227" y="-8" on="1"/>
        <pt x="190" y="-8" on="0"/>
        <pt x="135" y="5" on="0"/>
        <pt x="112" y="13" on="1"/>
        <pt x="92" y="20" on="0"/>
        <pt x="65" y="27" on="0"/>
        <pt x="52" y="27" on="1"/>
        <pt x="52" y="141" on="1"/>
        <pt x="62" y="141" on="1"/>
        <pt x="62" y="103" on="0"/>
        <pt x="101" y="58" on="0"/>
        <pt x="153" y="34" on="0"/>
        <pt x="205" y="27" on="0"/>
        <pt x="217" y="27" on="1"/>
        <pt x="260" y="27" on="0"/>
        <pt x="322" y="52" on="0"/>
        <pt x="362" y="93" on="0"/>
        <pt x="381" y="143" on="0"/>
        <pt x="381" y="169" on="1"/>
        <pt x="381" y="202" on="0"/>
        <pt x="353" y="247" on="0"/>
        <pt x="308" y="281" on="0"/>
        <pt x="250" y="305" on="0"/>
        <pt x="220" y="317" on="1"/>
        <pt x="186" y="330" on="0"/>
        <pt x="120" y="358" on="0"/>
        <pt x="68" y="399" on="0"/>
        <pt x="36" y="456" on="0"/>
        <pt x="36" y="498" on="1"/>
        <pt x="36" y="542" on="0"/>
        <pt x="70" y="607" on="0"/>
        <pt x="127" y="649" on="0"/>
        <pt x="200" y="670" on="0"/>
        <pt x="238" y="670" on="1"/>
        <pt x="264" y="670" on="0"/>
        <pt x="310" y="663" on="0"/>
        <pt x="331" y="658" on="1"/>
        <pt x="348" y="654" on="0"/>
        <pt x="380" y="649" on="0"/>
        <pt x="395" y="649" on="1"/>
        <pt x="395" y="546" on="1"/>
        <pt x="385" y="546" on="1"/>
        <pt x="383" y="598" on="0"/>
        <pt x="305" y="635" on="0"/>
        <pt x="236" y="635" on="1"/>
        <pt x="196" y="635" on="0"/>
        <pt x="145" y="608" on="0"/>
        <pt x="115" y="569" on="0"/>
        <pt x="104" y="524" on="0"/>
        <pt x="104" y="507" on="1"/>
        <pt x="104" y="479" on="0"/>
        <pt x="129" y="439" on="0"/>
        <pt x="171" y="409" on="0"/>
        <pt x="226" y="385" on="0"/>
        <pt x="256" y="374" on="1"/>
        <pt x="290" y="361" on="0"/>
        <pt x="360" y="331" on="0"/>
        <pt x="415" y="287" on="0"/>
        <pt x="450" y="223" on="0"/>
        <pt x="450" y="177" on="1"/>
        <pt x="450" y="132" on="0"/>
        <pt x="417" y="66" on="0"/>
        <pt x="364" y="21" on="0"/>
        <pt x="296" y="-3" on="0"/>
        <pt x="261" y="-6" on="1"/>
      </contour>
    </TTGlyph>
    <TTGlyph name="Scircumflex" xMin="36" yMin="-8" xMax="450" yMax="793">
      <contour>
        <pt x="450" y="177" on="1"/>
        <pt x="450" y="127" on="0"/>
        <pt x="410" y="56" on="0"/>
        <pt x="347" y="12" on="0"/>
        <pt x="268" y="-8" on="0"/>
        <pt x="229" y="-8" on="1"/>
        <pt x="189" y="-8" on="0"/>
        <pt x="131" y="8" on="0"/>
        <pt x="107" y="15" on="1"/>
        <pt x="91" y="20" on="0"/>
        <pt x="65" y="27" on="0"/>
        <pt x="52" y="27" on="1"/>
        <pt x="52" y="141" on="1"/>
        <pt x="62" y="141" on="1"/>
        <pt x="62" y="103" on="0"/>
        <pt x="101" y="58" on="0"/>
        <pt x="153" y="34" on="0"/>
        <pt x="205" y="27" on="0"/>
        <pt x="217" y="27" on="1"/>
        <pt x="260" y="27" on="0"/>
        <pt x="322" y="52" on="0"/>
        <pt x="362" y="93" on="0"/>
        <pt x="381" y="143" on="0"/>
        <pt x="381" y="169" on="1"/>
        <pt x="381" y="202" on="0"/>
        <pt x="353" y="247" on="0"/>
        <pt x="308" y="281" on="0"/>
        <pt x="250" y="305" on="0"/>
        <pt x="220" y="317" on="1"/>
        <pt x="186" y="330" on="0"/>
        <pt x="120" y="358" on="0"/>
        <pt x="68" y="399" on="0"/>
        <pt x="36" y="456" on="0"/>
        <pt x="36" y="498" on="1"/>
        <pt x="36" y="542" on="0"/>
        <pt x="70" y="607" on="0"/>
        <pt x="127" y="649" on="0"/>
        <pt x="200" y="670" on="0"/>
        <pt x="238" y="670" on="1"/>
        <pt x="264" y="670" on="0"/>
        <pt x="310" y="663" on="0"/>
        <pt x="331" y="658" on="1"/>
        <pt x="348" y="654" on="0"/>
        <pt x="380" y="649" on="0"/>
        <pt x="395" y="649" on="1"/>
        <pt x="395" y="546" on="1"/>
        <pt x="385" y="546" on="1"/>
        <pt x="383" y="598" on="0"/>
        <pt x="305" y="635" on="0"/>
        <pt x="236" y="635" on="1"/>
        <pt x="196" y="635" on="0"/>
        <pt x="145" y="608" on="0"/>
        <pt x="115" y="569" on="0"/>
        <pt x="104" y="524" on="0"/>
        <pt x="104" y="507" on="1"/>
        <pt x="104" y="479" on="0"/>
        <pt x="129" y="439" on="0"/>
        <pt x="171" y="409" on="0"/>
        <pt x="226" y="385" on="0"/>
        <pt x="256" y="374" on="1"/>
        <pt x="290" y="361" on="0"/>
        <pt x="360" y="331" on="0"/>
        <pt x="415" y="287" on="0"/>
        <pt x="450" y="223" on="0"/>
      </contour>
      <contour>
        <pt x="365" y="685" on="1"/>
        <pt x="244" y="744" on="1"/>
        <pt x="124" y="685" on="1"/>
        <pt x="122" y="690" on="1"/>
        <pt x="244" y="793" on="1"/>
        <pt x="366" y="690" on="1"/>
      </contour>
    </TTGlyph>
    <TTGlyph name="T" xMin="9" yMin="0" xMax="458" yMax="660">
      <contour>
        <pt x="298" y="10" on="1"/>
        <pt x="303" y="10" on="1"/>
        <pt x="303" y="0" on="1"/>
        <pt x="161" y="0" on="1"/>
        <pt x="161" y="10" on="1"/>
        <pt x="166" y="10" on="1"/>
        <pt x="174" y="10" on="0"/>
        <pt x="186" y="22" on="0"/>
        <pt x="195" y="38" on="0"/>
        <pt x="199" y="57" on="0"/>
        <pt x="199" y="65" on="1"/>
        <pt x="199" y="623" on="1"/>
        <pt x="83" y="623" on="1"/>
        <pt x="67" y="623" on="0"/>
        <pt x="43" y="609" on="0"/>
        <pt x="27" y="588" on="0"/>
        <pt x="19" y="563" on="0"/>
        <pt x="19" y="551" on="1"/>
        <pt x="9" y="551" on="1"/>
        <pt x="9" y="660" on="1"/>
        <pt x="458" y="660" on="1"/>
        <pt x="458" y="551" on="1"/>
        <pt x="448" y="551" on="1"/>
        <pt x="448" y="563" on="0"/>
        <pt x="440" y="588" on="0"/>
        <pt x="424" y="609" on="0"/>
        <pt x="400" y="623" on="0"/>
        <pt x="384" y="623" on="1"/>
        <pt x="266" y="623" on="1"/>
        <pt x="266" y="65" on="1"/>
        <pt x="266" y="57" on="0"/>
        <pt x="270" y="38" on="0"/>
        <pt x="279" y="22" on="0"/>
        <pt x="290" y="10" on="0"/>
      </contour>
    </TTGlyph>
    <TTGlyph name="Tbar" xMin="9" yMin="0" xMax="458" yMax="660">
      <contour>
        <pt x="298" y="10" on="1"/>
        <pt x="303" y="10" on="1"/>
        <pt x="303" y="0" on="1"/>
        <pt x="161" y="0" on="1"/>
        <pt x="161" y="10" on="1"/>
        <pt x="166" y="10" on="1"/>
        <pt x="174" y="10" on="0"/>
        <pt x="186" y="22" on="0"/>
        <pt x="195" y="38" on="0"/>
        <pt x="199" y="57" on="0"/>
        <pt x="199" y="65" on="1"/>
        <pt x="199" y="429" on="1"/>
        <pt x="85" y="429" on="1"/>
        <pt x="85" y="466" on="1"/>
        <pt x="199" y="466" on="1"/>
        <pt x="199" y="623" on="1"/>
        <pt x="83" y="623" on="1"/>
        <pt x="67" y="623" on="0"/>
        <pt x="43" y="609" on="0"/>
        <pt x="27" y="588" on="0"/>
        <pt x="19" y="563" on="0"/>
        <pt x="19" y="551" on="1"/>
        <pt x="9" y="551" on="1"/>
        <pt x="9" y="660" on="1"/>
        <pt x="458" y="660" on="1"/>
        <pt x="458" y="551" on="1"/>
        <pt x="448" y="551" on="1"/>
        <pt x="448" y="563" on="0"/>
        <pt x="440" y="588" on="0"/>
        <pt x="424" y="609" on="0"/>
        <pt x="400" y="623" on="0"/>
        <pt x="384" y="623" on="1"/>
        <pt x="266" y="623" on="1"/>
        <pt x="266" y="466" on="1"/>
        <pt x="388" y="466" on="1"/>
        <pt x="388" y="429" on="1"/>
        <pt x="266" y="429" on="1"/>
        <pt x="266" y="65" on="1"/>
        <pt x="266" y="57" on="0"/>
        <pt x="270" y="38" on="0"/>
        <pt x="279" y="22" on="0"/>
        <pt x="290" y="10" on="0"/>
      </contour>
    </TTGlyph>
    <TTGlyph name="Tcaron" xMin="9" yMin="0" xMax="458" yMax="790">
      <contour>
        <pt x="298" y="10" on="1"/>
        <pt x="303" y="10" on="1"/>
        <pt x="303" y="0" on="1"/>
        <pt x="161" y="0" on="1"/>
        <pt x="161" y="10" on="1"/>
        <pt x="166" y="10" on="1"/>
        <pt x="174" y="10" on="0"/>
        <pt x="186" y="22" on="0"/>
        <pt x="195" y="38" on="0"/>
        <pt x="199" y="57" on="0"/>
        <pt x="199" y="65" on="1"/>
        <pt x="199" y="623" on="1"/>
        <pt x="83" y="623" on="1"/>
        <pt x="67" y="623" on="0"/>
        <pt x="43" y="609" on="0"/>
        <pt x="27" y="588" on="0"/>
        <pt x="19" y="563" on="0"/>
        <pt x="19" y="551" on="1"/>
        <pt x="9" y="551" on="1"/>
        <pt x="9" y="660" on="1"/>
        <pt x="458" y="660" on="1"/>
        <pt x="458" y="551" on="1"/>
        <pt x="448" y="551" on="1"/>
        <pt x="448" y="563" on="0"/>
        <pt x="440" y="588" on="0"/>
        <pt x="424" y="609" on="0"/>
        <pt x="400" y="623" on="0"/>
        <pt x="384" y="623" on="1"/>
        <pt x="266" y="623" on="1"/>
        <pt x="266" y="65" on="1"/>
        <pt x="266" y="57" on="0"/>
        <pt x="270" y="38" on="0"/>
        <pt x="279" y="22" on="0"/>
        <pt x="290" y="10" on="0"/>
      </contour>
      <contour>
        <pt x="115" y="790" on="1"/>
        <pt x="236" y="733" on="1"/>
        <pt x="355" y="790" on="1"/>
        <pt x="357" y="786" on="1"/>
        <pt x="236" y="682" on="1"/>
        <pt x="112" y="786" on="1"/>
      </contour>
    </TTGlyph>
    <TTGlyph name="Thorn" xMin="44" yMin="0" xMax="413" yMax="660">
      <contour>
        <pt x="182" y="10" on="1"/>
        <pt x="187" y="10" on="1"/>
        <pt x="187" y="0" on="1"/>
        <pt x="44" y="0" on="1"/>
        <pt x="44" y="10" on="1"/>
        <pt x="49" y="10" on="1"/>
        <pt x="57" y="10" on="0"/>
        <pt x="69" y="21" on="0"/>
        <pt x="78" y="38" on="0"/>
        <pt x="82" y="57" on="0"/>
        <pt x="82" y="65" on="1"/>
        <pt x="82" y="598" on="1"/>
        <pt x="82" y="605" on="0"/>
        <pt x="78" y="623" on="0"/>
        <pt x="69" y="639" on="0"/>
        <pt x="57" y="650" on="0"/>
        <pt x="49" y="650" on="1"/>
        <pt x="44" y="650" on="1"/>
        <pt x="44" y="660" on="1"/>
        <pt x="187" y="660" on="1"/>
        <pt x="187" y="650" on="1"/>
        <pt x="182" y="650" on="1"/>
        <pt x="175" y="650" on="0"/>
        <pt x="163" y="639" on="0"/>
        <pt x="155" y="624" on="0"/>
        <pt x="150" y="605" on="0"/>
        <pt x="150" y="598" on="1"/>
        <pt x="150" y="580" on="1"/>
        <pt x="187" y="580" on="1"/>
        <pt x="298" y="580" on="0"/>
        <pt x="413" y="496" on="0"/>
        <pt x="413" y="418" on="1"/>
        <pt x="413" y="375" on="0"/>
        <pt x="373" y="309" on="0"/>
        <pt x="308" y="264" on="0"/>
        <pt x="227" y="240" on="0"/>
        <pt x="187" y="240" on="1"/>
        <pt x="150" y="240" on="1"/>
        <pt x="150" y="65" on="1"/>
        <pt x="150" y="57" on="0"/>
        <pt x="154" y="38" on="0"/>
        <pt x="163" y="22" on="0"/>
        <pt x="174" y="10" on="0"/>
      </contour>
      <contour>
        <pt x="179" y="275" on="1"/>
        <pt x="219" y="275" on="0"/>
        <pt x="282" y="297" on="0"/>
        <pt x="324" y="333" on="0"/>
        <pt x="346" y="379" on="0"/>
        <pt x="346" y="403" on="1"/>
        <pt x="346" y="432" on="0"/>
        <pt x="327" y="484" on="0"/>
        <pt x="284" y="523" on="0"/>
        <pt x="214" y="545" on="0"/>
        <pt x="163" y="545" on="1"/>
        <pt x="150" y="545" on="1"/>
        <pt x="150" y="275" on="1"/>
      </contour>
    </TTGlyph>
    <TTGlyph name="U" xMin="45" yMin="-10" xMax="534" yMax="660">
      <contour>
        <pt x="45" y="660" on="1"/>
        <pt x="187" y="660" on="1"/>
        <pt x="187" y="650" on="1"/>
        <pt x="182" y="650" on="1"/>
        <pt x="174" y="650" on="0"/>
        <pt x="162" y="639" on="0"/>
        <pt x="153" y="623" on="0"/>
        <pt x="149" y="605" on="0"/>
        <pt x="149" y="598" on="1"/>
        <pt x="149" y="203" on="1"/>
        <pt x="149" y="164" on="0"/>
        <pt x="165" y="98" on="0"/>
        <pt x="203" y="50" on="0"/>
        <pt x="265" y="23" on="0"/>
        <pt x="310" y="23" on="1"/>
        <pt x="360" y="23" on="0"/>
        <pt x="420" y="55" on="0"/>
        <pt x="452" y="106" on="0"/>
        <pt x="462" y="170" on="0"/>
        <pt x="462" y="201" on="1"/>
        <pt x="462" y="598" on="1"/>
        <pt x="462" y="605" on="0"/>
        <pt x="458" y="623" on="0"/>
        <pt x="449" y="639" on="0"/>
        <pt x="437" y="650" on="0"/>
        <pt x="430" y="650" on="1"/>
        <pt x="425" y="650" on="1"/>
        <pt x="425" y="660" on="1"/>
        <pt x="534" y="660" on="1"/>
        <pt x="534" y="650" on="1"/>
        <pt x="529" y="650" on="1"/>
        <pt x="521" y="650" on="0"/>
        <pt x="510" y="639" on="0"/>
        <pt x="501" y="623" on="0"/>
        <pt x="497" y="605" on="0"/>
        <pt x="497" y="598" on="1"/>
        <pt x="497" y="204" on="1"/>
        <pt x="497" y="139" on="0"/>
        <pt x="465" y="56" on="0"/>
        <pt x="409" y="8" on="0"/>
        <pt x="334" y="-10" on="0"/>
        <pt x="292" y="-10" on="1"/>
        <pt x="247" y="-10" on="0"/>
        <pt x="170" y="9" on="0"/>
        <pt x="114" y="57" on="0"/>
        <pt x="82" y="140" on="0"/>
        <pt x="82" y="203" on="1"/>
        <pt x="82" y="598" on="1"/>
        <pt x="82" y="605" on="0"/>
        <pt x="78" y="623" on="0"/>
        <pt x="69" y="639" on="0"/>
        <pt x="57" y="650" on="0"/>
        <pt x="50" y="650" on="1"/>
        <pt x="45" y="650" on="1"/>
      </contour>
    </TTGlyph>
    <TTGlyph name="Uacute" xMin="45" yMin="-10" xMax="534" yMax="795">
      <contour>
        <pt x="45" y="660" on="1"/>
        <pt x="187" y="660" on="1"/>
        <pt x="187" y="650" on="1"/>
        <pt x="182" y="650" on="1"/>
        <pt x="174" y="650" on="0"/>
        <pt x="162" y="639" on="0"/>
        <pt x="153" y="623" on="0"/>
        <pt x="149" y="605" on="0"/>
        <pt x="149" y="598" on="1"/>
        <pt x="149" y="203" on="1"/>
        <pt x="149" y="164" on="0"/>
        <pt x="165" y="98" on="0"/>
        <pt x="203" y="50" on="0"/>
        <pt x="265" y="23" on="0"/>
        <pt x="310" y="23" on="1"/>
        <pt x="360" y="23" on="0"/>
        <pt x="420" y="55" on="0"/>
        <pt x="452" y="106" on="0"/>
        <pt x="462" y="170" on="0"/>
        <pt x="462" y="201" on="1"/>
        <pt x="462" y="598" on="1"/>
        <pt x="462" y="605" on="0"/>
        <pt x="458" y="623" on="0"/>
        <pt x="449" y="639" on="0"/>
        <pt x="437" y="650" on="0"/>
        <pt x="430" y="650" on="1"/>
        <pt x="425" y="650" on="1"/>
        <pt x="425" y="660" on="1"/>
        <pt x="534" y="660" on="1"/>
        <pt x="534" y="650" on="1"/>
        <pt x="529" y="650" on="1"/>
        <pt x="521" y="650" on="0"/>
        <pt x="510" y="639" on="0"/>
        <pt x="501" y="623" on="0"/>
        <pt x="497" y="605" on="0"/>
        <pt x="497" y="598" on="1"/>
        <pt x="497" y="204" on="1"/>
        <pt x="497" y="139" on="0"/>
        <pt x="465" y="56" on="0"/>
        <pt x="409" y="8" on="0"/>
        <pt x="334" y="-10" on="0"/>
        <pt x="292" y="-10" on="1"/>
        <pt x="247" y="-10" on="0"/>
        <pt x="170" y="9" on="0"/>
        <pt x="114" y="57" on="0"/>
        <pt x="82" y="140" on="0"/>
        <pt x="82" y="203" on="1"/>
        <pt x="82" y="598" on="1"/>
        <pt x="82" y="605" on="0"/>
        <pt x="78" y="623" on="0"/>
        <pt x="69" y="639" on="0"/>
        <pt x="57" y="650" on="0"/>
        <pt x="50" y="650" on="1"/>
        <pt x="45" y="650" on="1"/>
      </contour>
      <contour>
        <pt x="207" y="688" on="1"/>
        <pt x="349" y="795" on="1"/>
        <pt x="375" y="750" on="1"/>
        <pt x="210" y="682" on="1"/>
      </contour>
    </TTGlyph>
</ttFont>
